# 3ds Max Wavefront OBJ Exporter v0.97b - (c)2007 guruware
# File Created: 25.05.2018 09:37:40

mtllib Coal.mtl

#
# object Box001
#

v  -2.1500 0.4752 1.6999
v  1.9871 0.4752 1.6999
v  1.9871 2.2023 1.6999
v  -2.1500 2.2023 1.6999
v  2.5885 0.1900 0.6675
v  2.5815 2.3764 0.6795
v  1.9871 0.4752 -1.6999
v  -2.1500 0.4752 -1.6999
v  -2.1500 2.2023 -1.6999
v  1.9871 2.2023 -1.6999
v  -2.6356 0.2002 -0.7277
v  -2.6287 2.3697 -0.7416
v  0.7455 3.3609 1.6999
v  -1.7718 3.3609 1.6999
v  1.0086 3.8344 0.6933
v  -1.7718 3.3609 -1.6999
v  0.7455 3.3609 -1.6999
v  -2.1674 3.8381 -0.7092
v  0.0311 4.1490 1.6999
v  -1.0574 4.1490 1.6999
v  0.1115 4.8579 0.6486
v  -1.0574 4.1490 -1.6999
v  0.0311 4.1490 -1.6999
v  -1.2724 4.8557 -0.6763
v  -2.6420 0.1966 0.6913
v  -1.6430 -0.7335 0.6912
v  -1.3577 -0.2624 1.6999
v  1.4639 -0.2624 -1.6999
v  -1.3577 -0.2624 -1.6999
v  2.5817 0.1933 -0.7032
v  1.9223 -0.7412 -0.6989
v  1.4639 -0.2624 1.6999
v  -1.1911 -1.2539 0.6729
v  -0.9965 -0.6667 1.6999
v  0.0949 -0.6667 -1.6999
v  -0.9965 -0.6667 -1.6999
v  0.1887 -1.2432 -0.7153
v  0.0949 -0.6667 1.6999
v  -1.1888 -1.2470 -0.7088
v  -1.2746 4.8628 0.6412
v  2.5742 2.3742 -0.7156
v  -2.6355 2.3721 0.7047
v  1.0051 3.8281 -0.7298
v  -2.1721 3.8438 0.6733
v  0.1107 4.8506 -0.6838
v  -1.6392 -0.7274 -0.7277
v  1.9275 -0.7466 0.6633
v  0.1898 -1.2503 0.6792
v  2.7835 2.4355 -0.0191
v  2.7871 0.0958 -0.0190
v  -2.8106 2.4333 -0.0193
v  -2.8140 0.0992 -0.0192
v  1.1009 4.0006 -0.0192
v  -2.3062 4.0054 -0.0190
v  0.1369 5.0815 -0.0189
v  -1.3419 5.0840 -0.0188
v  -1.7426 -0.8982 -0.0192
v  2.0790 -0.9049 -0.0190
v  -1.2561 -1.4503 -0.0190
v  0.2221 -1.4485 -0.0191
# 60 vertices

vn -0.5562 -0.2202 0.8014
vn 0.5334 -0.1515 0.8322
vn 0.5353 0.2332 0.8118
vn -0.5610 0.0795 0.8240
vn 0.8770 -0.2671 0.3993
vn 0.8534 0.3580 0.3789
vn 0.5290 -0.1500 -0.8353
vn -0.5523 -0.2184 -0.8045
vn -0.5570 0.0789 -0.8267
vn 0.5311 0.2316 -0.8151
vn -0.8586 -0.3599 -0.3650
vn -0.9291 0.1406 -0.3420
vn 0.3747 0.3527 0.8574
vn -0.4951 0.2552 0.8305
vn 0.6864 0.6378 0.3493
vn -0.4914 0.2529 -0.8334
vn 0.3717 0.3499 -0.8599
vn -0.8100 0.4462 -0.3805
vn 0.2699 0.5046 0.8201
vn -0.2454 0.4951 0.8335
vn 0.3844 0.8256 0.4130
vn -0.2434 0.4903 -0.8369
vn 0.2683 0.5001 -0.8234
vn -0.3764 0.8117 -0.4466
vn -0.8618 -0.3614 0.3560
vn -0.6866 -0.6338 0.3562
vn -0.3720 -0.3480 0.8605
vn 0.3237 -0.4461 -0.8344
vn -0.3690 -0.3452 -0.8629
vn 0.8731 -0.2657 -0.4088
vn 0.5431 -0.7288 -0.4171
vn 0.3266 -0.4499 0.8312
vn -0.3897 -0.8356 0.3871
vn -0.2579 -0.5246 0.8114
vn 0.0797 -0.5234 -0.8484
vn -0.2561 -0.5203 -0.8147
vn 0.1379 -0.9074 -0.3971
vn 0.0804 -0.5279 0.8455
vn -0.3882 -0.8319 -0.3964
vn -0.3780 0.8162 0.4371
vn 0.8498 0.3566 -0.3881
vn -0.9322 0.1411 0.3333
vn 0.6840 0.6354 -0.3582
vn -0.8131 0.4481 0.3715
vn 0.3831 0.8214 -0.4225
vn -0.6841 -0.6314 -0.3653
vn 0.5457 -0.7322 0.4076
vn 0.1385 -0.9113 0.3877
vn 0.9242 0.3819 -0.0049
vn 0.9544 -0.2985 -0.0050
vn -0.9884 0.1520 -0.0046
vn -0.9192 -0.3937 -0.0046
vn 0.7350 0.6781 -0.0046
vn -0.8714 0.4905 -0.0049
vn 0.3992 0.9168 -0.0049
vn -0.4089 0.9126 -0.0052
vn -0.7371 -0.6758 -0.0047
vn 0.6018 -0.7986 -0.0050
vn -0.4148 -0.9099 -0.0048
vn 0.1500 -0.9887 -0.0050
# 60 vertex normals

vt 0.8824 0.0058 0.0000
vt 0.8808 0.3428 0.0000
vt 0.7322 0.3421 0.0000
vt 0.7338 0.0051 0.0000
vt 0.8752 0.4559 0.0000
vt 0.6914 0.4619 0.0000
vt 0.7037 0.3588 0.0000
vt 0.8558 0.3542 0.0000
vt 0.3176 0.6488 0.0000
vt 0.3162 0.9858 0.0000
vt 0.1676 0.9852 0.0000
vt 0.1690 0.6482 0.0000
vt 0.4390 0.0944 0.0000
vt 0.2527 0.1035 0.0000
vt 0.2566 0.0120 0.0000
vt 0.4086 0.0005 0.0000
vt 0.6330 0.2405 0.0000
vt 0.6340 0.0354 0.0000
vt 0.3773 0.4251 0.0000
vt 0.1980 0.4240 0.0000
vt 0.2112 0.3268 0.0000
vt 0.3532 0.3266 0.0000
vt 0.0680 0.9540 0.0000
vt 0.0689 0.7489 0.0000
vt 0.1265 0.1107 0.0000
vt 0.1486 0.0132 0.0000
vt 0.5655 0.1820 0.0000
vt 0.5659 0.0933 0.0000
vt 0.5187 0.4280 0.0000
vt 0.4043 0.4320 0.0000
vt 0.4465 0.3312 0.0000
vt 0.5359 0.3314 0.0000
vt 0.0005 0.8955 0.0000
vt 0.0009 0.8068 0.0000
vt 0.0117 0.1107 0.0000
vt 0.0550 0.0046 0.0000
vt 0.8358 0.9013 0.0000
vt 0.9499 0.9017 0.0000
vt 0.9378 0.9995 0.0000
vt 0.8473 0.9992 0.0000
vt 0.3808 0.6917 0.0000
vt 0.3799 0.9216 0.0000
vt 0.8826 0.5701 0.0000
vt 0.9797 0.5718 0.0000
vt 0.9573 0.6785 0.0000
vt 0.8767 0.6705 0.0000
vt 0.9455 0.0707 0.0000
vt 0.9444 0.3005 0.0000
vt 0.4488 0.2208 0.0000
vt 0.5067 0.2191 0.0000
vt 0.4783 0.3181 0.0000
vt 0.4328 0.3180 0.0000
vt 0.4152 0.8034 0.0000
vt 0.4148 0.8923 0.0000
vt 0.6816 0.7485 0.0000
vt 0.5350 0.7548 0.0000
vt 0.5325 0.6573 0.0000
vt 0.6511 0.6482 0.0000
vt 0.9802 0.1002 0.0000
vt 0.9797 0.1892 0.0000
vt 0.4233 0.7548 0.0000
vt 0.4418 0.6540 0.0000
vt 0.1189 0.4542 0.0000
vt 0.0060 0.4548 0.0000
vt 0.0238 0.3450 0.0000
vt 0.1125 0.3451 0.0000
vt 0.7254 0.6861 0.0000
vt 0.7001 0.5886 0.0000
vt 0.4192 0.3223 0.0000
vt 0.2666 0.3209 0.0000
vt 0.2567 0.2268 0.0000
vt 0.4437 0.2234 0.0000
vt 0.3534 0.6445 0.0000
vt 0.2114 0.6445 0.0000
vt 0.1983 0.5504 0.0000
vt 0.3771 0.5490 0.0000
vt 0.1588 0.3267 0.0000
vt 0.1300 0.2278 0.0000
vt 0.5360 0.6476 0.0000
vt 0.4467 0.6479 0.0000
vt 0.4048 0.5501 0.0000
vt 0.5190 0.5542 0.0000
vt 0.0659 0.3413 0.0000
vt 0.0152 0.2351 0.0000
vt 0.8484 0.6803 0.0000
vt 0.9389 0.6807 0.0000
vt 0.9502 0.7755 0.0000
vt 0.8364 0.7751 0.0000
vt 0.9347 0.3358 0.0000
vt 0.9715 0.4417 0.0000
vt 0.4323 0.0007 0.0000
vt 0.4778 0.0005 0.0000
vt 0.5062 0.0964 0.0000
vt 0.4484 0.0948 0.0000
vt 0.6603 0.9781 0.0000
vt 0.5414 0.9756 0.0000
vt 0.5383 0.8752 0.0000
vt 0.6854 0.8732 0.0000
vt 0.4510 0.9839 0.0000
vt 0.4265 0.8813 0.0000
vt 0.1125 0.6815 0.0000
vt 0.0238 0.6816 0.0000
vt 0.0062 0.5746 0.0000
vt 0.1189 0.5753 0.0000
vt 0.6895 0.5257 0.0000
vt 0.8832 0.5127 0.0000
vt 0.2523 0.1652 0.0000
vt 0.4506 0.1586 0.0000
vt 0.1934 0.4872 0.0000
vt 0.3856 0.4871 0.0000
vt 0.1203 0.1695 0.0000
vt 0.3909 0.4911 0.0000
vt 0.5127 0.4911 0.0000
vt 0.0005 0.1733 0.0000
vt 0.9543 0.8386 0.0000
vt 0.8319 0.8382 0.0000
vt 0.9829 0.5063 0.0000
vt 0.5162 0.1577 0.0000
vt 0.4544 0.1578 0.0000
vt 0.5366 0.8150 0.0000
vt 0.6921 0.8106 0.0000
vt 0.4185 0.8182 0.0000
vt 0.0005 0.5147 0.0000
vt 0.1210 0.5147 0.0000
# 124 texture coords

o Box001
g Box001
usemtl wire_006135113
s 4
f 1/1/1 2/2/2 3/3/3 
f 3/3/3 4/4/4 1/1/1 
f 5/5/5 6/6/6 3/7/3 
f 3/7/3 2/8/2 5/5/5 
f 7/9/7 8/10/8 9/11/9 
f 9/11/9 10/12/10 7/9/7 
f 11/13/11 12/14/12 9/15/9 
f 9/15/9 8/16/8 11/13/11 
f 4/4/4 3/3/3 13/17/13 
f 13/17/13 14/18/14 4/4/4 
f 6/19/6 15/20/15 13/21/13 
f 13/21/13 3/22/3 6/19/6 
f 10/12/10 9/11/9 16/23/16 
f 16/23/16 17/24/17 10/12/10 
f 12/14/12 18/25/18 16/26/16 
f 16/26/16 9/15/9 12/14/12 
f 14/18/14 13/17/13 19/27/19 
f 19/27/19 20/28/20 14/18/14 
f 15/29/15 21/30/21 19/31/19 
f 19/31/19 13/32/13 15/29/15 
f 17/24/17 16/23/16 22/33/22 
f 22/33/22 23/34/23 17/24/17 
f 18/25/18 24/35/24 22/36/22 
f 22/36/22 16/26/16 18/25/18 
f 25/37/25 26/38/26 27/39/27 
f 27/39/27 1/40/1 25/37/25 
f 8/10/8 7/9/7 28/41/28 
f 28/41/28 29/42/29 8/10/8 
f 30/43/30 31/44/31 28/45/28 
f 28/45/28 7/46/7 30/43/30 
f 2/2/2 1/1/1 27/47/27 
f 27/47/27 32/48/32 2/2/2 
f 26/49/26 33/50/33 34/51/34 
f 34/51/34 27/52/27 26/49/26 
f 29/42/29 28/41/28 35/53/35 
f 35/53/35 36/54/36 29/42/29 
f 31/55/31 37/56/37 35/57/35 
f 35/57/35 28/58/28 31/55/31 
f 32/48/32 27/47/27 34/59/34 
f 34/59/34 38/60/38 32/48/32 
f 35/57/35 37/56/37 39/61/39 
f 39/61/39 36/62/36 35/57/35 
f 21/63/21 40/64/40 20/65/20 
f 20/65/20 19/66/19 21/63/21 
f 7/46/7 10/67/10 41/68/41 
f 41/68/41 30/43/30 7/46/7 
f 1/69/1 4/70/4 42/71/42 
f 42/71/42 25/72/25 1/69/1 
f 10/73/10 17/74/17 43/75/43 
f 43/75/43 41/76/41 10/73/10 
f 4/70/4 14/77/14 44/78/44 
f 44/78/44 42/71/42 4/70/4 
f 17/79/17 23/80/23 45/81/45 
f 45/81/45 43/82/43 17/79/17 
f 14/77/14 20/83/20 40/84/40 
f 40/84/40 44/78/44 14/77/14 
f 8/85/8 29/86/29 46/87/46 
f 46/87/46 11/88/11 8/85/8 
f 2/8/2 32/89/32 47/90/47 
f 47/90/47 5/5/5 2/8/2 
f 29/91/29 36/92/36 39/93/39 
f 39/93/39 46/94/46 29/91/29 
f 32/95/32 38/96/38 48/97/48 
f 48/97/48 47/98/47 32/95/32 
f 38/96/38 34/99/34 33/100/33 
f 33/100/33 48/97/48 38/96/38 
f 23/101/23 22/102/22 24/103/24 
f 24/103/24 45/104/45 23/101/23 
f 49/105/49 6/6/6 5/5/5 
f 5/5/5 50/106/50 49/105/49 
f 51/107/51 12/14/12 11/13/11 
f 11/13/11 52/108/52 51/107/51 
f 53/109/53 15/20/15 6/19/6 
f 6/19/6 49/110/49 53/109/53 
f 54/111/54 18/25/18 12/14/12 
f 12/14/12 51/107/51 54/111/54 
f 55/112/55 21/30/21 15/29/15 
f 15/29/15 53/113/53 55/112/55 
f 56/114/56 24/35/24 18/25/18 
f 18/25/18 54/111/54 56/114/56 
f 57/115/57 26/38/26 25/37/25 
f 25/37/25 52/116/52 57/115/57 
f 58/117/58 31/44/31 30/43/30 
f 30/43/30 50/106/50 58/117/58 
f 59/118/59 33/50/33 26/49/26 
f 26/49/26 57/119/57 59/118/59 
f 60/120/60 37/56/37 31/55/31 
f 31/55/31 58/121/58 60/120/60 
f 59/122/59 39/61/39 37/56/37 
f 37/56/37 60/120/60 59/122/59 
f 56/123/56 40/64/40 21/63/21 
f 21/63/21 55/124/55 56/123/56 
f 41/68/41 49/105/49 50/106/50 
f 50/106/50 30/43/30 41/68/41 
f 42/71/42 51/107/51 52/108/52 
f 52/108/52 25/72/25 42/71/42 
f 43/75/43 53/109/53 49/110/49 
f 49/110/49 41/76/41 43/75/43 
f 44/78/44 54/111/54 51/107/51 
f 51/107/51 42/71/42 44/78/44 
f 45/81/45 55/112/55 53/113/53 
f 53/113/53 43/82/43 45/81/45 
f 40/84/40 56/114/56 54/111/54 
f 54/111/54 44/78/44 40/84/40 
f 46/87/46 57/115/57 52/116/52 
f 52/116/52 11/88/11 46/87/46 
f 47/90/47 58/117/58 50/106/50 
f 50/106/50 5/5/5 47/90/47 
f 39/93/39 59/118/59 57/119/57 
f 57/119/57 46/94/46 39/93/39 
f 48/97/48 60/120/60 58/121/58 
f 58/121/58 47/98/47 48/97/48 
f 33/100/33 59/122/59 60/120/60 
f 60/120/60 48/97/48 33/100/33 
f 24/103/24 56/123/56 55/124/55 
f 55/124/55 45/104/45 24/103/24 
# 116 faces

