# 3ds Max Wavefront OBJ Exporter v0.97b - (c)2007 guruware
# File Created: 24.05.2018 09:23:13

mtllib Stokkie.mtl

#
# object Stokkie
#

v  -0.1408 -46.4253 -0.1047
v  2.0510 -46.4253 -2.2965
v  2.9589 -46.4253 -0.1047
v  -0.1408 -46.4253 -3.2044
v  -2.3326 -46.4253 -2.2965
v  -3.2405 -46.4253 -0.1047
v  -2.3326 -46.4253 2.0871
v  -0.1408 -46.4253 2.9950
v  2.0510 -46.4253 2.0871
v  4.2428 -46.4253 -4.4883
v  6.0586 -46.4253 -0.1047
v  -0.1408 -46.4253 -6.3041
v  -4.5245 -46.4253 -4.4883
v  -6.3402 -46.4253 -0.1047
v  -4.5245 -46.4253 4.2789
v  -0.1408 -46.4252 6.0947
v  4.2428 -46.4253 4.2789
v  4.4124 -27.9850 -4.6580
v  6.2985 -27.9850 -0.1047
v  -0.1408 -27.9850 -6.5440
v  -4.6941 -27.9850 -4.6580
v  -6.5801 -27.9850 -0.1047
v  -4.6941 -27.9850 4.4485
v  -0.1408 -27.9850 6.3346
v  4.4124 -27.9850 4.4485
v  3.6695 -9.5447 -4.6580
v  5.4824 -9.5447 -0.1047
v  -0.7072 -9.5447 -6.5440
v  -5.0839 -9.5447 -4.6580
v  -6.8968 -9.5447 -0.1047
v  -5.0839 -9.5447 4.4485
v  -0.7072 -9.5447 6.3346
v  3.6695 -9.5447 4.4485
v  6.3277 11.5729 -3.6872
v  8.2912 11.5729 0.7593
v  1.5874 11.5729 -5.5290
v  -3.1530 11.5729 -3.6872
v  -5.1165 11.5729 0.7593
v  -3.1530 11.5729 5.2057
v  1.5874 11.5729 7.0475
v  6.3277 11.5729 5.2057
v  4.4124 27.3359 -4.6580
v  6.2985 27.3359 -0.1047
v  -0.1408 27.3359 -6.5440
v  -4.6941 27.3359 -4.6580
v  -6.5801 27.3359 -0.1047
v  -4.6941 27.3359 4.4485
v  -0.1408 27.3359 6.3346
v  4.4124 27.3359 4.4485
v  4.2840 45.7762 -4.5296
v  6.1168 45.7762 -0.1047
v  -0.1408 45.7762 -6.3624
v  -4.5657 45.7762 -4.5296
v  -6.3985 45.7762 -0.1047
v  -4.5657 45.7762 4.3201
v  -0.1408 45.7762 6.1529
v  4.2840 45.7762 4.3201
v  2.0716 45.7762 -2.3171
v  2.9880 45.7762 -0.1047
v  -0.1408 45.7762 -3.2336
v  -2.3532 45.7762 -2.3171
v  -3.2697 45.7762 -0.1047
v  -2.3532 45.7762 2.1077
v  -0.1408 45.7762 3.0241
v  2.0716 45.7762 2.1077
v  -0.1408 45.7762 -0.1047
# 66 vertices

vn 0.0000 -1.0000 -0.0000
vn 0.0000 -1.0000 0.0000
vn -0.0000 -1.0000 0.0000
vn 0.9993 -0.0380 0.0000
vn 0.7066 -0.0380 -0.7066
vn 0.7147 0.0215 -0.6991
vn 0.9991 0.0428 0.0014
vn -0.0000 -0.0380 -0.9993
vn 0.0095 -0.0164 -0.9998
vn -0.7066 -0.0380 -0.7066
vn -0.7037 -0.0390 -0.7094
vn -0.9993 -0.0380 0.0000
vn -0.9989 -0.0458 -0.0015
vn -0.7066 -0.0380 0.7066
vn -0.7037 -0.0424 0.7092
vn 0.0000 -0.0380 0.9993
vn 0.0125 -0.0160 0.9998
vn 0.7066 -0.0380 0.7066
vn 0.7147 0.0248 0.6990
vn 0.6746 -0.0202 -0.7379
vn 0.9922 -0.1233 -0.0173
vn -0.0450 0.0739 -0.9963
vn -0.7197 0.1071 -0.6860
vn -0.9954 0.0952 -0.0107
vn -0.7367 0.0477 0.6746
vn -0.0527 -0.0384 0.9979
vn 0.6838 -0.1281 0.7184
vn 0.7505 -0.0250 -0.6603
vn 0.9996 -0.0049 0.0287
vn 0.0754 -0.0285 -0.9967
vn -0.6785 -0.0153 -0.7345
vn -0.9992 -0.0114 0.0385
vn -0.6438 0.0018 0.7652
vn 0.0678 0.0176 0.9975
vn 0.7201 0.0116 0.6937
vn 0.6709 0.0608 -0.7390
vn 0.9812 0.1924 -0.0180
vn -0.0355 -0.0849 -0.9958
vn -0.7037 -0.1411 -0.6964
vn -0.9927 -0.1193 -0.0185
vn -0.7280 -0.0418 0.6843
vn -0.0365 0.0729 0.9967
vn 0.6790 0.1822 0.7112
vn 0.7068 0.0288 -0.7068
vn 0.9996 0.0288 0.0000
vn -0.0000 0.0288 -0.9996
vn -0.7068 0.0288 -0.7068
vn -0.9996 0.0288 0.0000
vn -0.7068 0.0288 0.7068
vn 0.0000 0.0288 0.9996
vn 0.7068 0.0288 0.7068
vn -0.0000 1.0000 0.0000
vn 0.0000 1.0000 -0.0000
vn 0.0000 1.0000 0.0000
# 54 vertex normals

vt 0.5839 0.7326 0.0000
vt 0.6576 0.7036 0.0000
vt 0.6580 0.7608 0.0000
vt 0.6141 0.6635 0.0000
vt 0.5528 0.6638 0.0000
vt 0.5097 0.7044 0.0000
vt 0.5101 0.7615 0.0000
vt 0.5536 0.8017 0.0000
vt 0.6149 0.8014 0.0000
vt 0.7314 0.6747 0.0000
vt 0.7321 0.7890 0.0000
vt 0.6443 0.5943 0.0000
vt 0.5218 0.5950 0.0000
vt 0.4356 0.6762 0.0000
vt 0.4363 0.7905 0.0000
vt 0.5234 0.8709 0.0000
vt 0.6459 0.8702 0.0000
vt 0.9355 0.0665 0.0000
vt 0.9385 0.1279 0.0000
vt 0.7583 0.1304 0.0000
vt 0.7582 0.0679 0.0000
vt 0.9744 0.4402 0.0000
vt 0.9754 0.5011 0.0000
vt 0.7959 0.5025 0.0000
vt 0.7945 0.4396 0.0000
vt 0.9793 0.5625 0.0000
vt 0.7985 0.5659 0.0000
vt 0.9268 0.1414 0.0000
vt 0.9223 0.2019 0.0000
vt 0.7441 0.2004 0.0000
vt 0.7483 0.1375 0.0000
vt 0.9214 0.2624 0.0000
vt 0.7429 0.2630 0.0000
vt 0.9178 0.2814 0.0000
vt 0.9142 0.3425 0.0000
vt 0.7338 0.3414 0.0000
vt 0.7374 0.2780 0.0000
vt 0.9141 0.4040 0.0000
vt 0.7330 0.4050 0.0000
vt 0.9343 0.0060 0.0000
vt 0.7557 0.0055 0.0000
vt 0.5765 0.1346 0.0000
vt 0.5704 0.0686 0.0000
vt 0.6193 0.5103 0.0000
vt 0.6153 0.4499 0.0000
vt 0.6181 0.5711 0.0000
vt 0.5689 0.1992 0.0000
vt 0.5688 0.1371 0.0000
vt 0.5649 0.2602 0.0000
vt 0.5522 0.3331 0.0000
vt 0.5573 0.2712 0.0000
vt 0.5514 0.3954 0.0000
vt 0.5739 0.0030 0.0000
vt 0.3538 0.1176 0.0000
vt 0.3534 0.0593 0.0000
vt 0.4049 0.4832 0.0000
vt 0.4052 0.4156 0.0000
vt 0.4058 0.5510 0.0000
vt 0.3502 0.2091 0.0000
vt 0.3488 0.1428 0.0000
vt 0.3523 0.2751 0.0000
vt 0.3442 0.3578 0.0000
vt 0.3484 0.2938 0.0000
vt 0.3386 0.4221 0.0000
vt 0.3525 0.0005 0.0000
vt 0.1900 0.1347 0.0000
vt 0.1956 0.0692 0.0000
vt 0.2445 0.5035 0.0000
vt 0.2495 0.4414 0.0000
vt 0.2450 0.5662 0.0000
vt 0.1846 0.2011 0.0000
vt 0.1825 0.1383 0.0000
vt 0.1942 0.2626 0.0000
vt 0.1919 0.3343 0.0000
vt 0.1956 0.2703 0.0000
vt 0.1815 0.3984 0.0000
vt 0.1893 0.0045 0.0000
vt 0.0064 0.1312 0.0000
vt 0.0107 0.0683 0.0000
vt 0.0674 0.5030 0.0000
vt 0.0687 0.4408 0.0000
vt 0.0658 0.5643 0.0000
vt 0.0080 0.2056 0.0000
vt 0.0005 0.1428 0.0000
vt 0.0161 0.2665 0.0000
vt 0.0100 0.3298 0.0000
vt 0.0153 0.2683 0.0000
vt 0.0005 0.3918 0.0000
vt 0.0090 0.0072 0.0000
vt 0.3618 0.7864 0.0000
vt 0.2742 0.8645 0.0000
vt 0.2428 0.7982 0.0000
vt 0.2866 0.7592 0.0000
vt 0.1498 0.8650 0.0000
vt 0.1806 0.7985 0.0000
vt 0.0614 0.7875 0.0000
vt 0.1364 0.7597 0.0000
vt 0.0609 0.6775 0.0000
vt 0.1361 0.7048 0.0000
vt 0.1485 0.5995 0.0000
vt 0.1799 0.6657 0.0000
vt 0.2729 0.5990 0.0000
vt 0.2421 0.6655 0.0000
vt 0.3613 0.6765 0.0000
vt 0.2863 0.7042 0.0000
vt 0.2113 0.7320 0.0000
# 106 texture coords

o Stokkie
g Stokkie
usemtl Stokkie
s 1
f 1/1/1 2/2/2 3/3/1 
f 1/1/1 4/4/3 2/2/2 
f 1/1/1 5/5/1 4/4/3 
f 1/1/1 6/6/1 5/5/1 
f 1/1/1 7/7/2 6/6/1 
f 1/1/1 8/8/3 7/7/2 
f 1/1/1 9/9/1 8/8/3 
f 1/1/1 3/3/1 9/9/1 
f 3/3/1 2/2/2 10/10/2 
f 10/10/2 11/11/1 3/3/1 
f 2/2/2 4/4/3 12/12/3 
f 12/12/3 10/10/2 2/2/2 
f 4/4/3 5/5/1 13/13/3 
f 13/13/3 12/12/3 4/4/3 
f 5/5/1 6/6/1 14/14/1 
f 14/14/1 13/13/3 5/5/1 
f 6/6/1 7/7/2 15/15/2 
f 15/15/2 14/14/1 6/6/1 
f 7/7/2 8/8/3 16/16/3 
f 16/16/3 15/15/2 7/7/2 
f 8/8/3 9/9/1 17/17/3 
f 17/17/3 16/16/3 8/8/3 
f 9/9/1 3/3/1 11/11/1 
f 11/11/1 17/17/3 9/9/1 
s 8
f 11/18/4 10/19/5 18/20/6 
f 18/20/6 19/21/7 11/18/4 
f 10/22/5 12/23/8 20/24/9 
f 20/24/9 18/25/6 10/22/5 
f 12/23/8 13/26/10 21/27/11 
f 21/27/11 20/24/9 12/23/8 
f 13/28/10 14/29/12 22/30/13 
f 22/30/13 21/31/11 13/28/10 
f 14/29/12 15/32/14 23/33/15 
f 23/33/15 22/30/13 14/29/12 
f 15/34/14 16/35/16 24/36/17 
f 24/36/17 23/37/15 15/34/14 
f 16/35/16 17/38/18 25/39/19 
f 25/39/19 24/36/17 16/35/16 
f 17/40/18 11/18/4 19/21/7 
f 19/21/7 25/41/19 17/40/18 
f 19/21/7 18/20/6 26/42/20 
f 26/42/20 27/43/21 19/21/7 
f 18/25/6 20/24/9 28/44/22 
f 28/44/22 26/45/20 18/25/6 
f 20/24/9 21/27/11 29/46/23 
f 29/46/23 28/44/22 20/24/9 
f 21/31/11 22/30/13 30/47/24 
f 30/47/24 29/48/23 21/31/11 
f 22/30/13 23/33/15 31/49/25 
f 31/49/25 30/47/24 22/30/13 
f 23/37/15 24/36/17 32/50/26 
f 32/50/26 31/51/25 23/37/15 
f 24/36/17 25/39/19 33/52/27 
f 33/52/27 32/50/26 24/36/17 
f 25/41/19 19/21/7 27/43/21 
f 27/43/21 33/53/27 25/41/19 
f 27/43/21 26/42/20 34/54/28 
f 34/54/28 35/55/29 27/43/21 
f 26/45/20 28/44/22 36/56/30 
f 36/56/30 34/57/28 26/45/20 
f 28/44/22 29/46/23 37/58/31 
f 37/58/31 36/56/30 28/44/22 
f 29/48/23 30/47/24 38/59/32 
f 38/59/32 37/60/31 29/48/23 
f 30/47/24 31/49/25 39/61/33 
f 39/61/33 38/59/32 30/47/24 
f 31/51/25 32/50/26 40/62/34 
f 40/62/34 39/63/33 31/51/25 
f 32/50/26 33/52/27 41/64/35 
f 41/64/35 40/62/34 32/50/26 
f 33/53/27 27/43/21 35/55/29 
f 35/55/29 41/65/35 33/53/27 
f 35/55/29 34/54/28 42/66/36 
f 42/66/36 43/67/37 35/55/29 
f 34/57/28 36/56/30 44/68/38 
f 44/68/38 42/69/36 34/57/28 
f 36/56/30 37/58/31 45/70/39 
f 45/70/39 44/68/38 36/56/30 
f 37/60/31 38/59/32 46/71/40 
f 46/71/40 45/72/39 37/60/31 
f 38/59/32 39/61/33 47/73/41 
f 47/73/41 46/71/40 38/59/32 
f 39/63/33 40/62/34 48/74/42 
f 48/74/42 47/75/41 39/63/33 
f 40/62/34 41/64/35 49/76/43 
f 49/76/43 48/74/42 40/62/34 
f 41/65/35 35/55/29 43/67/37 
f 43/67/37 49/77/43 41/65/35 
f 43/67/37 42/66/36 50/78/44 
f 50/78/44 51/79/45 43/67/37 
f 42/69/36 44/68/38 52/80/46 
f 52/80/46 50/81/44 42/69/36 
f 44/68/38 45/70/39 53/82/47 
f 53/82/47 52/80/46 44/68/38 
f 45/72/39 46/71/40 54/83/48 
f 54/83/48 53/84/47 45/72/39 
f 46/71/40 47/73/41 55/85/49 
f 55/85/49 54/83/48 46/71/40 
f 47/75/41 48/74/42 56/86/50 
f 56/86/50 55/87/49 47/75/41 
f 48/74/42 49/76/43 57/88/51 
f 57/88/51 56/86/50 48/74/42 
f 49/77/43 43/67/37 51/79/45 
f 51/79/45 57/89/51 49/77/43 
s 1
f 51/90/52 50/91/52 58/92/52 
f 58/92/52 59/93/53 51/90/52 
f 50/91/52 52/94/54 60/95/54 
f 60/95/54 58/92/52 50/91/52 
f 52/94/54 53/96/54 61/97/54 
f 61/97/54 60/95/54 52/94/54 
f 53/96/54 54/98/54 62/99/54 
f 62/99/54 61/97/54 53/96/54 
f 54/98/54 55/100/53 63/101/53 
f 63/101/53 62/99/54 54/98/54 
f 55/100/53 56/102/53 64/103/53 
f 64/103/53 63/101/53 55/100/53 
f 56/102/53 57/104/53 65/105/53 
f 65/105/53 64/103/53 56/102/53 
f 57/104/53 51/90/52 59/93/53 
f 59/93/53 65/105/53 57/104/53 
f 66/106/53 59/93/53 58/92/52 
f 66/106/53 58/92/52 60/95/54 
f 66/106/53 60/95/54 61/97/54 
f 66/106/53 61/97/54 62/99/54 
f 66/106/53 62/99/54 63/101/53 
f 66/106/53 63/101/53 64/103/53 
f 66/106/53 64/103/53 65/105/53 
f 66/106/53 65/105/53 59/93/53 
# 128 faces

