# 3ds Max Wavefront OBJ Exporter v0.97b - (c)2007 guruware
# File Created: 17.05.2018 12:48:00

mtllib Stone04.mtl

#
# object rockLP001
#

v  -0.8728 -0.0816 0.8561
v  -0.9873 -0.2155 0.6277
v  -0.6540 -0.1686 0.6363
v  -0.5702 -0.0534 0.8812
v  -0.2630 -0.1967 0.7176
v  -0.2244 -0.0749 0.9838
v  0.2346 -0.1835 0.7091
v  0.1767 -0.0122 0.9521
v  0.6785 -0.1651 0.6505
v  0.5486 -0.0546 0.9246
v  0.9824 -0.1106 0.5530
v  0.8146 0.0014 0.8241
v  -1.0733 -0.2614 0.2476
v  -0.6972 -0.1618 0.2041
v  -0.2533 -0.1248 0.2341
v  0.3214 -0.2993 0.2609
v  0.7133 -0.2112 0.2163
v  1.0089 -0.1718 0.1833
v  -0.9886 -0.1434 -0.1824
v  -0.7067 -0.2189 -0.2458
v  -0.2538 -0.2558 -0.3013
v  0.3287 -0.2993 -0.3428
v  0.7928 -0.2993 -0.2654
v  1.1273 -0.2993 -0.2514
v  -0.9149 -0.1341 -0.5429
v  -0.6324 -0.2048 -0.6627
v  -0.2510 -0.2993 -0.7665
v  0.2804 -0.2993 -0.8789
v  0.7823 -0.2993 -0.7950
v  1.1365 -0.2993 -0.7093
v  -0.7966 -0.0469 -0.7679
v  -0.5286 -0.1427 -0.9114
v  -0.2044 -0.2541 -1.0100
v  0.2462 -0.2993 -1.1654
v  0.6456 -0.2993 -1.0847
v  0.8943 -0.2044 -0.9086
v  -0.8554 1.2174 0.8373
v  -0.5982 1.3305 0.9066
v  -0.6705 1.4997 0.6524
v  -0.9662 1.3287 0.6041
v  -0.2667 1.4659 1.0713
v  -0.2953 1.7300 0.8085
v  0.1288 1.5187 1.0699
v  0.1833 1.7104 0.7792
v  0.4908 1.4394 0.9900
v  0.5350 1.5400 0.6567
v  0.7059 1.3004 0.8494
v  0.8084 1.3746 0.5842
v  -0.8678 1.7306 0.3083
v  -1.1759 1.4452 0.2724
v  -0.4115 2.0844 0.3972
v  0.1839 1.9315 0.3570
v  0.5770 1.6512 0.2682
v  0.9013 1.4631 0.2622
v  -0.8950 1.7366 -0.2137
v  -1.1940 1.4684 -0.1577
v  -0.4054 2.0315 -0.2273
v  0.1621 1.8327 -0.1811
v  0.5910 1.6319 -0.1898
v  0.9543 1.4820 -0.1320
v  -0.8051 1.5966 -0.6897
v  -1.1203 1.4279 -0.5811
v  -0.3512 1.7352 -0.7344
v  0.1747 1.6405 -0.6462
v  0.5771 1.5225 -0.5944
v  0.8627 1.3901 -0.5051
v  -0.6872 1.3414 -0.9447
v  -0.9738 1.2453 -0.8280
v  -0.2981 1.4348 -0.9933
v  0.1127 1.3749 -0.8961
v  0.4623 1.3238 -0.8081
v  0.6901 1.2185 -0.7090
v  -0.7099 0.0107 1.1415
v  -0.9882 0.0984 0.9714
v  -0.2641 0.0966 1.1829
v  0.2099 0.1231 1.1932
v  0.5944 0.1457 1.0752
v  0.8948 0.1701 0.9549
v  -0.7710 0.3107 1.2668
v  -1.0926 0.3514 1.0764
v  -0.2913 0.3973 1.3409
v  0.2263 0.4297 1.3688
v  0.6895 0.4163 1.2296
v  0.9852 0.4285 0.9987
v  -0.7418 0.7133 1.2035
v  -1.1598 0.6809 1.1448
v  -0.2932 0.7955 1.3279
v  0.2397 0.8328 1.5237
v  0.7222 0.7932 1.3084
v  0.9307 0.7552 1.0020
v  -0.6944 1.0552 1.0996
v  -1.0038 0.9840 0.9869
v  -0.2877 1.1872 1.2449
v  0.1796 1.2221 1.2406
v  0.5931 1.1530 1.1604
v  0.8059 1.0690 0.9483
v  1.1795 -0.0055 0.6903
v  1.3782 -0.1287 0.2584
v  1.5133 -0.2823 -0.3276
v  1.1725 -0.0634 -0.7454
v  0.8997 0.0874 -0.9159
v  1.1481 0.4015 0.7040
v  1.4066 0.3064 0.3046
v  1.6017 0.1892 -0.3452
v  1.1834 0.3264 -0.7458
v  0.9034 0.3784 -0.9210
v  1.0851 0.7994 0.7183
v  1.2744 0.7996 0.3105
v  1.5481 0.7607 -0.2726
v  1.1720 0.7323 -0.6985
v  0.8885 0.6751 -0.9065
v  0.9323 1.1369 0.6734
v  1.0920 1.1871 0.3129
v  1.2480 1.2426 -0.2046
v  0.9794 1.1080 -0.5640
v  0.7967 0.9552 -0.8156
v  0.6789 -0.0311 -1.0936
v  0.2570 -0.1495 -1.2426
v  -0.2301 -0.1011 -1.2370
v  -0.6183 0.0240 -1.0239
v  -0.9206 0.0837 -0.8663
v  0.6526 0.3419 -1.0772
v  0.2514 0.2411 -1.2619
v  -0.2930 0.2450 -1.3188
v  -0.7805 0.2612 -1.2404
v  -1.0815 0.2869 -1.0372
v  0.6318 0.7020 -1.0588
v  0.2136 0.6731 -1.2471
v  -0.3429 0.6819 -1.3577
v  -0.7631 0.6766 -1.1504
v  -1.0160 0.6319 -0.9523
v  0.5304 1.0486 -0.9487
v  0.1402 1.0884 -1.1453
v  -0.3605 1.1425 -1.3060
v  -0.8057 1.0698 -1.0957
v  -1.0483 0.9508 -0.8996
v  -1.1055 0.0076 -0.6283
v  -1.1749 -0.0040 -0.2218
v  -1.2895 -0.0875 0.2807
v  -1.1429 0.0242 0.6861
v  -1.2697 0.2726 -0.7171
v  -1.4648 0.2420 -0.2536
v  -1.4858 0.2592 0.3096
v  -1.3609 0.2956 0.8076
v  -1.3615 0.6562 -0.7577
v  -1.6197 0.6779 -0.2768
v  -1.6442 0.6925 0.3296
v  -1.4048 0.7237 0.8376
v  -1.3366 1.0817 -0.7189
v  -1.5726 1.1946 -0.2247
v  -1.3436 1.1378 0.2938
v  -1.1494 1.0751 0.6916
# 152 vertices

vn -0.2165 -0.8312 0.5121
vn -0.3205 -0.8908 0.3220
vn 0.0347 -0.9816 0.1879
vn -0.0274 -0.9139 0.4050
vn -0.0957 -0.9733 0.2086
vn -0.0531 -0.8382 0.5428
vn 0.0976 -0.9074 0.4087
vn 0.1330 -0.8287 0.5437
vn 0.1640 -0.9353 0.3136
vn 0.1102 -0.7932 0.5989
vn 0.2076 -0.9231 0.3236
vn 0.3203 -0.7324 0.6009
vn -0.3086 -0.9512 0.0082
vn 0.1433 -0.9864 0.0806
vn -0.0933 -0.9952 0.0297
vn -0.0018 -0.9921 0.1251
vn 0.1617 -0.9675 0.1942
vn 0.1249 -0.9640 0.2349
vn -0.4462 -0.8676 -0.2195
vn -0.1446 -0.9894 -0.0131
vn -0.0403 -0.9891 0.1414
vn -0.0617 -0.9977 0.0283
vn 0.0204 -0.9975 0.0683
vn 0.1087 -0.9922 0.0607
vn -0.4138 -0.8755 -0.2496
vn -0.3211 -0.9203 -0.2235
vn -0.1412 -0.9876 -0.0680
vn -0.0079 -0.9999 0.0101
vn 0.1245 -0.9812 -0.1478
vn 0.6384 -0.6847 -0.3515
vn -0.4684 -0.7365 -0.4881
vn -0.4287 -0.7468 -0.5084
vn -0.3029 -0.8759 -0.3756
vn 0.0017 -0.8375 -0.5464
vn 0.3512 -0.7114 -0.6087
vn 0.5539 -0.4368 -0.7088
vn -0.4971 0.6618 0.5612
vn -0.5092 0.6188 0.5981
vn -0.5219 0.5961 0.6102
vn -0.5689 0.5995 0.5630
vn -0.2675 0.6247 0.7337
vn -0.2253 0.7171 0.6596
vn 0.1187 0.7082 0.6960
vn 0.2996 0.8060 0.5105
vn 0.4333 0.7216 0.5399
vn 0.4966 0.8020 0.3320
vn 0.7018 0.5491 0.4538
vn 0.6676 0.6380 0.3837
vn -0.6135 0.7160 0.3333
vn -0.6995 0.6140 0.3657
vn -0.2030 0.9301 0.3060
vn 0.3846 0.9063 0.1751
vn 0.5249 0.8367 0.1560
vn 0.6544 0.7192 0.2334
vn -0.5805 0.7958 -0.1726
vn -0.6337 0.7669 -0.1017
vn -0.1221 0.9552 -0.2697
vn 0.3492 0.9055 -0.2412
vn 0.4321 0.8850 -0.1734
vn 0.5588 0.8265 -0.0682
vn -0.4289 0.7238 -0.5406
vn -0.6205 0.6647 -0.4162
vn -0.0486 0.7808 -0.6228
vn 0.2836 0.7734 -0.5669
vn 0.4227 0.7298 -0.5374
vn 0.5387 0.6324 -0.5567
vn -0.3712 0.6066 -0.7030
vn -0.5852 0.4503 -0.6744
vn 0.0329 0.6883 -0.7246
vn 0.2849 0.6242 -0.7275
vn 0.3788 0.5340 -0.7559
vn 0.5166 0.4653 -0.7187
vn -0.1872 -0.7318 0.6553
vn -0.5928 -0.5484 0.5898
vn -0.0106 -0.6524 0.7578
vn 0.1464 -0.6898 0.7091
vn 0.2910 -0.5966 0.7479
vn 0.4894 -0.4174 0.7657
vn -0.3541 -0.1747 0.9188
vn -0.5253 -0.3429 0.7787
vn -0.1112 -0.2475 0.9625
vn 0.1366 -0.4084 0.9025
vn 0.4746 -0.3487 0.8082
vn 0.7408 -0.1360 0.6578
vn -0.2790 0.1861 0.9421
vn -0.5022 0.1367 0.8539
vn -0.2635 0.1789 0.9479
vn 0.0675 0.1539 0.9858
vn 0.6197 0.1105 0.7770
vn 0.8045 0.2100 0.5556
vn -0.3956 0.4836 0.7808
vn -0.4969 0.6228 0.6044
vn -0.2146 0.3820 0.8989
vn 0.0728 0.5189 0.8517
vn 0.5060 0.5386 0.6737
vn 0.7469 0.4587 0.4814
vn 0.6044 -0.5017 0.6189
vn 0.6559 -0.6529 0.3788
vn 0.6568 -0.7272 -0.1995
vn 0.6610 -0.2111 -0.7201
vn 0.5657 -0.0203 -0.8243
vn 0.8438 0.0539 0.5339
vn 0.9094 0.0583 0.4117
vn 0.9619 -0.0469 -0.2693
vn 0.6321 0.0278 -0.7744
vn 0.5285 0.0287 -0.8484
vn 0.8482 0.2773 0.4514
vn 0.8637 0.3124 0.3955
vn 0.9265 0.3393 -0.1625
vn 0.6234 0.3175 -0.7145
vn 0.5253 0.2323 -0.8185
vn 0.7598 0.4824 0.4358
vn 0.7936 0.5101 0.3316
vn 0.7712 0.6208 -0.1414
vn 0.5818 0.4622 -0.6693
vn 0.5180 0.4595 -0.7214
vn 0.4996 -0.0166 -0.8661
vn 0.1453 -0.2564 -0.9556
vn -0.2635 -0.5715 -0.7771
vn -0.4546 -0.7138 -0.5328
vn -0.4636 -0.7273 -0.5061
vn 0.4754 0.0591 -0.8778
vn 0.2614 0.0038 -0.9652
vn -0.0843 -0.1195 -0.9892
vn -0.4313 -0.2463 -0.8679
vn -0.6344 -0.3032 -0.7111
vn 0.4658 0.2268 -0.8553
vn 0.3123 0.1502 -0.9380
vn -0.1461 0.0116 -0.9892
vn -0.5031 0.0947 -0.8590
vn -0.5430 0.1796 -0.8203
vn 0.4583 0.4637 -0.7582
vn 0.3556 0.4772 -0.8036
vn -0.0806 0.4368 -0.8959
vn -0.5433 0.3044 -0.7824
vn -0.5710 0.2027 -0.7956
vn -0.5726 -0.7215 -0.3892
vn -0.6274 -0.7630 -0.1557
vn -0.7392 -0.6722 0.0420
vn -0.6383 -0.6232 0.4520
vn -0.7688 -0.4506 -0.4537
vn -0.8219 -0.5448 -0.1664
vn -0.8969 -0.4288 0.1079
vn -0.7769 -0.4006 0.4857
vn -0.7585 -0.0086 -0.6516
vn -0.9787 -0.0494 -0.1992
vn -0.9717 0.1229 0.2020
vn -0.8325 0.2646 0.4867
vn -0.6493 0.3742 -0.6620
vn -0.8872 0.4570 -0.0637
vn -0.7926 0.4690 0.3896
vn -0.6398 0.6228 0.4503
# 152 vertex normals

vt 0.9639 0.3681 0.0000
vt 0.9791 0.4122 0.0000
vt 0.9260 0.4117 0.0000
vt 0.9165 0.3648 0.0000
vt 0.8659 0.4027 0.0000
vt 0.8616 0.3514 0.0000
vt 0.7929 0.4022 0.0000
vt 0.7967 0.3483 0.0000
vt 0.7243 0.4053 0.0000
vt 0.7376 0.3568 0.0000
vt 0.6718 0.4130 0.0000
vt 0.6916 0.3656 0.0000
vt 0.9933 0.4708 0.0000
vt 0.9349 0.4775 0.0000
vt 0.8699 0.4718 0.0000
vt 0.7835 0.4733 0.0000
vt 0.7173 0.4679 0.0000
vt 0.6673 0.4687 0.0000
vt 0.9857 0.5397 0.0000
vt 0.9377 0.5455 0.0000
vt 0.8711 0.5504 0.0000
vt 0.7812 0.5589 0.0000
vt 0.7082 0.5419 0.0000
vt 0.6501 0.5385 0.0000
vt 0.9783 0.5978 0.0000
vt 0.9315 0.6116 0.0000
vt 0.8678 0.6208 0.0000
vt 0.7862 0.6346 0.0000
vt 0.7138 0.6222 0.0000
vt 0.6510 0.6136 0.0000
vt 0.9694 0.6409 0.0000
vt 0.9241 0.6569 0.0000
vt 0.8730 0.6704 0.0000
vt 0.7921 0.6874 0.0000
vt 0.7227 0.6824 0.0000
vt 0.6663 0.6739 0.0000
vt 0.0626 0.0087 0.0000
vt 0.1117 0.0053 0.0000
vt 0.1002 0.0528 0.0000
vt 0.0456 0.0531 0.0000
vt 0.1854 0.0005 0.0000
vt 0.1796 0.0558 0.0000
vt 0.2563 0.0148 0.0000
vt 0.2589 0.0686 0.0000
vt 0.3186 0.0333 0.0000
vt 0.3225 0.0916 0.0000
vt 0.3636 0.0563 0.0000
vt 0.3722 0.1043 0.0000
vt 0.0761 0.1284 0.0000
vt 0.0128 0.1224 0.0000
vt 0.1574 0.1302 0.0000
vt 0.2536 0.1402 0.0000
vt 0.3217 0.1598 0.0000
vt 0.3778 0.1652 0.0000
vt 0.0653 0.2125 0.0000
vt 0.0047 0.1997 0.0000
vt 0.1481 0.2208 0.0000
vt 0.2486 0.2295 0.0000
vt 0.3157 0.2374 0.0000
vt 0.3783 0.2366 0.0000
vt 0.0713 0.2925 0.0000
vt 0.0132 0.2750 0.0000
vt 0.1466 0.3046 0.0000
vt 0.2377 0.3068 0.0000
vt 0.3042 0.3060 0.0000
vt 0.3556 0.3021 0.0000
vt 0.0757 0.3554 0.0000
vt 0.0225 0.3355 0.0000
vt 0.1488 0.3657 0.0000
vt 0.2279 0.3644 0.0000
vt 0.2882 0.3557 0.0000
vt 0.3327 0.3549 0.0000
vt 0.3709 0.2667 0.0000
vt 0.4163 0.2537 0.0000
vt 0.4054 0.3036 0.0000
vt 0.3571 0.3129 0.0000
vt 0.4729 0.2520 0.0000
vt 0.4708 0.3027 0.0000
vt 0.5370 0.2542 0.0000
vt 0.5398 0.3049 0.0000
vt 0.5955 0.2566 0.0000
vt 0.5992 0.3059 0.0000
vt 0.6398 0.2677 0.0000
vt 0.6478 0.3125 0.0000
vt 0.3992 0.3665 0.0000
vt 0.3454 0.3743 0.0000
vt 0.4684 0.3708 0.0000
vt 0.5411 0.3727 0.0000
vt 0.6109 0.3699 0.0000
vt 0.6645 0.3682 0.0000
vt 0.4016 0.4374 0.0000
vt 0.3358 0.4420 0.0000
vt 0.4675 0.4438 0.0000
vt 0.5444 0.4517 0.0000
vt 0.6126 0.4427 0.0000
vt 0.6646 0.4345 0.0000
vt 0.4079 0.4977 0.0000
vt 0.3586 0.4946 0.0000
vt 0.4727 0.5111 0.0000
vt 0.5406 0.5153 0.0000
vt 0.6031 0.5029 0.0000
vt 0.6502 0.4952 0.0000
vt 0.4154 0.5485 0.0000
vt 0.3752 0.5376 0.0000
vt 0.4756 0.5588 0.0000
vt 0.5379 0.5649 0.0000
vt 0.5966 0.5525 0.0000
vt 0.6406 0.5367 0.0000
vt 0.3018 0.3812 0.0000
vt 0.3208 0.4322 0.0000
vt 0.2705 0.4301 0.0000
vt 0.2530 0.3697 0.0000
vt 0.3504 0.4884 0.0000
vt 0.2833 0.4962 0.0000
vt 0.3482 0.5721 0.0000
vt 0.2906 0.5803 0.0000
vt 0.3405 0.6431 0.0000
vt 0.2749 0.6577 0.0000
vt 0.3122 0.6984 0.0000
vt 0.2554 0.7094 0.0000
vt 0.1947 0.4175 0.0000
vt 0.1891 0.3693 0.0000
vt 0.2040 0.4840 0.0000
vt 0.2130 0.5831 0.0000
vt 0.1991 0.6684 0.0000
vt 0.1936 0.7164 0.0000
vt 0.1194 0.4194 0.0000
vt 0.1216 0.3722 0.0000
vt 0.1195 0.4814 0.0000
vt 0.1263 0.5755 0.0000
vt 0.1249 0.6575 0.0000
vt 0.1285 0.7104 0.0000
vt 0.0582 0.4273 0.0000
vt 0.0629 0.3815 0.0000
vt 0.0523 0.4858 0.0000
vt 0.0503 0.5705 0.0000
vt 0.0557 0.6451 0.0000
vt 0.0725 0.6968 0.0000
vt 0.0161 0.4376 0.0000
vt 0.0225 0.3937 0.0000
vt 0.0028 0.4926 0.0000
vt 0.0005 0.5643 0.0000
vt 0.0084 0.6318 0.0000
vt 0.0255 0.6830 0.0000
vt 0.9461 0.6983 0.0000
vt 0.9732 0.7456 0.0000
vt 0.9101 0.7363 0.0000
vt 0.8920 0.6939 0.0000
vt 0.9901 0.8050 0.0000
vt 0.9287 0.8025 0.0000
vt 0.9685 0.8772 0.0000
vt 0.9192 0.8715 0.0000
vt 0.9554 0.9287 0.0000
vt 0.9140 0.9374 0.0000
vt 0.9445 0.9755 0.0000
vt 0.9063 0.9882 0.0000
vt 0.8437 0.7345 0.0000
vt 0.8371 0.6920 0.0000
vt 0.8595 0.7982 0.0000
vt 0.8552 0.8773 0.0000
vt 0.8464 0.9473 0.0000
vt 0.8426 0.9995 0.0000
vt 0.7790 0.7343 0.0000
vt 0.7813 0.6921 0.0000
vt 0.7846 0.7983 0.0000
vt 0.7784 0.8798 0.0000
vt 0.7777 0.9469 0.0000
vt 0.7807 0.9941 0.0000
vt 0.7189 0.7427 0.0000
vt 0.7305 0.6997 0.0000
vt 0.7143 0.8049 0.0000
vt 0.7053 0.8800 0.0000
vt 0.7085 0.9473 0.0000
vt 0.7211 0.9942 0.0000
vt 0.6717 0.7458 0.0000
vt 0.6851 0.7090 0.0000
vt 0.6607 0.7986 0.0000
vt 0.6501 0.8704 0.0000
vt 0.6624 0.9349 0.0000
vt 0.6721 0.9823 0.0000
vt 0.7019 0.0092 0.0000
vt 0.7451 0.0047 0.0000
vt 0.7329 0.0516 0.0000
vt 0.6863 0.0474 0.0000
vt 0.8033 0.0047 0.0000
vt 0.7953 0.0486 0.0000
vt 0.8767 0.0060 0.0000
vt 0.8728 0.0582 0.0000
vt 0.9382 0.0215 0.0000
vt 0.9371 0.0790 0.0000
vt 0.9790 0.0463 0.0000
vt 0.9858 0.0951 0.0000
vt 0.7122 0.1127 0.0000
vt 0.6577 0.1061 0.0000
vt 0.7856 0.1194 0.0000
vt 0.8653 0.1323 0.0000
vt 0.9367 0.1515 0.0000
vt 0.9921 0.1575 0.0000
vt 0.6981 0.1865 0.0000
vt 0.6417 0.1682 0.0000
vt 0.7739 0.2035 0.0000
vt 0.8539 0.2169 0.0000
vt 0.9295 0.2292 0.0000
vt 0.9867 0.2319 0.0000
vt 0.6974 0.2607 0.0000
vt 0.6453 0.2351 0.0000
vt 0.7696 0.2830 0.0000
vt 0.8494 0.2928 0.0000
vt 0.9149 0.2948 0.0000
vt 0.9652 0.2905 0.0000
vt 0.6953 0.3232 0.0000
vt 0.6491 0.2899 0.0000
vt 0.7675 0.3436 0.0000
vt 0.8396 0.3444 0.0000
vt 0.9052 0.3406 0.0000
vt 0.9464 0.3340 0.0000
# 216 texture coords

o rockLP001
g rockLP001
usemtl wire_115115115
s 1
f 1/1/1 2/2/2 3/3/3 
f 3/3/3 4/4/4 1/1/1 
f 4/4/4 3/3/3 5/5/5 
f 5/5/5 6/6/6 4/4/4 
f 6/6/6 5/5/5 7/7/7 
f 7/7/7 8/8/8 6/6/6 
f 8/8/8 7/7/7 9/9/9 
f 9/9/9 10/10/10 8/8/8 
f 10/10/10 9/9/9 11/11/11 
f 11/11/11 12/12/12 10/10/10 
f 2/2/2 13/13/13 14/14/14 
f 14/14/14 3/3/3 2/2/2 
f 3/3/3 14/14/14 15/15/15 
f 15/15/15 5/5/5 3/3/3 
f 5/5/5 15/15/15 16/16/16 
f 16/16/16 7/7/7 5/5/5 
f 7/7/7 16/16/16 17/17/17 
f 17/17/17 9/9/9 7/7/7 
f 9/9/9 17/17/17 18/18/18 
f 18/18/18 11/11/11 9/9/9 
f 13/13/13 19/19/19 20/20/20 
f 20/20/20 14/14/14 13/13/13 
f 14/14/14 20/20/20 21/21/21 
f 21/21/21 15/15/15 14/14/14 
f 15/15/15 21/21/21 22/22/22 
f 22/22/22 16/16/16 15/15/15 
f 16/16/16 22/22/22 23/23/23 
f 23/23/23 17/17/17 16/16/16 
f 17/17/17 23/23/23 24/24/24 
f 24/24/24 18/18/18 17/17/17 
f 19/19/19 25/25/25 26/26/26 
f 26/26/26 20/20/20 19/19/19 
f 20/20/20 26/26/26 27/27/27 
f 27/27/27 21/21/21 20/20/20 
f 21/21/21 27/27/27 28/28/28 
f 28/28/28 22/22/22 21/21/21 
f 22/22/22 28/28/28 29/29/29 
f 29/29/29 23/23/23 22/22/22 
f 23/23/23 29/29/29 30/30/30 
f 30/30/30 24/24/24 23/23/23 
f 25/25/25 31/31/31 32/32/32 
f 32/32/32 26/26/26 25/25/25 
f 26/26/26 32/32/32 33/33/33 
f 33/33/33 27/27/27 26/26/26 
f 27/27/27 33/33/33 34/34/34 
f 34/34/34 28/28/28 27/27/27 
f 28/28/28 34/34/34 35/35/35 
f 35/35/35 29/29/29 28/28/28 
f 29/29/29 35/35/35 36/36/36 
f 36/36/36 30/30/30 29/29/29 
f 37/37/37 38/38/38 39/39/39 
f 39/39/39 40/40/40 37/37/37 
f 38/38/38 41/41/41 42/42/42 
f 42/42/42 39/39/39 38/38/38 
f 41/41/41 43/43/43 44/44/44 
f 44/44/44 42/42/42 41/41/41 
f 43/43/43 45/45/45 46/46/46 
f 46/46/46 44/44/44 43/43/43 
f 45/45/45 47/47/47 48/48/48 
f 48/48/48 46/46/46 45/45/45 
f 40/40/40 39/39/39 49/49/49 
f 49/49/49 50/50/50 40/40/40 
f 39/39/39 42/42/42 51/51/51 
f 51/51/51 49/49/49 39/39/39 
f 42/42/42 44/44/44 52/52/52 
f 52/52/52 51/51/51 42/42/42 
f 44/44/44 46/46/46 53/53/53 
f 53/53/53 52/52/52 44/44/44 
f 46/46/46 48/48/48 54/54/54 
f 54/54/54 53/53/53 46/46/46 
f 50/50/50 49/49/49 55/55/55 
f 55/55/55 56/56/56 50/50/50 
f 49/49/49 51/51/51 57/57/57 
f 57/57/57 55/55/55 49/49/49 
f 51/51/51 52/52/52 58/58/58 
f 58/58/58 57/57/57 51/51/51 
f 52/52/52 53/53/53 59/59/59 
f 59/59/59 58/58/58 52/52/52 
f 53/53/53 54/54/54 60/60/60 
f 60/60/60 59/59/59 53/53/53 
f 56/56/56 55/55/55 61/61/61 
f 61/61/61 62/62/62 56/56/56 
f 55/55/55 57/57/57 63/63/63 
f 63/63/63 61/61/61 55/55/55 
f 57/57/57 58/58/58 64/64/64 
f 64/64/64 63/63/63 57/57/57 
f 58/58/58 59/59/59 65/65/65 
f 65/65/65 64/64/64 58/58/58 
f 59/59/59 60/60/60 66/66/66 
f 66/66/66 65/65/65 59/59/59 
f 62/62/62 61/61/61 67/67/67 
f 67/67/67 68/68/68 62/62/62 
f 61/61/61 63/63/63 69/69/69 
f 69/69/69 67/67/67 61/61/61 
f 63/63/63 64/64/64 70/70/70 
f 70/70/70 69/69/69 63/63/63 
f 64/64/64 65/65/65 71/71/71 
f 71/71/71 70/70/70 64/64/64 
f 65/65/65 66/66/66 72/72/72 
f 72/72/72 71/71/71 65/65/65 
f 1/73/1 4/74/4 73/75/73 
f 73/75/73 74/76/74 1/73/1 
f 4/74/4 6/77/6 75/78/75 
f 75/78/75 73/75/73 4/74/4 
f 6/77/6 8/79/8 76/80/76 
f 76/80/76 75/78/75 6/77/6 
f 8/79/8 10/81/10 77/82/77 
f 77/82/77 76/80/76 8/79/8 
f 10/81/10 12/83/12 78/84/78 
f 78/84/78 77/82/77 10/81/10 
f 74/76/74 73/75/73 79/85/79 
f 79/85/79 80/86/80 74/76/74 
f 73/75/73 75/78/75 81/87/81 
f 81/87/81 79/85/79 73/75/73 
f 75/78/75 76/80/76 82/88/82 
f 82/88/82 81/87/81 75/78/75 
f 76/80/76 77/82/77 83/89/83 
f 83/89/83 82/88/82 76/80/76 
f 77/82/77 78/84/78 84/90/84 
f 84/90/84 83/89/83 77/82/77 
f 80/86/80 79/85/79 85/91/85 
f 85/91/85 86/92/86 80/86/80 
f 79/85/79 81/87/81 87/93/87 
f 87/93/87 85/91/85 79/85/79 
f 81/87/81 82/88/82 88/94/88 
f 88/94/88 87/93/87 81/87/81 
f 82/88/82 83/89/83 89/95/89 
f 89/95/89 88/94/88 82/88/82 
f 83/89/83 84/90/84 90/96/90 
f 90/96/90 89/95/89 83/89/83 
f 86/92/86 85/91/85 91/97/91 
f 91/97/91 92/98/92 86/92/86 
f 85/91/85 87/93/87 93/99/93 
f 93/99/93 91/97/91 85/91/85 
f 87/93/87 88/94/88 94/100/94 
f 94/100/94 93/99/93 87/93/87 
f 88/94/88 89/95/89 95/101/95 
f 95/101/95 94/100/94 88/94/88 
f 89/95/89 90/96/90 96/102/96 
f 96/102/96 95/101/95 89/95/89 
f 92/98/92 91/97/91 38/103/38 
f 38/103/38 37/104/37 92/98/92 
f 91/97/91 93/99/93 41/105/41 
f 41/105/41 38/103/38 91/97/91 
f 93/99/93 94/100/94 43/106/43 
f 43/106/43 41/105/41 93/99/93 
f 94/100/94 95/101/95 45/107/45 
f 45/107/45 43/106/43 94/100/94 
f 95/101/95 96/102/96 47/108/47 
f 47/108/47 45/107/45 95/101/95 
f 12/109/12 11/110/11 97/111/97 
f 97/111/97 78/112/78 12/109/12 
f 11/110/11 18/113/18 98/114/98 
f 98/114/98 97/111/97 11/110/11 
f 18/113/18 24/115/24 99/116/99 
f 99/116/99 98/114/98 18/113/18 
f 24/115/24 30/117/30 100/118/100 
f 100/118/100 99/116/99 24/115/24 
f 30/117/30 36/119/36 101/120/101 
f 101/120/101 100/118/100 30/117/30 
f 78/112/78 97/111/97 102/121/102 
f 102/121/102 84/122/84 78/112/78 
f 97/111/97 98/114/98 103/123/103 
f 103/123/103 102/121/102 97/111/97 
f 98/114/98 99/116/99 104/124/104 
f 104/124/104 103/123/103 98/114/98 
f 99/116/99 100/118/100 105/125/105 
f 105/125/105 104/124/104 99/116/99 
f 100/118/100 101/120/101 106/126/106 
f 106/126/106 105/125/105 100/118/100 
f 84/122/84 102/121/102 107/127/107 
f 107/127/107 90/128/90 84/122/84 
f 102/121/102 103/123/103 108/129/108 
f 108/129/108 107/127/107 102/121/102 
f 103/123/103 104/124/104 109/130/109 
f 109/130/109 108/129/108 103/123/103 
f 104/124/104 105/125/105 110/131/110 
f 110/131/110 109/130/109 104/124/104 
f 105/125/105 106/126/106 111/132/111 
f 111/132/111 110/131/110 105/125/105 
f 90/128/90 107/127/107 112/133/112 
f 112/133/112 96/134/96 90/128/90 
f 107/127/107 108/129/108 113/135/113 
f 113/135/113 112/133/112 107/127/107 
f 108/129/108 109/130/109 114/136/114 
f 114/136/114 113/135/113 108/129/108 
f 109/130/109 110/131/110 115/137/115 
f 115/137/115 114/136/114 109/130/109 
f 110/131/110 111/132/111 116/138/116 
f 116/138/116 115/137/115 110/131/110 
f 96/134/96 112/133/112 48/139/48 
f 48/139/48 47/140/47 96/134/96 
f 112/133/112 113/135/113 54/141/54 
f 54/141/54 48/139/48 112/133/112 
f 113/135/113 114/136/114 60/142/60 
f 60/142/60 54/141/54 113/135/113 
f 114/136/114 115/137/115 66/143/66 
f 66/143/66 60/142/60 114/136/114 
f 115/137/115 116/138/116 72/144/72 
f 72/144/72 66/143/66 115/137/115 
f 36/145/36 35/146/35 117/147/117 
f 117/147/117 101/148/101 36/145/36 
f 35/146/35 34/149/34 118/150/118 
f 118/150/118 117/147/117 35/146/35 
f 34/149/34 33/151/33 119/152/119 
f 119/152/119 118/150/118 34/149/34 
f 33/151/33 32/153/32 120/154/120 
f 120/154/120 119/152/119 33/151/33 
f 32/153/32 31/155/31 121/156/121 
f 121/156/121 120/154/120 32/153/32 
f 101/148/101 117/147/117 122/157/122 
f 122/157/122 106/158/106 101/148/101 
f 117/147/117 118/150/118 123/159/123 
f 123/159/123 122/157/122 117/147/117 
f 118/150/118 119/152/119 124/160/124 
f 124/160/124 123/159/123 118/150/118 
f 119/152/119 120/154/120 125/161/125 
f 125/161/125 124/160/124 119/152/119 
f 120/154/120 121/156/121 126/162/126 
f 126/162/126 125/161/125 120/154/120 
f 106/158/106 122/157/122 127/163/127 
f 127/163/127 111/164/111 106/158/106 
f 122/157/122 123/159/123 128/165/128 
f 128/165/128 127/163/127 122/157/122 
f 123/159/123 124/160/124 129/166/129 
f 129/166/129 128/165/128 123/159/123 
f 124/160/124 125/161/125 130/167/130 
f 130/167/130 129/166/129 124/160/124 
f 125/161/125 126/162/126 131/168/131 
f 131/168/131 130/167/130 125/161/125 
f 111/164/111 127/163/127 132/169/132 
f 132/169/132 116/170/116 111/164/111 
f 127/163/127 128/165/128 133/171/133 
f 133/171/133 132/169/132 127/163/127 
f 128/165/128 129/166/129 134/172/134 
f 134/172/134 133/171/133 128/165/128 
f 129/166/129 130/167/130 135/173/135 
f 135/173/135 134/172/134 129/166/129 
f 130/167/130 131/168/131 136/174/136 
f 136/174/136 135/173/135 130/167/130 
f 116/170/116 132/169/132 71/175/71 
f 71/175/71 72/176/72 116/170/116 
f 132/169/132 133/171/133 70/177/70 
f 70/177/70 71/175/71 132/169/132 
f 133/171/133 134/172/134 69/178/69 
f 69/178/69 70/177/70 133/171/133 
f 134/172/134 135/173/135 67/179/67 
f 67/179/67 69/178/69 134/172/134 
f 135/173/135 136/174/136 68/180/68 
f 68/180/68 67/179/67 135/173/135 
f 31/181/31 25/182/25 137/183/137 
f 137/183/137 121/184/121 31/181/31 
f 25/182/25 19/185/19 138/186/138 
f 138/186/138 137/183/137 25/182/25 
f 19/185/19 13/187/13 139/188/139 
f 139/188/139 138/186/138 19/185/19 
f 13/187/13 2/189/2 140/190/140 
f 140/190/140 139/188/139 13/187/13 
f 2/189/2 1/191/1 74/192/74 
f 74/192/74 140/190/140 2/189/2 
f 121/184/121 137/183/137 141/193/141 
f 141/193/141 126/194/126 121/184/121 
f 137/183/137 138/186/138 142/195/142 
f 142/195/142 141/193/141 137/183/137 
f 138/186/138 139/188/139 143/196/143 
f 143/196/143 142/195/142 138/186/138 
f 139/188/139 140/190/140 144/197/144 
f 144/197/144 143/196/143 139/188/139 
f 140/190/140 74/192/74 80/198/80 
f 80/198/80 144/197/144 140/190/140 
f 126/194/126 141/193/141 145/199/145 
f 145/199/145 131/200/131 126/194/126 
f 141/193/141 142/195/142 146/201/146 
f 146/201/146 145/199/145 141/193/141 
f 142/195/142 143/196/143 147/202/147 
f 147/202/147 146/201/146 142/195/142 
f 143/196/143 144/197/144 148/203/148 
f 148/203/148 147/202/147 143/196/143 
f 144/197/144 80/198/80 86/204/86 
f 86/204/86 148/203/148 144/197/144 
f 131/200/131 145/199/145 149/205/149 
f 149/205/149 136/206/136 131/200/131 
f 145/199/145 146/201/146 150/207/150 
f 150/207/150 149/205/149 145/199/145 
f 146/201/146 147/202/147 151/208/151 
f 151/208/151 150/207/150 146/201/146 
f 147/202/147 148/203/148 152/209/152 
f 152/209/152 151/208/151 147/202/147 
f 148/203/148 86/204/86 92/210/92 
f 92/210/92 152/209/152 148/203/148 
f 136/206/136 149/205/149 62/211/62 
f 62/211/62 68/212/68 136/206/136 
f 149/205/149 150/207/150 56/213/56 
f 56/213/56 62/211/62 149/205/149 
f 150/207/150 151/208/151 50/214/50 
f 50/214/50 56/213/56 150/207/150 
f 151/208/151 152/209/152 40/215/40 
f 40/215/40 50/214/50 151/208/151 
f 152/209/152 92/210/92 37/216/37 
f 37/216/37 40/215/40 152/209/152 
# 300 faces

