# 3ds Max Wavefront OBJ Exporter v0.97b - (c)2007 guruware
# File Created: 07.06.2018 11:08:45

mtllib StoneFINAL.mtl

#
# object Stone
#

v  6.8653 -0.7073 -2.1590
v  6.5738 -0.6702 2.3919
v  -6.5642 -0.8989 2.3920
v  -6.8547 -0.9561 -2.1588
v  7.3367 1.6566 -2.1498
v  -7.2770 2.2849 -2.1490
v  -6.9854 2.2767 2.4020
v  7.0461 1.6632 2.4011
v  6.9422 1.2372 2.6616
v  -6.9115 1.8427 2.6628
v  -6.6045 -0.4623 2.6555
v  6.6441 -0.2415 2.6557
v  7.0354 -0.2381 2.2849
v  7.3132 -0.2732 -2.0488
v  7.3554 -0.0974 -2.1566
v  7.5831 1.0384 -2.1522
v  7.6113 1.2144 -2.0435
v  7.3347 1.2203 2.2902
v  7.2911 1.0429 2.3987
v  7.0648 -0.0606 2.3943
v  -7.2378 1.8516 -2.4125
v  7.2676 1.2294 -2.4136
v  6.9679 -0.2824 -2.4195
v  -6.9275 -0.5259 -2.4197
v  -7.2727 -0.5278 -2.0499
v  -6.9959 -0.4731 2.2837
v  -7.0130 -0.2904 2.3939
v  -7.2730 1.6787 2.4001
v  -7.3040 1.8593 2.2915
v  -7.5815 1.8669 -2.0422
v  -7.5655 1.6883 -2.1508
v  -7.3024 -0.3512 -2.1570
# 32 vertices

vn 0.0148 -0.9999 0.0059
vn 0.0146 -0.9999 0.0055
vn 0.0151 -0.9999 0.0065
vn 0.0152 -0.9999 0.0068
vn 0.0365 0.9993 0.0004
vn 0.0361 0.9993 -0.0006
vn 0.0362 0.9993 -0.0002
vn 0.0367 0.9993 0.0008
vn 0.0001 -0.0065 1.0000
vn -0.0001 -0.0053 1.0000
vn 0.0001 -0.0067 1.0000
vn 0.9705 -0.2369 0.0444
vn 0.9719 -0.2311 0.0455
vn 0.9717 -0.2320 0.0455
vn 0.9715 -0.2324 0.0458
vn 0.9714 -0.2329 0.0455
vn 0.9701 -0.2387 0.0443
vn 0.9703 -0.2378 0.0443
vn 0.9704 -0.2374 0.0441
vn -0.0000 0.0052 -1.0000
vn 0.0001 0.0065 -1.0000
vn 0.0001 0.0063 -1.0000
vn -0.0001 0.0051 -1.0000
vn -0.9873 -0.1525 0.0451
vn -0.9866 -0.1565 0.0461
vn -0.9867 -0.1558 0.0461
vn -0.9868 -0.1555 0.0459
vn -0.9869 -0.1550 0.0459
vn -0.9875 -0.1509 0.0449
vn -0.9874 -0.1517 0.0449
vn -0.9874 -0.1520 0.0450
vn 0.0105 -0.7110 -0.7031
vn 0.0105 -0.7109 -0.7032
vn 0.0109 -0.7172 -0.6968
vn 0.0109 -0.7174 -0.6966
vn 0.0100 -0.7179 0.6961
vn 0.0100 -0.7181 0.6959
vn 0.0104 -0.7100 0.7041
vn 0.0104 -0.7098 0.7043
vn 0.0262 0.7112 0.7025
vn 0.0261 0.7109 0.7028
vn 0.0257 0.7157 -0.6979
vn 0.0257 0.7158 -0.6978
vn 0.0257 0.7142 -0.6995
vn -0.6445 -0.7638 0.0351
vn -0.6446 -0.7637 0.0351
vn -0.6442 -0.7641 0.0351
vn 0.6240 -0.7808 0.0323
vn 0.6239 -0.7808 0.0323
vn 0.7965 0.6036 0.0357
vn -0.7473 0.6635 0.0348
vn -0.7474 0.6635 0.0348
vn -0.7470 0.6639 0.0348
vn 0.6806 -0.1700 0.7127
vn 0.6820 -0.1714 0.7110
vn 0.6791 -0.1685 0.7144
vn 0.6782 -0.1676 0.7155
vn -0.6878 -0.1122 0.7172
vn -0.6883 -0.1120 0.7168
vn -0.6863 -0.1125 0.7186
vn -0.6860 -0.1126 0.7189
vn 0.7133 -0.1645 -0.6813
vn 0.7139 -0.1642 -0.6807
vn 0.7118 -0.1650 -0.6827
vn 0.7109 -0.1654 -0.6836
vn -0.7187 -0.1073 -0.6870
vn -0.7181 -0.1069 -0.6877
vn -0.7207 -0.1084 -0.6847
vn -0.7211 -0.1087 -0.6842
vn -0.6502 -0.5741 0.4976
vn -0.6501 -0.5744 0.4975
vn -0.6502 -0.5742 0.4975
vn -0.6503 -0.5740 0.4976
vn 0.6339 -0.6116 0.4734
vn 0.6344 -0.6120 0.4722
vn 0.6341 -0.6118 0.4729
vn 0.6338 -0.6115 0.4737
vn -0.6715 -0.5898 -0.4486
vn -0.6712 -0.5896 -0.4493
vn -0.6714 -0.5898 -0.4488
vn -0.6716 -0.5899 -0.4483
vn 0.6551 -0.6244 -0.4255
vn 0.6554 -0.6239 -0.4257
vn 0.6552 -0.6242 -0.4256
vn 0.6549 -0.6246 -0.4254
vn -0.7228 0.4112 0.5555
vn -0.7225 0.4111 0.5559
vn -0.7227 0.4112 0.5556
vn -0.7229 0.4113 0.5553
vn 0.7526 0.3507 0.5573
vn 0.7529 0.3498 0.5575
vn 0.7527 0.3504 0.5574
vn 0.7525 0.3510 0.5572
vn -0.7469 0.4329 -0.5048
vn -0.7467 0.4334 -0.5046
vn -0.7468 0.4331 -0.5047
vn -0.7469 0.4327 -0.5048
vn 0.7780 0.3728 -0.5057
vn 0.7783 0.3730 -0.5050
vn 0.7781 0.3729 -0.5055
vn 0.7778 0.3728 -0.5060
# 101 vertex normals

vt 0.6544 0.0385 0.0000
vt 0.6329 0.3079 0.0000
vt 0.0310 0.2924 0.0000
vt 0.0258 0.0223 0.0000
vt 0.6706 0.8731 0.0000
vt 0.0005 0.8731 0.0000
vt 0.0139 0.5804 0.0000
vt 0.6573 0.5805 0.0000
vt 0.6632 0.9880 0.0000
vt 0.0280 0.9975 0.0000
vt 0.0441 0.8986 0.0000
vt 0.6508 0.9239 0.0000
vt 0.6926 0.5280 0.0000
vt 0.9655 0.5322 0.0000
vt 0.9718 0.5426 0.0000
vt 0.9692 0.6042 0.0000
vt 0.9621 0.6131 0.0000
vt 0.6943 0.6153 0.0000
vt 0.6863 0.6050 0.0000
vt 0.6855 0.5387 0.0000
vt 0.6638 0.5469 0.0000
vt 0.0000 0.4967 0.0000
vt 0.0154 0.4280 0.0000
vt 0.6521 0.4378 0.0000
vt 0.6860 0.3462 0.0000
vt 0.9698 0.3580 0.0000
vt 0.9768 0.3672 0.0000
vt 0.9685 0.4631 0.0000
vt 0.9607 0.4703 0.0000
vt 0.6942 0.4649 0.0000
vt 0.6870 0.4560 0.0000
vt 0.6794 0.3568 0.0000
vt 0.0234 0.0005 0.0000
vt 0.6600 0.0171 0.0000
vt 0.6357 0.3298 0.0000
vt 0.0288 0.3144 0.0000
vt 0.0179 0.5569 0.0000
vt 0.6531 0.5570 0.0000
vt 0.6680 0.8968 0.0000
vt 0.0029 0.8968 0.0000
vt 0.0054 0.2857 0.0000
vt 0.0005 0.0285 0.0000
vt 0.6805 0.0460 0.0000
vt 0.6600 0.3026 0.0000
vt 0.6843 0.6460 0.0000
vt 0.9726 0.6442 0.0000
vt 0.6829 0.4915 0.0000
vt 0.9693 0.4959 0.0000
vt 0.6767 0.9305 0.0000
vt 0.6860 0.9783 0.0000
vt 0.0048 0.9886 0.0000
vt 0.0185 0.9041 0.0000
vt 0.9936 0.5256 0.0000
vt 0.9921 0.6159 0.0000
vt 0.6545 0.3442 0.0000
vt 0.6630 0.4670 0.0000
vt 0.9996 0.3506 0.0000
vt 0.9830 0.3286 0.0000
vt 0.6799 0.4899 0.0000
vt 0.6628 0.5157 0.0000
vt 0.6690 0.3171 0.0000
vt 0.9791 0.4976 0.0000
vt 0.9891 0.4793 0.0000
vt 0.6638 0.6235 0.0000
# 64 texture coords

o Stone
g Stone
usemtl Stone
s 1
f 1/1/1 2/2/2 3/3/3 
f 3/3/3 4/4/4 1/1/1 
f 5/5/5 6/6/6 7/7/7 
f 7/7/7 8/8/8 5/5/5 
f 9/9/9 10/10/10 11/11/10 
f 11/11/10 12/12/11 9/9/9 
f 13/13/12 14/14/13 15/15/14 
f 15/15/14 16/16/15 17/17/16 
f 13/13/12 15/15/14 17/17/16 
f 17/17/16 18/18/17 19/19/18 
f 13/13/12 17/17/16 19/19/18 
f 20/20/19 13/13/12 19/19/18 
f 21/21/20 22/22/21 23/23/22 
f 23/23/22 24/24/23 21/21/20 
f 25/25/24 26/26/25 27/27/26 
f 27/27/26 28/28/27 29/29/28 
f 25/25/24 27/27/26 29/29/28 
f 29/29/28 30/30/29 31/31/30 
f 25/25/24 29/29/28 31/31/30 
f 32/32/31 25/25/24 31/31/30 
s 2
f 4/4/32 24/33/33 23/34/34 
f 23/34/34 1/1/35 4/4/32 
f 2/2/36 12/35/37 11/36/38 
f 11/36/38 3/3/39 2/2/36 
f 7/7/40 10/37/40 9/38/41 
f 9/38/41 8/8/41 7/7/40 
f 5/5/42 22/39/43 21/40/44 
f 21/40/44 6/6/44 5/5/42 
s 4
f 3/3/45 26/41/46 25/42/47 
f 25/42/47 4/4/47 3/3/45 
s 8
f 1/1/48 14/43/48 13/44/49 
f 13/44/49 2/2/49 1/1/48 
f 8/45/50 18/18/50 17/17/50 
f 17/17/50 5/46/50 8/45/50 
s 4
f 6/47/51 30/30/52 29/29/53 
f 29/29/53 7/48/53 6/47/51 
s 8
f 12/12/54 20/49/55 19/50/56 
f 19/50/56 9/9/57 12/12/54 
s 4
f 10/10/58 28/51/59 27/52/60 
f 27/52/60 11/11/61 10/10/58 
s 8
f 15/15/62 23/53/63 22/54/64 
f 22/54/64 16/16/65 15/15/62 
s 4
f 24/55/66 32/32/67 31/31/68 
f 31/31/68 21/56/69 24/55/66 
s 16
f 11/57/70 27/27/71 26/26/72 
f 26/26/72 3/58/73 11/57/70 
f 2/59/74 13/13/75 20/20/76 
f 20/20/76 12/60/77 2/59/74 
f 4/61/78 25/25/79 32/32/80 
f 32/32/80 24/55/81 4/61/78 
f 23/53/82 15/15/83 14/14/84 
f 14/14/84 1/62/85 23/53/82 
f 7/48/86 29/29/87 28/28/88 
f 28/28/88 10/63/89 7/48/86 
f 9/64/90 19/19/91 18/18/92 
f 18/18/92 8/45/93 9/64/90 
f 21/56/94 31/31/95 30/30/96 
f 30/30/96 6/47/97 21/56/94 
f 5/46/98 17/17/99 16/16/100 
f 16/16/100 22/54/101 5/46/98 
# 60 faces

