# 3ds Max Wavefront OBJ Exporter v0.97b - (c)2007 guruware
# File Created: 01.06.2018 15:09:14

mtllib Tree.mtl

#
# object Tree
#

v  34.0138 0.0000 -0.0000
v  29.4568 0.0000 -16.5437
v  22.7195 32.2312 -16.3286
v  29.4440 32.2312 -0.0000
v  17.0069 0.0000 -28.6546
v  13.0605 32.2312 -28.2819
v  -0.0000 0.0000 -33.0874
v  -0.0000 32.2312 -32.6571
v  -17.0069 0.0000 -28.6546
v  -11.5452 32.2312 -28.2819
v  -29.4568 0.0000 -16.5437
v  -19.9970 32.2312 -16.3286
v  -34.0138 0.0000 -0.0000
v  -23.0905 32.2312 -0.0000
v  -29.4568 0.0000 16.5437
v  -19.9970 32.2312 16.3285
v  -17.0069 0.0000 28.6546
v  -11.5453 32.2312 28.2819
v  -0.0000 0.0000 33.0874
v  -0.0000 32.2312 32.6571
v  17.0069 0.0000 28.6546
v  13.0605 32.2312 28.2819
v  29.4568 0.0000 16.5437
v  22.7195 32.2312 16.3286
v  10.7360 83.8061 -13.7791
v  15.0244 83.8061 0.0000
v  3.3598 83.8061 -23.8662
v  -7.1163 83.8061 -23.8241
v  -16.6928 83.8061 -20.6926
v  -23.0256 83.8061 -12.1372
v  -26.1192 83.8061 -0.4503
v  -23.0256 83.8061 11.2366
v  -16.6928 83.8061 19.7920
v  -7.1163 83.8061 22.9235
v  3.3598 83.8061 23.8662
v  10.7360 83.8061 13.7792
v  8.7910 114.0679 -15.4179
v  12.7338 114.3093 -3.7327
v  2.9232 113.8912 -23.9719
v  -6.6829 113.8266 -27.1029
v  -15.5067 113.8912 -23.9719
v  -21.8395 114.0679 -15.4178
v  -24.9331 114.3093 -3.7327
v  -21.8395 114.5507 7.9524
v  -15.5067 114.7273 16.5065
v  -6.6829 114.7920 19.6375
v  2.9231 114.7273 16.5065
v  8.7910 114.5507 7.9524
v  9.3712 141.6915 -14.0552
v  14.0690 141.7829 -2.3685
v  4.5694 141.6246 -22.6104
v  -4.4012 141.6001 -25.7418
v  -12.4847 141.6246 -22.6104
v  -18.8175 141.6915 -14.0552
v  -21.9111 141.7829 -2.3685
v  -18.8175 141.8743 9.3181
v  -12.4847 141.9412 17.8734
v  -4.4012 141.9657 21.0048
v  4.5694 141.9412 17.8734
v  9.3712 141.8743 9.3182
v  9.0025 178.9666 -12.1484
v  13.3444 179.0511 -2.7089
v  4.5645 178.9048 -19.0586
v  -2.3219 178.8821 -21.5878
v  -8.3871 178.9048 -19.0585
v  -13.8171 178.9666 -12.1484
v  -17.6311 179.0511 -2.7089
v  -13.8171 179.1356 6.7306
v  -8.3871 179.1975 13.6408
v  -2.3219 179.2201 16.1701
v  4.5645 179.1975 13.6408
v  9.0025 179.1356 6.7306
v  6.3189 195.9118 -12.2317
v  9.4878 195.9962 -2.7922
v  3.4376 195.8499 -19.1419
v  -3.4707 195.8273 -21.6712
v  -11.3238 195.8499 -19.1419
v  -15.9357 195.9118 -12.2317
v  -19.7496 195.9962 -2.7922
v  -15.9357 196.0807 6.6473
v  -11.3238 196.1425 13.5575
v  -3.4707 196.1652 16.0868
v  3.4376 196.1425 13.5575
v  6.3189 196.0807 6.6473
v  -4.3619 239.9781 -11.5980
v  -1.1930 240.0625 -3.0089
v  -7.2433 239.9162 -17.8856
v  -14.1516 239.8936 -20.1870
v  -22.0047 239.9162 -17.8856
v  -26.6165 239.9780 -11.5980
v  -30.4305 240.0625 -3.0089
v  -26.6165 240.1470 5.5802
v  -22.0047 240.2089 11.8678
v  -14.1516 240.2315 14.1693
v  -7.2433 240.2089 11.8679
v  -4.3619 240.1470 5.5802
v  -13.7237 291.7608 -3.2631
v  -16.8926 291.6764 -10.8545
v  -1.3200 341.8117 -9.8813
v  1.7879 341.9031 -3.3745
v  -19.7739 291.6145 -16.4118
v  -4.4375 341.7449 -14.6446
v  -26.6822 291.5919 -18.4459
v  -9.7836 341.7203 -16.3881
v  -34.5353 291.6145 -16.4118
v  -16.2209 341.7448 -14.6446
v  -39.1472 291.6763 -10.8545
v  -20.6589 341.8117 -9.8813
v  -42.9612 291.7608 -3.2631
v  -24.7855 341.9031 -3.3745
v  -39.1472 291.8453 4.3283
v  -20.6589 341.9946 3.1323
v  -34.5353 291.9072 9.8856
v  -16.2209 342.0615 7.8956
v  -26.6823 291.9297 11.9197
v  -9.7836 342.0859 9.6392
v  -19.7739 291.9072 9.8856
v  -4.4375 342.0615 7.8957
v  -16.8926 291.8453 4.3283
v  -1.3200 341.9946 3.1323
v  -4.7452 391.6243 -8.3350
v  -2.8034 391.7156 -3.5631
v  -6.9715 391.5573 -11.8283
v  -8.8265 391.5328 -13.1069
v  -11.0599 391.5573 -11.8282
v  -13.2878 391.6243 -8.3350
v  -15.6112 391.7156 -3.5631
v  -13.2878 391.8070 1.2087
v  -11.0599 391.8740 4.7019
v  -8.8265 391.8985 5.9806
v  -6.9715 391.8740 4.7020
v  -4.7452 391.8070 1.2087
v  -8.6873 424.3031 -2.1815
v  -9.8336 250.6034 -17.5809
v  -6.9523 250.6653 -11.4443
v  -16.7419 250.5808 -19.8271
v  -24.5950 250.6034 -17.5809
v  -29.2069 250.6652 -11.4443
v  -33.0208 250.7497 -3.0614
v  -29.2069 250.8342 5.3214
v  -24.5950 250.8960 11.4581
v  -16.7419 250.9187 13.7043
v  -9.8336 250.8960 11.4581
v  -6.9523 250.8342 5.3214
v  -3.7834 250.7497 -3.0614
v  23.6074 268.0335 -11.9897
v  30.2190 263.1517 -12.1519
v  22.5514 269.9128 -3.1436
v  23.4219 268.6741 5.7025
v  30.4045 262.5111 5.9756
v  31.2750 261.2723 -3.0881
v  34.4395 303.1130 -3.1187
# 152 vertices

vn 0.9983 0.0576 -0.0069
vn 0.8653 0.0530 -0.4984
vn 0.8603 0.0626 -0.5059
vn 0.9973 0.0731 -0.0023
vn 0.4984 0.0193 -0.8668
vn 0.5644 0.0527 -0.8238
vn -0.0043 0.0110 -0.9999
vn -0.0161 0.0327 -0.9993
vn -0.5047 0.0454 -0.8621
vn -0.6020 0.0231 -0.7981
vn -0.8632 0.0926 -0.4963
vn -0.9157 0.0328 -0.4004
vn -0.9943 0.1063 -0.0043
vn -0.9990 0.0451 -0.0013
vn -0.8666 0.0737 0.4935
vn -0.9165 0.0467 0.3972
vn -0.5013 0.0255 0.8649
vn -0.5996 0.0387 0.7994
vn 0.0031 0.0091 1.0000
vn -0.0157 0.0307 0.9994
vn 0.5007 0.0329 0.8650
vn 0.5691 0.0408 0.8212
vn 0.8589 0.0508 0.5095
vn 0.8571 0.0651 0.5111
vn 0.8918 0.0456 -0.4501
vn 0.9983 0.0580 0.0049
vn 0.4499 0.0195 -0.8928
vn -0.1585 0.0011 -0.9874
vn -0.5923 -0.0001 -0.8057
vn -0.9033 -0.0044 -0.4290
vn -1.0000 -0.0014 0.0039
vn -0.9021 0.0098 0.4314
vn -0.5892 0.0292 0.8075
vn -0.1971 0.0532 0.9789
vn 0.4063 0.0740 0.9107
vn 0.8894 0.0604 0.4532
vn 0.8947 0.0027 -0.4467
vn 0.9999 0.0076 -0.0083
vn 0.5963 0.0022 -0.8028
vn -0.0215 -0.0002 -0.9998
vn -0.5934 0.0057 -0.8049
vn -0.8998 0.0181 -0.4360
vn -0.9997 0.0251 -0.0057
vn -0.9031 0.0269 0.4287
vn -0.5996 0.0220 0.8000
vn -0.0147 0.0106 0.9998
vn 0.5982 0.0121 0.8013
vn 0.8950 0.0136 0.4458
vn 0.9021 0.0047 -0.4315
vn 1.0000 -0.0017 0.0003
vn 0.6414 0.0146 -0.7670
vn -0.0163 0.0281 -0.9995
vn -0.6042 0.0399 -0.7959
vn -0.8995 0.0412 -0.4350
vn -0.9992 0.0402 0.0025
vn -0.9000 0.0387 0.4342
vn -0.6043 0.0302 0.7962
vn -0.0151 0.0147 0.9998
vn 0.6398 0.0000 0.7685
vn 0.9004 -0.0041 0.4351
vn 0.8795 0.0213 -0.4755
vn 0.9993 0.0373 0.0013
vn 0.6290 0.0174 -0.7772
vn -0.0149 0.0152 -0.9998
vn -0.6028 0.0083 -0.7979
vn -0.8648 0.0059 -0.5020
vn -1.0000 0.0017 0.0020
vn -0.8669 0.0015 0.4985
vn -0.6004 0.0121 0.7996
vn -0.0165 0.0229 0.9996
vn 0.6319 0.0286 0.7745
vn 0.8793 0.0367 0.4748
vn 0.9320 0.0674 -0.3560
vn 0.9973 0.0732 0.0018
vn 0.6895 0.0448 -0.7229
vn 0.0253 0.0059 -0.9997
vn -0.6017 -0.0355 -0.7979
vn -0.8818 -0.0557 -0.4683
vn -0.9981 -0.0610 0.0010
vn -0.8817 -0.0525 0.4688
vn -0.5975 -0.0327 0.8012
vn 0.0238 0.0066 0.9997
vn 0.6941 0.0407 0.7187
vn 0.9334 0.0572 0.3543
vn 0.8889 -0.0375 -0.4567
vn 0.9789 -0.2043 0.0044
vn 0.6655 0.0615 -0.7438
vn 0.0174 0.0119 -0.9998
vn -0.5742 -0.0391 -0.8178
vn -0.8640 -0.0677 -0.4990
vn -0.9969 -0.0790 0.0016
vn -0.8625 -0.0646 0.5019
vn -0.5727 -0.0356 0.8190
vn 0.0178 0.0152 0.9997
vn 0.6670 0.0636 0.7423
vn 0.8871 -0.0413 0.4597
vn 0.9999 -0.0101 -0.0006
vn 0.9056 -0.0075 -0.4240
vn 0.8725 -0.0320 -0.4876
vn 0.9994 -0.0353 0.0011
vn 0.6226 0.0023 -0.7825
vn 0.6166 -0.0173 -0.7871
vn -0.0002 0.0124 -0.9999
vn 0.0343 0.0166 -0.9993
vn -0.5495 0.0179 -0.8353
vn -0.5091 0.0542 -0.8590
vn -0.8385 0.0182 -0.5446
vn -0.7875 0.0750 -0.6118
vn -0.9998 0.0206 0.0001
vn -0.9957 0.0925 -0.0024
vn -0.8393 0.0220 0.5433
vn -0.7910 0.0722 0.6076
vn -0.5505 0.0218 0.8346
vn -0.5116 0.0528 0.8576
vn -0.0001 0.0149 0.9999
vn 0.0356 0.0185 0.9992
vn 0.6218 0.0028 0.7832
vn 0.6146 -0.0125 0.7887
vn 0.9055 -0.0068 0.4243
vn 0.8717 -0.0284 0.4892
vn 0.8857 0.0457 -0.4620
vn 0.9990 0.0448 -0.0035
vn 0.7148 0.0534 -0.6973
vn 0.0401 0.0677 -0.9969
vn -0.6825 0.0599 -0.7284
vn -0.8686 0.0581 -0.4921
vn -0.9979 0.0648 -0.0060
vn -0.8719 0.0552 0.4865
vn -0.6872 0.0556 0.7243
vn 0.0440 0.0573 0.9974
vn 0.7175 0.0418 0.6953
vn 0.8884 0.0390 0.4573
vn 0.0041 0.9999 0.0136
vn 0.6596 0.0606 -0.7491
vn 0.5857 0.1814 -0.7900
vn 0.0171 0.0118 -0.9998
vn -0.5668 -0.0384 -0.8230
vn -0.8588 -0.0671 -0.5079
vn -0.9968 -0.0794 0.0020
vn -0.8572 -0.0653 0.5109
vn -0.5656 -0.0355 0.8239
vn 0.0175 0.0152 0.9997
vn 0.6609 0.0631 0.7478
vn 0.6047 0.2041 0.7698
vn -0.0283 0.9992 0.0289
vn -0.4234 0.2369 -0.8744
vn 0.6572 -0.1089 -0.7458
vn -0.9696 0.2435 -0.0241
vn -0.4898 0.2257 0.8421
vn 0.6698 -0.1295 0.7312
vn 0.9518 -0.3040 -0.0402
vn 0.0719 0.9974 -0.0010
# 152 vertex normals

vt 0.9906 0.5219 0.0000
vt 0.9906 0.5768 0.0000
vt 0.9154 0.5801 0.0000
vt 0.9157 0.5241 0.0000
vt 0.9900 0.6322 0.0000
vt 0.9149 0.6290 0.0000
vt 0.9955 0.0005 0.0000
vt 0.9958 0.0562 0.0000
vt 0.9213 0.0636 0.0000
vt 0.9210 0.0200 0.0000
vt 0.9961 0.1118 0.0000
vt 0.9215 0.1027 0.0000
vt 0.9941 0.1874 0.0000
vt 0.9950 0.2420 0.0000
vt 0.9196 0.2423 0.0000
vt 0.9193 0.1956 0.0000
vt 0.9953 0.2961 0.0000
vt 0.9196 0.2956 0.0000
vt 0.9949 0.3501 0.0000
vt 0.9195 0.3490 0.0000
vt 0.9940 0.4048 0.0000
vt 0.9192 0.3958 0.0000
vt 0.9948 0.8844 0.0000
vt 0.9948 0.9406 0.0000
vt 0.9197 0.9404 0.0000
vt 0.9196 0.9010 0.0000
vt 0.9948 0.9967 0.0000
vt 0.9196 0.9844 0.0000
vt 0.9897 0.4116 0.0000
vt 0.9904 0.4669 0.0000
vt 0.9152 0.4680 0.0000
vt 0.9145 0.4191 0.0000
vt 0.7944 0.5738 0.0000
vt 0.7946 0.5275 0.0000
vt 0.7942 0.6139 0.0000
vt 0.8017 0.0982 0.0000
vt 0.8016 0.0648 0.0000
vt 0.8018 0.1302 0.0000
vt 0.7992 0.2555 0.0000
vt 0.7993 0.2218 0.0000
vt 0.7992 0.2938 0.0000
vt 0.7993 0.3320 0.0000
vt 0.7992 0.3657 0.0000
vt 0.7991 0.9168 0.0000
vt 0.7990 0.8846 0.0000
vt 0.7992 0.9506 0.0000
vt 0.7943 0.4812 0.0000
vt 0.7939 0.4412 0.0000
vt 0.7235 0.5794 0.0000
vt 0.7229 0.5400 0.0000
vt 0.7240 0.6125 0.0000
vt 0.7319 0.0998 0.0000
vt 0.7317 0.0677 0.0000
vt 0.7319 0.1295 0.0000
vt 0.7294 0.2459 0.0000
vt 0.7297 0.2122 0.0000
vt 0.7289 0.2841 0.0000
vt 0.7282 0.3224 0.0000
vt 0.7277 0.3561 0.0000
vt 0.7265 0.9178 0.0000
vt 0.7267 0.8879 0.0000
vt 0.7267 0.9501 0.0000
vt 0.7223 0.5007 0.0000
vt 0.7218 0.4676 0.0000
vt 0.6594 0.5778 0.0000
vt 0.6591 0.5380 0.0000
vt 0.6596 0.6089 0.0000
vt 0.6676 0.0962 0.0000
vt 0.6674 0.0661 0.0000
vt 0.6676 0.1239 0.0000
vt 0.6654 0.2493 0.0000
vt 0.6654 0.2154 0.0000
vt 0.6653 0.2878 0.0000
vt 0.6649 0.3260 0.0000
vt 0.6646 0.3598 0.0000
vt 0.6633 0.9245 0.0000
vt 0.6634 0.8970 0.0000
vt 0.6633 0.9547 0.0000
vt 0.6588 0.4980 0.0000
vt 0.6586 0.4670 0.0000
vt 0.5734 0.5741 0.0000
vt 0.5733 0.5413 0.0000
vt 0.5735 0.6000 0.0000
vt 0.5806 0.0942 0.0000
vt 0.5805 0.0707 0.0000
vt 0.5806 0.1152 0.0000
vt 0.5782 0.2537 0.0000
vt 0.5783 0.2255 0.0000
vt 0.5780 0.2864 0.0000
vt 0.5778 0.3191 0.0000
vt 0.5776 0.3473 0.0000
vt 0.5767 0.9304 0.0000
vt 0.5767 0.9094 0.0000
vt 0.5767 0.9538 0.0000
vt 0.5729 0.5086 0.0000
vt 0.5726 0.4827 0.0000
vt 0.5343 0.5739 0.0000
vt 0.5342 0.5422 0.0000
vt 0.5343 0.5978 0.0000
vt 0.5411 0.0989 0.0000
vt 0.5410 0.0755 0.0000
vt 0.5411 0.1253 0.0000
vt 0.5384 0.2535 0.0000
vt 0.5388 0.2270 0.0000
vt 0.5381 0.2859 0.0000
vt 0.5380 0.3185 0.0000
vt 0.5381 0.3450 0.0000
vt 0.5373 0.9272 0.0000
vt 0.5373 0.9009 0.0000
vt 0.5373 0.9505 0.0000
vt 0.5338 0.5113 0.0000
vt 0.5334 0.4875 0.0000
vt 0.4308 0.5750 0.0000
vt 0.4300 0.5457 0.0000
vt 0.4308 0.5972 0.0000
vt 0.4385 0.1337 0.0000
vt 0.4384 0.1104 0.0000
vt 0.4384 0.1598 0.0000
vt 0.4353 0.2549 0.0000
vt 0.4358 0.2301 0.0000
vt 0.4349 0.2848 0.0000
vt 0.4349 0.3147 0.0000
vt 0.4351 0.3396 0.0000
vt 0.4350 0.8961 0.0000
vt 0.4350 0.8701 0.0000
vt 0.4351 0.9192 0.0000
vt 0.4303 0.5161 0.0000
vt 0.4299 0.4939 0.0000
vt 0.3087 0.5488 0.0000
vt 0.3090 0.5754 0.0000
vt 0.1909 0.5740 0.0000
vt 0.1906 0.5514 0.0000
vt 0.3092 0.5955 0.0000
vt 0.1912 0.5921 0.0000
vt 0.3175 0.1502 0.0000
vt 0.3176 0.1733 0.0000
vt 0.2002 0.1213 0.0000
vt 0.2001 0.1033 0.0000
vt 0.3175 0.1992 0.0000
vt 0.2001 0.1427 0.0000
vt 0.3151 0.2335 0.0000
vt 0.3150 0.2565 0.0000
vt 0.1968 0.2570 0.0000
vt 0.1967 0.2361 0.0000
vt 0.3149 0.2833 0.0000
vt 0.1969 0.2819 0.0000
vt 0.3146 0.3101 0.0000
vt 0.1964 0.3068 0.0000
vt 0.3144 0.3331 0.0000
vt 0.1959 0.3276 0.0000
vt 0.3151 0.8343 0.0000
vt 0.3151 0.8601 0.0000
vt 0.1990 0.9141 0.0000
vt 0.1990 0.8929 0.0000
vt 0.3152 0.8829 0.0000
vt 0.1991 0.9319 0.0000
vt 0.3084 0.5021 0.0000
vt 0.3085 0.5222 0.0000
vt 0.1905 0.5287 0.0000
vt 0.1904 0.5107 0.0000
vt 0.0762 0.5704 0.0000
vt 0.0761 0.5539 0.0000
vt 0.0763 0.5835 0.0000
vt 0.0852 0.1170 0.0000
vt 0.0851 0.1090 0.0000
vt 0.0851 0.1254 0.0000
vt 0.0795 0.2633 0.0000
vt 0.0796 0.2500 0.0000
vt 0.0794 0.2803 0.0000
vt 0.0791 0.2973 0.0000
vt 0.0788 0.3106 0.0000
vt 0.0838 0.9197 0.0000
vt 0.0838 0.9112 0.0000
vt 0.0838 0.9276 0.0000
vt 0.0758 0.5377 0.0000
vt 0.0755 0.5246 0.0000
vt 0.0005 0.5515 0.0000
vt 0.0028 0.1123 0.0000
vt 0.0028 0.2834 0.0000
vt 0.0028 0.9233 0.0000
vt 0.4057 0.5964 0.0000
vt 0.4057 0.5747 0.0000
vt 0.4135 0.1419 0.0000
vt 0.4134 0.1187 0.0000
vt 0.4135 0.1681 0.0000
vt 0.4104 0.2551 0.0000
vt 0.4108 0.2307 0.0000
vt 0.4099 0.2845 0.0000
vt 0.4100 0.3140 0.0000
vt 0.4101 0.3384 0.0000
vt 0.4102 0.8886 0.0000
vt 0.4102 0.8627 0.0000
vt 0.4103 0.9117 0.0000
vt 0.4052 0.5178 0.0000
vt 0.4049 0.4961 0.0000
vt 0.4056 0.5459 0.0000
vt 0.9821 0.8334 0.0000
vt 0.9572 0.8419 0.0000
vt 0.9167 0.7448 0.0000
vt 0.9281 0.7236 0.0000
vt 0.8310 0.7964 0.0000
vt 0.8282 0.8220 0.0000
vt 0.7806 0.7789 0.0000
vt 0.7860 0.7535 0.0000
vt 0.8277 0.8501 0.0000
vt 0.7817 0.8094 0.0000
vt 0.1654 0.6212 0.0000
vt 0.1903 0.6296 0.0000
vt 0.1382 0.7403 0.0000
vt 0.1238 0.7180 0.0000
vt 0.5734 0.7107 0.0000
vt 0.5731 0.7403 0.0000
vt 0.5180 0.7422 0.0000
vt 0.5153 0.7129 0.0000
vt 0.5738 0.7697 0.0000
vt 0.5142 0.7724 0.0000
vt 0.8347 0.7094 0.0000
vt 0.7027 0.7147 0.0000
vt 0.0434 0.7545 0.0000
vt 0.4190 0.7541 0.0000
# 220 texture coords

o Tree
g Tree
usemtl wire_006135058
s 8
f 1/1/1 2/2/2 3/3/3 
f 3/3/3 4/4/4 1/1/1 
f 2/2/2 5/5/5 6/6/6 
f 6/6/6 3/3/3 2/2/2 
f 5/7/5 7/8/7 8/9/8 
f 8/9/8 6/10/6 5/7/5 
f 7/8/7 9/11/9 10/12/10 
f 10/12/10 8/9/8 7/8/7 
f 9/13/9 11/14/11 12/15/12 
f 12/15/12 10/16/10 9/13/9 
f 11/14/11 13/17/13 14/18/14 
f 14/18/14 12/15/12 11/14/11 
f 13/17/13 15/19/15 16/20/16 
f 16/20/16 14/18/14 13/17/13 
f 15/19/15 17/21/17 18/22/18 
f 18/22/18 16/20/16 15/19/15 
f 17/23/17 19/24/19 20/25/20 
f 20/25/20 18/26/18 17/23/17 
f 19/24/19 21/27/21 22/28/22 
f 22/28/22 20/25/20 19/24/19 
f 21/29/21 23/30/23 24/31/24 
f 24/31/24 22/32/22 21/29/21 
f 23/30/23 1/1/1 4/4/4 
f 4/4/4 24/31/24 23/30/23 
f 4/4/4 3/3/3 25/33/25 
f 25/33/25 26/34/26 4/4/4 
f 3/3/3 6/6/6 27/35/27 
f 27/35/27 25/33/25 3/3/3 
f 6/10/6 8/9/8 28/36/28 
f 28/36/28 27/37/27 6/10/6 
f 8/9/8 10/12/10 29/38/29 
f 29/38/29 28/36/28 8/9/8 
f 10/16/10 12/15/12 30/39/30 
f 30/39/30 29/40/29 10/16/10 
f 12/15/12 14/18/14 31/41/31 
f 31/41/31 30/39/30 12/15/12 
f 14/18/14 16/20/16 32/42/32 
f 32/42/32 31/41/31 14/18/14 
f 16/20/16 18/22/18 33/43/33 
f 33/43/33 32/42/32 16/20/16 
f 18/26/18 20/25/20 34/44/34 
f 34/44/34 33/45/33 18/26/18 
f 20/25/20 22/28/22 35/46/35 
f 35/46/35 34/44/34 20/25/20 
f 22/32/22 24/31/24 36/47/36 
f 36/47/36 35/48/35 22/32/22 
f 24/31/24 4/4/4 26/34/26 
f 26/34/26 36/47/36 24/31/24 
f 26/34/26 25/33/25 37/49/37 
f 37/49/37 38/50/38 26/34/26 
f 25/33/25 27/35/27 39/51/39 
f 39/51/39 37/49/37 25/33/25 
f 27/37/27 28/36/28 40/52/40 
f 40/52/40 39/53/39 27/37/27 
f 28/36/28 29/38/29 41/54/41 
f 41/54/41 40/52/40 28/36/28 
f 29/40/29 30/39/30 42/55/42 
f 42/55/42 41/56/41 29/40/29 
f 30/39/30 31/41/31 43/57/43 
f 43/57/43 42/55/42 30/39/30 
f 31/41/31 32/42/32 44/58/44 
f 44/58/44 43/57/43 31/41/31 
f 32/42/32 33/43/33 45/59/45 
f 45/59/45 44/58/44 32/42/32 
f 33/45/33 34/44/34 46/60/46 
f 46/60/46 45/61/45 33/45/33 
f 34/44/34 35/46/35 47/62/47 
f 47/62/47 46/60/46 34/44/34 
f 35/48/35 36/47/36 48/63/48 
f 48/63/48 47/64/47 35/48/35 
f 36/47/36 26/34/26 38/50/38 
f 38/50/38 48/63/48 36/47/36 
f 38/50/38 37/49/37 49/65/49 
f 49/65/49 50/66/50 38/50/38 
f 37/49/37 39/51/39 51/67/51 
f 51/67/51 49/65/49 37/49/37 
f 39/53/39 40/52/40 52/68/52 
f 52/68/52 51/69/51 39/53/39 
f 40/52/40 41/54/41 53/70/53 
f 53/70/53 52/68/52 40/52/40 
f 41/56/41 42/55/42 54/71/54 
f 54/71/54 53/72/53 41/56/41 
f 42/55/42 43/57/43 55/73/55 
f 55/73/55 54/71/54 42/55/42 
f 43/57/43 44/58/44 56/74/56 
f 56/74/56 55/73/55 43/57/43 
f 44/58/44 45/59/45 57/75/57 
f 57/75/57 56/74/56 44/58/44 
f 45/61/45 46/60/46 58/76/58 
f 58/76/58 57/77/57 45/61/45 
f 46/60/46 47/62/47 59/78/59 
f 59/78/59 58/76/58 46/60/46 
f 47/64/47 48/63/48 60/79/60 
f 60/79/60 59/80/59 47/64/47 
f 48/63/48 38/50/38 50/66/50 
f 50/66/50 60/79/60 48/63/48 
f 50/66/50 49/65/49 61/81/61 
f 61/81/61 62/82/62 50/66/50 
f 49/65/49 51/67/51 63/83/63 
f 63/83/63 61/81/61 49/65/49 
f 51/69/51 52/68/52 64/84/64 
f 64/84/64 63/85/63 51/69/51 
f 52/68/52 53/70/53 65/86/65 
f 65/86/65 64/84/64 52/68/52 
f 53/72/53 54/71/54 66/87/66 
f 66/87/66 65/88/65 53/72/53 
f 54/71/54 55/73/55 67/89/67 
f 67/89/67 66/87/66 54/71/54 
f 55/73/55 56/74/56 68/90/68 
f 68/90/68 67/89/67 55/73/55 
f 56/74/56 57/75/57 69/91/69 
f 69/91/69 68/90/68 56/74/56 
f 57/77/57 58/76/58 70/92/70 
f 70/92/70 69/93/69 57/77/57 
f 58/76/58 59/78/59 71/94/71 
f 71/94/71 70/92/70 58/76/58 
f 59/80/59 60/79/60 72/95/72 
f 72/95/72 71/96/71 59/80/59 
f 60/79/60 50/66/50 62/82/62 
f 62/82/62 72/95/72 60/79/60 
f 62/82/62 61/81/61 73/97/73 
f 73/97/73 74/98/74 62/82/62 
f 61/81/61 63/83/63 75/99/75 
f 75/99/75 73/97/73 61/81/61 
f 63/85/63 64/84/64 76/100/76 
f 76/100/76 75/101/75 63/85/63 
f 64/84/64 65/86/65 77/102/77 
f 77/102/77 76/100/76 64/84/64 
f 65/88/65 66/87/66 78/103/78 
f 78/103/78 77/104/77 65/88/65 
f 66/87/66 67/89/67 79/105/79 
f 79/105/79 78/103/78 66/87/66 
f 67/89/67 68/90/68 80/106/80 
f 80/106/80 79/105/79 67/89/67 
f 68/90/68 69/91/69 81/107/81 
f 81/107/81 80/106/80 68/90/68 
f 69/93/69 70/92/70 82/108/82 
f 82/108/82 81/109/81 69/93/69 
f 70/92/70 71/94/71 83/110/83 
f 83/110/83 82/108/82 70/92/70 
f 71/96/71 72/95/72 84/111/84 
f 84/111/84 83/112/83 71/96/71 
f 72/95/72 62/82/62 74/98/74 
f 74/98/74 84/111/84 72/95/72 
f 73/97/73 85/113/85 86/114/86 
f 86/114/86 74/98/74 73/97/73 
f 75/99/75 87/115/87 85/113/85 
f 85/113/85 73/97/73 75/99/75 
f 76/100/76 88/116/88 87/117/87 
f 87/117/87 75/101/75 76/100/76 
f 77/102/77 89/118/89 88/116/88 
f 88/116/88 76/100/76 77/102/77 
f 78/103/78 90/119/90 89/120/89 
f 89/120/89 77/104/77 78/103/78 
f 79/105/79 91/121/91 90/119/90 
f 90/119/90 78/103/78 79/105/79 
f 80/106/80 92/122/92 91/121/91 
f 91/121/91 79/105/79 80/106/80 
f 81/107/81 93/123/93 92/122/92 
f 92/122/92 80/106/80 81/107/81 
f 81/109/81 82/108/82 94/124/94 
f 94/124/94 93/125/93 81/109/81 
f 82/108/82 83/110/83 95/126/95 
f 95/126/95 94/124/94 82/108/82 
f 83/112/83 84/111/84 96/127/96 
f 96/127/96 95/128/95 83/112/83 
f 84/111/84 74/98/74 86/114/86 
f 86/114/86 96/127/96 84/111/84 
f 97/129/97 98/130/98 99/131/99 
f 99/131/99 100/132/100 97/129/97 
f 98/130/98 101/133/101 102/134/102 
f 102/134/102 99/131/99 98/130/98 
f 101/135/101 103/136/103 104/137/104 
f 104/137/104 102/138/102 101/135/101 
f 103/136/103 105/139/105 106/140/106 
f 106/140/106 104/137/104 103/136/103 
f 105/141/105 107/142/107 108/143/108 
f 108/143/108 106/144/106 105/141/105 
f 107/142/107 109/145/109 110/146/110 
f 110/146/110 108/143/108 107/142/107 
f 109/145/109 111/147/111 112/148/112 
f 112/148/112 110/146/110 109/145/109 
f 111/147/111 113/149/113 114/150/114 
f 114/150/114 112/148/112 111/147/111 
f 113/151/113 115/152/115 116/153/116 
f 116/153/116 114/154/114 113/151/113 
f 115/152/115 117/155/117 118/156/118 
f 118/156/118 116/153/116 115/152/115 
f 117/157/117 119/158/119 120/159/120 
f 120/159/120 118/160/118 117/157/117 
f 119/158/119 97/129/97 100/132/100 
f 100/132/100 120/159/120 119/158/119 
f 100/132/100 99/131/99 121/161/121 
f 121/161/121 122/162/122 100/132/100 
f 99/131/99 102/134/102 123/163/123 
f 123/163/123 121/161/121 99/131/99 
f 102/138/102 104/137/104 124/164/124 
f 124/164/124 123/165/123 102/138/102 
f 104/137/104 106/140/106 125/166/125 
f 125/166/125 124/164/124 104/137/104 
f 106/144/106 108/143/108 126/167/126 
f 126/167/126 125/168/125 106/144/106 
f 108/143/108 110/146/110 127/169/127 
f 127/169/127 126/167/126 108/143/108 
f 110/146/110 112/148/112 128/170/128 
f 128/170/128 127/169/127 110/146/110 
f 112/148/112 114/150/114 129/171/129 
f 129/171/129 128/170/128 112/148/112 
f 114/154/114 116/153/116 130/172/130 
f 130/172/130 129/173/129 114/154/114 
f 116/153/116 118/156/118 131/174/131 
f 131/174/131 130/172/130 116/153/116 
f 118/160/118 120/159/120 132/175/132 
f 132/175/132 131/176/131 118/160/118 
f 120/159/120 100/132/100 122/162/122 
f 122/162/122 132/175/132 120/159/120 
f 122/162/122 121/161/121 133/177/133 
f 121/161/121 123/163/123 133/177/133 
f 123/165/123 124/164/124 133/178/133 
f 124/164/124 125/166/125 133/178/133 
f 125/168/125 126/167/126 133/179/133 
f 126/167/126 127/169/127 133/179/133 
f 127/169/127 128/170/128 133/179/133 
f 128/170/128 129/171/129 133/179/133 
f 129/173/129 130/172/130 133/180/133 
f 130/172/130 131/174/131 133/180/133 
f 131/176/131 132/175/132 133/177/133 
f 132/175/132 122/162/122 133/177/133 
f 134/181/134 135/182/135 85/113/85 
f 85/113/85 87/115/87 134/181/134 
f 88/116/88 136/183/136 134/184/134 
f 134/184/134 87/117/87 88/116/88 
f 89/118/89 137/185/137 136/183/136 
f 136/183/136 88/116/88 89/118/89 
f 90/119/90 138/186/138 137/187/137 
f 137/187/137 89/120/89 90/119/90 
f 91/121/91 139/188/139 138/186/138 
f 138/186/138 90/119/90 91/121/91 
f 140/189/140 139/188/139 91/121/91 
f 91/121/91 92/122/92 140/189/140 
f 141/190/141 140/189/140 92/122/92 
f 92/122/92 93/123/93 141/190/141 
f 142/191/142 141/192/141 93/125/93 
f 93/125/93 94/124/94 142/191/142 
f 143/193/143 142/191/142 94/124/94 
f 94/124/94 95/126/95 143/193/143 
f 144/194/144 143/195/143 95/128/95 
f 95/128/95 96/127/96 144/194/144 
f 98/130/98 97/129/97 145/196/145 
f 145/196/145 135/182/135 98/130/98 
f 101/133/101 98/130/98 135/182/135 
f 135/182/135 134/181/134 101/133/101 
f 136/183/136 103/136/103 101/135/101 
f 101/135/101 134/184/134 136/183/136 
f 137/185/137 105/139/105 103/136/103 
f 103/136/103 136/183/136 137/185/137 
f 138/186/138 107/142/107 105/141/105 
f 105/141/105 137/187/137 138/186/138 
f 139/188/139 109/145/109 107/142/107 
f 107/142/107 138/186/138 139/188/139 
f 111/147/111 109/145/109 139/188/139 
f 139/188/139 140/189/140 111/147/111 
f 113/149/113 111/147/111 140/189/140 
f 140/189/140 141/190/141 113/149/113 
f 115/152/115 113/151/113 141/192/141 
f 141/192/141 142/191/142 115/152/115 
f 117/155/117 115/152/115 142/191/142 
f 142/191/142 143/193/143 117/155/117 
f 119/158/119 117/157/117 143/195/143 
f 143/195/143 144/194/144 119/158/119 
f 97/129/97 119/158/119 144/194/144 
f 144/194/144 145/196/145 97/129/97 
f 85/197/85 135/198/135 146/199/146 
f 146/199/146 147/200/147 85/197/85 
f 135/201/135 145/202/145 148/203/148 
f 148/203/148 146/204/146 135/201/135 
f 145/202/145 144/205/144 149/206/149 
f 149/206/149 148/203/148 145/202/145 
f 144/207/144 96/208/96 150/209/150 
f 150/209/150 149/210/149 144/207/144 
f 96/211/96 86/212/86 151/213/151 
f 151/213/151 150/214/150 96/211/96 
f 86/212/86 85/215/85 147/216/147 
f 147/216/147 151/213/151 86/212/86 
f 147/200/147 146/199/146 152/217/152 
f 146/204/146 148/203/148 152/218/152 
f 148/203/148 149/206/149 152/218/152 
f 149/210/149 150/209/150 152/219/152 
f 150/214/150 151/213/151 152/220/152 
f 151/213/151 147/216/147 152/220/152 
# 290 faces

