# 3ds Max Wavefront OBJ Exporter v0.97b - (c)2007 guruware
# File Created: 14.06.2018 12:54:46

mtllib Rock_01.mtl

#
# object Cylinder001
#

v  59.3152 0.0000 -4.8048
v  47.3640 0.0000 -41.5870
v  40.4509 20.0000 -29.3893
v  50.0000 20.0000 -0.0000
v  16.0752 0.0000 -64.3196
v  11.3324 20.0000 -57.3335
v  -29.4266 0.0000 -64.3196
v  -25.0240 20.0000 -57.3335
v  -63.5369 0.0000 -41.5870
v  -52.2784 20.0000 -29.3893
v  -75.4881 0.0000 -4.8048
v  -61.8276 20.0000 0.0000
v  -63.5369 0.0000 31.9773
v  -52.2784 20.0000 29.3893
v  -29.4266 0.0000 54.7099
v  -25.0240 20.0000 47.5528
v  16.0752 0.0000 54.7099
v  11.3324 20.0000 47.5528
v  47.3640 0.0000 31.9773
v  40.4509 20.0000 29.3892
v  40.6332 41.3386 -29.3051
v  50.1460 39.6063 0.0448
v  11.4093 43.0339 -57.1704
v  -24.8294 40.3509 -57.4051
v  -51.9888 36.5973 -29.7199
v  -61.5016 33.2067 -0.5150
v  -51.6832 27.9954 28.5306
v  -24.5239 28.5830 46.8149
v  11.4093 34.7449 47.3540
v  40.4327 38.4986 29.4494
v  23.3525 88.2830 -0.0359
v  18.8926 88.3290 -17.0117
v  -6.2804 88.9870 -5.0323
v  16.2455 94.9855 -17.6749
v  2.5987 94.9855 -33.7888
v  -0.2630 97.2533 -13.4330
v  -16.2372 94.9855 -33.8077
v  -12.7589 97.2533 -14.0673
v  -28.2166 94.9855 -17.7078
v  -30.7201 88.3290 -17.0117
v  -35.1801 88.2830 -0.0359
v  -30.7201 85.8995 13.4818
v  -16.7895 84.4264 21.8362
v  3.0978 84.4264 21.8362
v  18.8926 85.8995 13.4818
v  47.2762 44.1204 0.4398
v  38.2322 45.7674 -27.4639
v  30.4727 44.5979 -21.8854
v  37.6849 43.2845 0.3666
v  10.4361 45.2088 -54.6279
v  7.4722 44.1524 -45.5286
v  -24.2857 42.6580 -54.8510
v  -21.3218 42.1182 -45.7066
v  -50.2178 39.0893 -28.0481
v  -42.4582 39.2724 -22.3514
v  -59.2618 35.8658 -0.2824
v  -49.6705 36.7018 -0.2093
v  -50.2178 34.2189 27.6213
v  -42.4582 35.3884 22.0428
v  -24.2857 34.7774 45.0046
v  -21.3218 35.8338 35.9053
v  10.4361 37.3282 45.2278
v  7.4722 37.8680 36.0833
v  38.2322 40.8969 28.2055
v  30.4727 40.7139 22.5087
v  30.9857 63.3949 -22.1804
v  38.2280 67.2532 0.0354
v  7.7215 61.0182 -45.7463
v  -21.4186 61.0141 -45.7224
v  -42.7622 63.3883 -22.1760
v  -50.0014 67.2465 -0.0165
v  -42.6836 71.1126 22.0861
v  -21.3588 73.5049 35.7410
v  7.6609 73.5073 35.7661
v  30.8758 71.1184 22.1467
v  35.4443 69.6959 0.0000
v  28.6750 66.0782 -20.5171
v  20.8859 67.0609 -14.9439
v  25.8164 69.6959 0.0000
v  6.8344 63.8423 -42.9781
v  3.8592 65.4324 -33.9605
v  -20.5260 63.8423 -42.9781
v  -17.5508 65.4324 -33.9605
v  -40.5026 66.0782 -20.5171
v  -32.7135 67.0609 -14.9439
v  -47.2719 69.6959 0.0000
v  -37.6440 69.6959 0.0000
v  -40.5026 73.3137 20.5171
v  -32.7135 72.3310 14.9440
v  -20.5260 75.5495 33.1974
v  -17.5508 73.9595 24.1798
v  6.8344 75.5495 33.1974
v  3.8592 73.9595 24.1798
v  28.6750 73.3137 20.5171
v  20.8859 72.3310 14.9439
v  20.8859 85.8981 -18.0581
v  25.8164 85.8191 -0.0359
v  3.8592 85.8960 -37.2302
v  -17.5508 85.8960 -37.2302
v  -32.7135 85.8981 -18.0581
v  -37.6440 85.8191 -0.0359
v  -32.7135 83.1843 14.9429
v  -17.5508 81.5564 24.2066
v  3.8592 81.5564 24.2066
v  20.8859 83.1843 14.9429
v  3.0978 88.3290 -35.2757
v  -16.7895 88.3290 -35.2757
v  18.8926 93.4171 -17.0117
v  -6.2804 93.4171 -6.4456
v  3.0978 93.4171 -35.2757
v  -16.7895 93.4171 -35.2757
v  -30.7201 93.4171 -17.0117
# 112 vertices

vn 0.9028 0.4287 -0.0340
vn 0.7014 0.5029 -0.5051
vn 0.7477 0.5145 -0.4198
vn 0.9096 0.4132 0.0437
vn 0.3031 0.3775 -0.8750
vn 0.2794 0.4085 -0.8690
vn -0.3316 0.4332 -0.8381
vn -0.3446 0.3763 -0.8600
vn -0.6070 0.6340 -0.4792
vn -0.6723 0.5919 -0.4445
vn -0.8224 0.5683 -0.0273
vn -0.8294 0.5573 0.0382
vn -0.7222 0.4720 0.5056
vn -0.6809 0.4573 0.5721
vn -0.2829 0.3778 0.8816
vn -0.2506 0.3746 0.8927
vn 0.2853 0.3627 0.8872
vn 0.2343 0.3763 0.8964
vn 0.7709 0.3365 0.5408
vn 0.7393 0.3520 0.5741
vn 1.0000 -0.0076 -0.0003
vn 0.8460 -0.0041 -0.5332
vn 0.8428 -0.0050 -0.5383
vn 0.9999 -0.0061 -0.0080
vn 0.3738 0.0035 -0.9275
vn 0.3806 0.0043 -0.9247
vn -0.3899 -0.0003 -0.9209
vn -0.3626 0.0024 -0.9319
vn -0.8579 0.0049 -0.5138
vn -0.8457 0.0051 -0.5337
vn -0.9994 0.0312 0.0153
vn -0.9993 0.0234 -0.0290
vn -0.7880 0.1211 0.6037
vn -0.8064 0.1132 0.5804
vn -0.3040 0.0898 0.9484
vn -0.2829 0.1005 0.9539
vn 0.2718 0.0098 0.9623
vn 0.2964 0.0167 0.9549
vn 0.7872 -0.0027 0.6167
vn 0.7959 0.0003 0.6055
vn 0.0244 0.9997 -0.0037
vn 0.1116 0.9892 -0.0945
vn 0.0416 0.9936 -0.1048
vn 0.0480 0.9933 -0.1055
vn -0.0444 0.9935 -0.1049
vn -0.0448 0.9933 -0.1062
vn -0.1233 0.9881 -0.0918
vn -0.0250 0.9997 -0.0039
vn 0.0057 0.9851 0.1718
vn 0.0032 0.9857 0.1685
vn 0.0000 0.9859 0.1673
vn -0.0029 0.9857 0.1683
vn -0.0056 0.9851 0.1719
vn -0.0872 0.9924 0.0868
vn -0.0922 0.9924 0.0811
vn -0.0914 0.9925 0.0810
vn -0.0851 0.9926 0.0865
vn -0.0859 0.9925 0.0866
vn -0.0653 0.9948 0.0779
vn -0.0614 0.9949 0.0794
vn -0.0784 0.9941 0.0748
vn -0.0781 0.9940 0.0769
vn -0.0846 0.9924 0.0895
vn -0.0847 0.9923 0.0902
vn -0.0762 0.9931 0.0895
vn -0.0759 0.9930 0.0910
vn -0.0746 0.9938 0.0820
vn -0.0736 0.9938 0.0833
vn -0.0838 0.9931 0.0822
vn -0.0831 0.9931 0.0824
vn 0.8569 -0.0285 -0.5146
vn 0.8644 -0.0315 -0.5018
vn 0.9990 -0.0231 0.0373
vn 0.9996 -0.0196 0.0212
vn 0.3778 -0.0151 -0.9258
vn 0.3985 -0.0197 -0.9170
vn -0.4222 -0.0029 -0.9065
vn -0.4140 -0.0051 -0.9103
vn -0.8709 -0.0070 -0.4914
vn -0.8739 -0.0075 -0.4861
vn -0.9998 -0.0109 0.0146
vn -0.9993 -0.0092 0.0370
vn -0.7910 -0.0075 0.6117
vn -0.7726 -0.0029 0.6349
vn -0.2949 0.0014 0.9555
vn -0.2744 0.0053 0.9616
vn 0.2448 0.0059 0.9696
vn 0.2559 0.0069 0.9667
vn 0.7607 -0.0019 0.6491
vn 0.7606 -0.0044 0.6492
vn 0.8448 0.5330 0.0466
vn 0.8385 0.5436 0.0370
vn 0.7148 0.5611 -0.4174
vn 0.7151 0.5661 -0.4100
vn 0.2100 0.7733 -0.5983
vn 0.2132 0.7812 -0.5868
vn -0.3117 0.7373 -0.5994
vn -0.3378 0.7339 -0.5893
vn -0.6585 0.6809 -0.3206
vn -0.6664 0.6795 -0.3069
vn -0.7652 0.6355 0.1031
vn -0.7796 0.6192 0.0941
vn -0.7533 0.2796 0.5953
vn -0.7656 0.2665 0.5855
vn -0.3204 0.2764 0.9061
vn -0.3126 0.2881 0.9052
vn 0.1385 0.6418 0.7542
vn 0.1361 0.6592 0.7396
vn 0.5159 0.7173 0.4683
vn 0.5164 0.7049 0.4862
vn 0.0000 0.9848 -0.1736
vn 0.0230 0.9885 -0.1492
vn 0.0185 0.9887 -0.1485
vn -0.0000 0.9848 -0.1736
vn 0.0270 0.9859 -0.1650
vn 0.0290 0.9866 -0.1608
vn -0.0296 0.9868 -0.1593
vn -0.0423 0.9862 -0.1599
vn -0.0180 0.9886 -0.1492
vn -0.0189 0.9879 -0.1542
vn 0.9997 -0.0146 -0.0178
vn 0.8681 -0.0802 -0.4899
vn 0.8620 -0.0729 -0.5017
vn 1.0000 -0.0001 0.0081
vn 0.4152 -0.1435 -0.8983
vn 0.3917 -0.1459 -0.9085
vn -0.4411 -0.1424 -0.8861
vn -0.4151 -0.1435 -0.8984
vn -0.8876 -0.0634 -0.4562
vn -0.8817 -0.0761 -0.4657
vn -0.9994 -0.0002 -0.0345
vn -0.9999 -0.0133 -0.0042
vn -0.8013 -0.0003 0.5983
vn -0.8015 0.0003 0.5980
vn -0.2778 -0.0034 0.9606
vn -0.2778 -0.0028 0.9606
vn 0.2530 -0.0029 0.9675
vn 0.2530 -0.0034 0.9675
vn 0.7867 0.0003 0.6173
vn 0.7869 -0.0003 0.6171
vn 0.7066 0.7040 0.0714
vn 0.7043 0.7047 0.0861
vn 0.6461 0.6811 -0.3445
vn 0.6488 0.6773 -0.3469
vn 0.3082 0.6555 -0.6895
vn 0.3245 0.6520 -0.6853
vn -0.3225 0.6521 -0.6861
vn -0.3433 0.6541 -0.6740
vn -0.6603 0.6761 -0.3270
vn -0.6581 0.6807 -0.3217
vn -0.7058 0.7029 0.0881
vn -0.7050 0.7053 0.0742
vn -0.5148 0.6673 0.5383
vn -0.5285 0.6704 0.5208
vn -0.1718 0.6526 0.7380
vn -0.1728 0.6541 0.7364
vn 0.1595 0.6535 0.7400
vn 0.1579 0.6516 0.7419
vn 0.5011 0.6680 0.5501
vn 0.5142 0.6672 0.5389
vn 0.6554 0.7470 -0.1120
vn 0.6548 0.7428 -0.1398
vn 0.5294 0.7260 -0.4389
vn 0.5425 0.7264 -0.4219
vn 0.2334 0.7185 -0.6552
vn 0.2638 0.7161 -0.6463
vn -0.2445 0.7141 -0.6560
vn -0.2784 0.7139 -0.6425
vn -0.5467 0.7197 -0.4280
vn -0.5599 0.7209 -0.4085
vn -0.6597 0.7380 -0.1420
vn -0.6639 0.7398 -0.1090
vn -0.5684 0.7703 0.2891
vn -0.5483 0.7726 0.3201
vn -0.2127 0.7939 0.5697
vn -0.1978 0.7947 0.5738
vn 0.1994 0.7972 0.5699
vn 0.1838 0.7968 0.5755
vn 0.5546 0.7776 0.2963
vn 0.5320 0.7797 0.3303
vn -0.0263 0.2861 0.9579
vn 0.9807 -0.0000 0.1956
vn 0.9779 0.0244 0.2075
vn -0.0310 0.2876 0.9573
vn 0.4159 -0.0000 -0.9094
vn -0.4436 0.0000 -0.8962
vn -0.9704 0.0244 0.2403
vn -0.9675 -0.0000 0.2528
vn -0.0236 0.8848 0.4654
vn 0.2639 0.7314 0.6288
vn 0.2641 0.7180 0.6440
vn 0.5348 0.7071 -0.4625
vn 0.5799 0.6501 -0.4911
vn 0.0000 0.6880 -0.7257
vn 0.0007 0.6832 -0.7302
vn -0.6065 0.6466 -0.4626
vn -0.5629 0.7126 -0.4188
vn -0.2749 0.7211 0.6360
vn -0.2524 0.7610 0.5976
# 199 vertex normals

vt 0.0005 0.3053 0.0000
vt 0.0053 0.1523 0.0000
vt 0.0951 0.1914 0.0000
vt 0.0928 0.3201 0.0000
vt 0.0492 0.0054 0.0000
vt 0.1272 0.0303 0.0000
vt 0.6384 0.0005 0.0000
vt 0.8200 0.0131 0.0000
vt 0.7961 0.0962 0.0000
vt 0.6514 0.0863 0.0000
vt 0.9775 0.0588 0.0000
vt 0.9397 0.1553 0.0000
vt 0.5185 0.3781 0.0000
vt 0.3620 0.3759 0.0000
vt 0.3620 0.2766 0.0000
vt 0.4866 0.2789 0.0000
vt 0.2164 0.3193 0.0000
vt 0.2462 0.2311 0.0000
vt 0.5519 0.1829 0.0000
vt 0.3889 0.1824 0.0000
vt 0.3898 0.0943 0.0000
vt 0.5210 0.0961 0.0000
vt 0.2115 0.1467 0.0000
vt 0.2464 0.0688 0.0000
vt 0.5770 0.6147 0.0000
vt 0.4225 0.6119 0.0000
vt 0.4401 0.5288 0.0000
vt 0.5771 0.5278 0.0000
vt 0.0235 0.4571 0.0000
vt 0.1092 0.4455 0.0000
vt 0.1791 0.1992 0.0000
vt 0.1720 0.3183 0.0000
vt 0.2121 0.0442 0.0000
vt 0.7901 0.1768 0.0000
vt 0.6452 0.1787 0.0000
vt 0.6436 0.2745 0.0000
vt 0.4892 0.2162 0.0000
vt 0.6431 0.1900 0.0000
vt 0.3659 0.2231 0.0000
vt 0.6439 0.0881 0.0000
vt 0.5219 0.0638 0.0000
vt 0.6423 0.0355 0.0000
vt 0.3922 0.0587 0.0000
vt 0.2553 0.0123 0.0000
vt 0.4398 0.4550 0.0000
vt 0.5760 0.4689 0.0000
vt 0.1877 0.4390 0.0000
vt 0.7896 0.9653 0.0000
vt 0.7218 0.9476 0.0000
vt 0.7695 0.8470 0.0000
vt 0.6032 0.5391 0.0000
vt 0.6336 0.4598 0.0000
vt 0.6728 0.5319 0.0000
vt 0.7027 0.4323 0.0000
vt 0.7188 0.5108 0.0000
vt 0.7710 0.4732 0.0000
vt 0.7219 0.7493 0.0000
vt 0.7897 0.7317 0.0000
vt 0.8445 0.7495 0.0000
vt 0.8783 0.8051 0.0000
vt 0.8783 0.8845 0.0000
vt 0.8444 0.9475 0.0000
vt 0.0594 0.9426 0.0000
vt 0.0054 0.8386 0.0000
vt 0.0429 0.8321 0.0000
vt 0.0862 0.9153 0.0000
vt 0.0070 0.6833 0.0000
vt 0.0416 0.7004 0.0000
vt 0.1051 0.5844 0.0000
vt 0.1230 0.6187 0.0000
vt 0.2550 0.5865 0.0000
vt 0.2493 0.6245 0.0000
vt 0.3600 0.6394 0.0000
vt 0.3330 0.6667 0.0000
vt 0.4137 0.7439 0.0000
vt 0.3758 0.7500 0.0000
vt 0.3894 0.8663 0.0000
vt 0.3551 0.8489 0.0000
vt 0.2914 0.9649 0.0000
vt 0.2738 0.9307 0.0000
vt 0.1641 0.9953 0.0000
vt 0.1698 0.9573 0.0000
vt 0.9788 0.3437 0.0000
vt 0.9037 0.3443 0.0000
vt 0.8882 0.2510 0.0000
vt 0.9839 0.2504 0.0000
vt 0.9826 0.4754 0.0000
vt 0.9152 0.4763 0.0000
vt 0.9914 0.8603 0.0000
vt 0.9995 0.9752 0.0000
vt 0.9241 0.9756 0.0000
vt 0.9241 0.8592 0.0000
vt 0.7978 0.6427 0.0000
vt 0.7864 0.5170 0.0000
vt 0.8827 0.5156 0.0000
vt 0.8732 0.6425 0.0000
vt 0.7758 0.4240 0.0000
vt 0.8978 0.4225 0.0000
vt 0.6215 0.4321 0.0000
vt 0.6219 0.2895 0.0000
vt 0.7148 0.3051 0.0000
vt 0.7149 0.4270 0.0000
vt 0.5207 0.4306 0.0000
vt 0.5207 0.2802 0.0000
vt 0.8641 0.3119 0.0000
vt 0.7218 0.3126 0.0000
vt 0.7218 0.1968 0.0000
vt 0.8722 0.1969 0.0000
vt 0.8524 0.4184 0.0000
vt 0.7310 0.4201 0.0000
vt 0.8740 0.1578 0.0000
vt 0.9954 0.1575 0.0000
vt 0.1924 0.3182 0.0000
vt 0.1968 0.2016 0.0000
vt 0.2220 0.0491 0.0000
vt 0.6487 0.1927 0.0000
vt 0.7876 0.1900 0.0000
vt 0.6343 0.1721 0.0000
vt 0.4875 0.2081 0.0000
vt 0.3687 0.2104 0.0000
vt 0.2468 0.1850 0.0000
vt 0.2604 0.1624 0.0000
vt 0.5198 0.0377 0.0000
vt 0.3957 0.0336 0.0000
vt 0.2613 0.0005 0.0000
vt 0.5751 0.4549 0.0000
vt 0.4449 0.4421 0.0000
vt 0.2081 0.4338 0.0000
vt 0.4069 0.8607 0.0000
vt 0.4307 0.7785 0.0000
vt 0.4627 0.7989 0.0000
vt 0.4443 0.8597 0.0000
vt 0.5111 0.6839 0.0000
vt 0.5269 0.7199 0.0000
vt 0.6230 0.6796 0.0000
vt 0.6129 0.7172 0.0000
vt 0.7075 0.7705 0.0000
vt 0.6751 0.7938 0.0000
vt 0.7316 0.8559 0.0000
vt 0.6943 0.8557 0.0000
vt 0.7063 0.9400 0.0000
vt 0.6756 0.9174 0.0000
vt 0.6277 0.9921 0.0000
vt 0.6156 0.9558 0.0000
vt 0.5192 0.9931 0.0000
vt 0.5308 0.9566 0.0000
vt 0.4329 0.9426 0.0000
vt 0.4635 0.9197 0.0000
vt 0.9293 0.6536 0.0000
vt 0.9186 0.5909 0.0000
vt 0.9939 0.5788 0.0000
vt 0.9937 0.6534 0.0000
vt 0.9083 0.4893 0.0000
vt 0.9900 0.4765 0.0000
vt 0.4092 0.5059 0.0000
vt 0.4092 0.5914 0.0000
vt 0.3265 0.5914 0.0000
vt 0.3265 0.5059 0.0000
vt 0.2242 0.3636 0.0000
vt 0.3210 0.3730 0.0000
vt 0.3090 0.4483 0.0000
vt 0.2115 0.4454 0.0000
vt 0.3838 0.3836 0.0000
vt 0.3836 0.4480 0.0000
vt 0.4466 0.3941 0.0000
vt 0.4466 0.4375 0.0000
vt 0.0054 0.4569 0.0000
vt 0.0763 0.4634 0.0000
vt 0.0763 0.4938 0.0000
vt 0.0054 0.5002 0.0000
vt 0.1618 0.4634 0.0000
vt 0.1618 0.4938 0.0000
vt 0.2391 0.4569 0.0000
vt 0.2392 0.5002 0.0000
vt 0.9398 0.7164 0.0000
vt 0.9832 0.7164 0.0000
vt 0.1796 0.5308 0.0000
vt 0.1821 0.5445 0.0000
vt 0.1075 0.5436 0.0000
vt 0.1095 0.5305 0.0000
vt 0.0103 0.5115 0.0000
vt 0.0178 0.5010 0.0000
vt 0.3140 0.5090 0.0000
vt 0.3140 0.5884 0.0000
vt 0.4064 0.4912 0.0000
vt 0.4107 0.5037 0.0000
vt 0.3130 0.5037 0.0000
vt 0.3146 0.4908 0.0000
vt 0.2409 0.4842 0.0000
vt 0.2471 0.4719 0.0000
vt 0.9900 0.0124 0.0000
vt 0.9945 0.0255 0.0000
vt 0.9322 0.0396 0.0000
vt 0.9338 0.0250 0.0000
vt 0.8641 0.0185 0.0000
vt 0.8717 0.0054 0.0000
vt 0.0794 0.5086 0.0000
vt 0.1588 0.5086 0.0000
vt 0.0619 0.5414 0.0000
vt 0.0770 0.5403 0.0000
vt 0.0683 0.6174 0.0000
vt 0.0545 0.6126 0.0000
vt 0.2349 0.5148 0.0000
vt 0.2434 0.5267 0.0000
vt 0.3931 0.8604 0.0000
vt 0.4163 0.7694 0.0000
vt 0.5014 0.6679 0.0000
vt 0.9083 0.8628 0.0000
vt 0.9083 0.9720 0.0000
vt 0.8884 0.6371 0.0000
vt 0.8981 0.5171 0.0000
vt 0.7252 0.7624 0.0000
vt 0.7427 0.8552 0.0000
vt 0.7186 0.9457 0.0000
vt 0.9049 0.7786 0.0000
vt 0.9185 0.7758 0.0000
vt 0.9036 0.8763 0.0000
vt 0.8907 0.8724 0.0000
vt 0.8443 0.9758 0.0000
vt 0.8347 0.9662 0.0000
vt 0.0909 0.5621 0.0000
vt 0.0888 0.5488 0.0000
vt 0.1966 0.5452 0.0000
vt 0.1920 0.5584 0.0000
vt 0.4227 0.9487 0.0000
vt 0.5943 0.5501 0.0000
vt 0.7055 0.5545 0.0000
vt 0.7044 0.5747 0.0000
vt 0.5955 0.5687 0.0000
vt 0.7618 0.4961 0.0000
vt 0.7618 0.5925 0.0000
vt 0.7415 0.5925 0.0000
vt 0.7415 0.4961 0.0000
vt 0.2937 0.5884 0.0000
vt 0.2937 0.5090 0.0000
vt 0.3146 0.4706 0.0000
vt 0.4064 0.4708 0.0000
vt 0.0054 0.6245 0.0000
vt 0.0056 0.5157 0.0000
vt 0.0241 0.5178 0.0000
vt 0.0256 0.6241 0.0000
vt 0.7075 0.5522 0.0000
vt 0.6272 0.5929 0.0000
vt 0.6952 0.5832 0.0000
vt 0.5894 0.5429 0.0000
vt 0.6295 0.4552 0.0000
vt 0.2851 0.5110 0.0000
vt 0.2851 0.5862 0.0000
vt 0.4031 0.4626 0.0000
vt 0.3229 0.4618 0.0000
vt 0.0345 0.6159 0.0000
vt 0.0480 0.5533 0.0000
# 252 texture coords

o Cylinder001
g Cylinder001
usemtl wire_085028177
s 1
f 1/1/1 2/2/2 3/3/3 
f 3/3/3 4/4/4 1/1/1 
f 2/2/2 5/5/5 6/6/6 
f 6/6/6 3/3/3 2/2/2 
f 5/7/5 7/8/7 8/9/8 
f 8/9/8 6/10/6 5/7/5 
f 7/8/7 9/11/9 10/12/10 
f 10/12/10 8/9/8 7/8/7 
f 9/13/9 11/14/11 12/15/12 
f 12/15/12 10/16/10 9/13/9 
f 11/14/11 13/17/13 14/18/14 
f 14/18/14 12/15/12 11/14/11 
f 13/19/13 15/20/15 16/21/16 
f 16/21/16 14/22/14 13/19/13 
f 15/20/15 17/23/17 18/24/18 
f 18/24/18 16/21/16 15/20/15 
f 17/25/17 19/26/19 20/27/20 
f 20/27/20 18/28/18 17/25/17 
f 19/29/19 1/1/1 4/4/4 
f 4/4/4 20/30/20 19/29/19 
s 2
f 4/4/21 3/3/22 21/31/23 
f 21/31/23 22/32/24 4/4/21 
f 3/3/22 6/6/25 23/33/26 
f 23/33/26 21/31/23 3/3/22 
f 6/10/25 8/9/27 24/34/28 
f 24/34/28 23/35/26 6/10/25 
f 8/36/27 10/16/29 25/37/30 
f 25/37/30 24/38/28 8/36/27 
f 10/16/29 12/15/31 26/39/32 
f 26/39/32 25/37/30 10/16/29 
f 12/40/31 14/22/33 27/41/34 
f 27/41/34 26/42/32 12/40/31 
f 14/22/33 16/21/35 28/43/36 
f 28/43/36 27/41/34 14/22/33 
f 16/21/35 18/24/37 29/44/38 
f 29/44/38 28/43/36 16/21/35 
f 18/28/37 20/27/39 30/45/40 
f 30/45/40 29/46/38 18/28/37 
f 20/30/39 4/4/21 22/32/24 
f 22/32/24 30/47/40 20/30/39 
s off
f 31/48/41 32/49/41 33/50/41 
s 2048
f 34/51/42 35/52/43 36/53/44 
f 37/54/45 38/55/46 36/53/44 
f 36/53/44 35/52/43 37/54/45 
f 37/54/45 39/56/47 38/55/46 
s off
f 40/57/48 41/58/48 33/50/48 
f 41/58/49 42/59/49 33/50/49 
f 42/59/50 43/60/50 33/50/50 
f 43/60/51 44/61/51 33/50/51 
f 44/61/52 45/62/52 33/50/52 
f 45/62/53 31/48/53 33/50/53 
s 8
f 46/63/54 47/64/55 48/65/56 
f 48/65/56 49/66/54 46/63/54 
f 47/64/55 50/67/57 51/68/58 
f 51/68/58 48/65/56 47/64/55 
f 50/67/57 52/69/59 53/70/60 
f 53/70/60 51/68/58 50/67/57 
f 52/69/59 54/71/61 55/72/62 
f 55/72/62 53/70/60 52/69/59 
f 54/71/61 56/73/54 57/74/54 
f 57/74/54 55/72/62 54/71/61 
f 56/73/54 58/75/63 59/76/64 
f 59/76/64 57/74/54 56/73/54 
f 58/75/63 60/77/65 61/78/66 
f 61/78/66 59/76/64 58/75/63 
f 60/77/65 62/79/67 63/80/68 
f 63/80/68 61/78/66 60/77/65 
f 62/79/67 64/81/69 65/82/70 
f 65/82/70 63/80/68 62/79/67 
f 64/81/69 46/63/54 49/66/54 
f 49/66/54 65/82/70 64/81/69 
s 16
f 48/83/71 66/84/72 67/85/73 
f 67/85/73 49/86/74 48/83/71 
f 48/83/71 51/87/75 68/88/76 
f 68/88/76 66/84/72 48/83/71 
f 51/89/75 53/90/77 69/91/78 
f 69/91/78 68/92/76 51/89/75 
f 53/93/77 55/94/79 70/95/80 
f 70/95/80 69/96/78 53/93/77 
f 55/94/79 57/97/81 71/98/82 
f 71/98/82 70/95/80 55/94/79 
f 59/99/83 72/100/84 71/101/82 
f 71/101/82 57/102/81 59/99/83 
f 61/103/85 73/104/86 72/100/84 
f 72/100/84 59/99/83 61/103/85 
f 63/105/87 74/106/88 73/107/86 
f 73/107/86 61/108/85 63/105/87 
f 65/109/89 75/110/90 74/106/88 
f 74/106/88 63/105/87 65/109/89 
f 49/86/74 67/85/73 75/111/90 
f 75/111/90 65/112/89 49/86/74 
s 4
f 46/113/91 22/32/92 21/31/93 
f 21/31/93 47/114/94 46/113/91 
f 47/114/94 21/31/93 23/33/95 
f 23/33/95 50/115/96 47/114/94 
f 50/116/96 23/35/95 24/34/97 
f 24/34/97 52/117/98 50/116/96 
f 52/118/98 24/38/97 25/37/99 
f 25/37/99 54/119/100 52/118/98 
f 54/119/100 25/37/99 26/39/101 
f 26/39/101 56/120/102 54/119/100 
f 56/120/102 26/39/101 27/121/103 
f 27/121/103 58/122/104 56/120/102 
f 58/123/104 27/41/103 28/43/105 
f 28/43/105 60/124/106 58/123/104 
f 60/124/106 28/43/105 29/44/107 
f 29/44/107 62/125/108 60/124/106 
f 62/126/108 29/46/107 30/45/109 
f 30/45/109 64/127/110 62/126/108 
f 64/128/110 30/47/109 22/32/92 
f 22/32/92 46/113/91 64/128/110 
s 64
f 76/129/111 77/130/112 78/131/113 
f 78/131/113 79/132/114 76/129/111 
f 77/130/112 80/133/115 81/134/116 
f 81/134/116 78/131/113 77/130/112 
f 80/133/115 82/135/117 83/136/118 
f 83/136/118 81/134/116 80/133/115 
f 82/135/117 84/137/119 85/138/120 
f 85/138/120 83/136/118 82/135/117 
f 84/137/119 86/139/111 87/140/114 
f 87/140/114 85/138/120 84/137/119 
f 86/139/111 88/141/111 89/142/111 
f 89/142/111 87/140/114 86/139/111 
f 88/141/111 90/143/111 91/144/111 
f 91/144/111 89/142/111 88/141/111 
f 90/143/111 92/145/114 93/146/114 
f 93/146/114 91/144/111 90/143/111 
f 92/145/114 94/147/114 95/148/114 
f 95/148/114 93/146/114 92/145/114 
f 94/147/114 76/129/111 79/132/114 
f 79/132/114 95/148/114 94/147/114 
s 128
f 79/149/121 78/150/122 96/151/123 
f 96/151/123 97/152/124 79/149/121 
f 78/150/122 81/153/125 98/154/126 
f 98/154/126 96/151/123 78/150/122 
f 81/155/125 83/156/127 99/157/128 
f 99/157/128 98/158/126 81/155/125 
f 83/159/127 85/160/129 100/161/130 
f 100/161/130 99/162/128 83/159/127 
f 85/160/129 87/163/131 101/164/132 
f 101/164/132 100/161/130 85/160/129 
f 87/163/131 89/165/133 102/166/134 
f 102/166/134 101/164/132 87/163/131 
f 89/167/133 91/168/135 103/169/136 
f 103/169/136 102/170/134 89/167/133 
f 91/168/135 93/171/137 104/172/138 
f 104/172/138 103/169/136 91/168/135 
f 93/171/137 95/173/139 105/174/140 
f 105/174/140 104/172/138 93/171/137 
f 95/175/139 79/149/121 97/152/124 
f 97/152/124 105/176/140 95/175/139 
s 256
f 31/177/141 97/178/142 96/179/143 
f 96/179/143 32/180/144 31/177/141 
f 32/180/144 96/179/143 98/181/145 
f 98/181/145 106/182/146 32/180/144 
f 106/183/146 98/158/145 99/157/147 
f 99/157/147 107/184/148 106/183/146 
f 107/185/148 99/186/147 100/187/149 
f 100/187/149 40/188/150 107/185/148 
f 40/188/150 100/187/149 101/189/151 
f 101/189/151 41/190/152 40/188/150 
f 41/191/152 101/192/151 102/193/153 
f 102/193/153 42/194/154 41/191/152 
f 42/194/154 102/193/153 103/195/155 
f 103/195/155 43/196/156 42/194/154 
f 43/197/156 103/169/155 104/172/157 
f 104/172/157 44/198/158 43/197/156 
f 44/199/158 104/200/157 105/201/159 
f 105/201/159 45/202/160 44/199/158 
f 45/203/160 105/204/159 97/178/142 
f 97/178/142 31/177/141 45/203/160 
s 32
f 76/129/161 67/205/162 66/206/163 
f 66/206/163 77/130/164 76/129/161 
f 77/130/164 66/206/163 68/207/165 
f 68/207/165 80/133/166 77/130/164 
f 80/208/166 68/92/165 69/91/167 
f 69/91/167 82/209/168 80/208/166 
f 82/210/168 69/96/167 70/95/169 
f 70/95/169 84/211/170 82/210/168 
f 84/137/170 70/212/169 71/213/171 
f 71/213/171 86/139/172 84/137/170 
f 86/139/172 71/213/171 72/214/173 
f 72/214/173 88/141/174 86/139/172 
f 88/215/174 72/216/173 73/217/175 
f 73/217/175 90/218/176 88/215/174 
f 90/218/176 73/217/175 74/219/177 
f 74/219/177 92/220/178 90/218/176 
f 92/221/178 74/222/177 75/223/179 
f 75/223/179 94/224/180 92/221/178 
f 94/147/180 75/225/179 67/205/162 
f 67/205/162 76/129/161 94/147/180 
s 512
f 33/226/181 32/227/182 108/228/183 
f 108/228/183 109/229/184 33/226/181 
f 32/230/182 106/231/185 110/232/185 
f 110/232/185 108/233/183 32/230/182 
f 106/183/185 107/184/186 111/234/186 
f 111/234/186 110/235/185 106/183/185 
f 107/185/186 40/188/187 112/236/188 
f 112/236/188 111/237/186 107/185/186 
f 40/238/187 33/239/181 109/240/184 
f 109/240/184 112/241/188 40/238/187 
s off
f 109/242/189 36/53/189 38/55/189 
f 36/243/190 109/229/190 108/228/190 
f 108/228/191 34/244/191 36/243/191 
f 34/51/192 108/245/192 110/246/192 
f 110/246/193 35/52/193 34/51/193 
f 35/247/194 110/235/194 111/234/194 
f 111/234/195 37/248/195 35/247/195 
f 37/249/196 111/237/196 112/236/196 
f 112/236/197 39/250/197 37/249/197 
f 39/251/198 112/241/198 109/240/198 
f 109/240/199 38/252/199 39/251/199 
# 212 faces

