# 3ds Max Wavefront OBJ Exporter v0.97b - (c)2007 guruware
# File Created: 12.06.2018 15:45:43

mtllib Rock.mtl

#
# object rockLP002
#

v  0.5169 -0.1704 -0.9801
v  0.7199 -0.3263 -0.2655
v  -0.7127 -0.2390 0.2105
v  0.0598 1.3749 -0.8961
v  -0.3882 1.7352 -0.7344
v  -0.4345 1.9851 -0.2143
v  -0.3303 0.3973 1.3409
v  0.1735 0.8045 1.3656
v  0.0705 1.4143 1.0471
v  0.8090 0.6751 -0.9065
v  1.0706 1.1737 -0.1902
v  1.3012 -0.1367 -0.2824
v  -1.1690 0.6809 1.1448
v  -0.3044 1.4607 1.0656
v  -1.0123 0.0645 -0.1814
v  -1.0853 -0.2609 0.2476
v  -1.2966 0.6877 0.3226
v  0.0829 1.0834 -1.1373
v  -1.2701 0.6787 -0.2700
v  -1.1586 0.6513 -0.4578
v  -0.9187 0.1268 -0.5251
v  0.7694 1.4050 0.2388
v  0.9989 0.7994 0.7183
v  0.7339 1.3268 -0.4531
v  0.4910 1.6222 0.2622
v  0.1537 0.1231 1.1932
v  0.4808 -0.0546 0.9246
v  0.8989 0.4293 0.9953
v  1.3094 0.3064 0.3046
v  0.1714 -0.0149 -1.0605
v  -0.2384 -0.0270 -1.1405
v  -0.7006 0.6691 -1.0525
v  -0.9821 1.3287 0.6041
v  -1.1557 1.4112 -0.1453
v  -0.6267 1.3305 0.9066
v  -0.7084 1.3348 -0.9370
v  -0.3040 0.0966 1.1829
v  -0.6800 -0.1864 0.6399
v  0.1828 -0.2295 0.7283
v  -0.7936 0.3107 1.2668
v  -1.0024 -0.2155 0.6277
v  0.8293 0.0867 -0.9303
v  0.8320 1.1243 0.6620
v  0.3936 1.3924 0.9522
v  0.5105 1.1384 1.1424
v  -0.4275 1.8134 0.3644
v  -0.8622 1.6996 0.2938
v  -1.3098 0.7237 0.8376
v  -0.6310 0.0860 -0.8635
v  -0.7883 0.3465 -0.7860
v  -1.1529 1.0504 -0.5730
v  -1.0798 1.3743 -0.5284
v  0.3967 1.2153 -0.8067
v  1.0428 0.0341 0.6387
v  0.9259 -0.1748 0.1840
# 55 vertices

vn -0.1297 -0.9732 -0.1900
vn -0.1191 -0.9766 -0.1792
vn -0.2030 -0.8967 -0.3932
vn 0.3975 0.8080 -0.4349
vn 0.5147 0.7898 -0.3336
vn 0.4309 0.8049 -0.4080
vn -0.3534 0.3855 0.8524
vn 0.8570 0.1379 -0.4965
vn 0.8744 0.1854 -0.4484
vn 0.8539 0.1304 -0.5038
vn -0.1514 0.2188 0.9640
vn -0.1143 0.2241 0.9678
vn 0.0010 0.2506 0.9681
vn -0.9360 -0.1849 -0.2995
vn 0.2402 0.6301 -0.7385
vn 0.3213 0.6187 -0.7169
vn 0.3808 0.6072 -0.6973
vn -0.8466 -0.3565 -0.3953
vn -0.8334 -0.3238 -0.4478
vn -0.8572 -0.3909 -0.3353
vn 0.8477 0.4635 0.2579
vn 0.8143 0.5172 0.2634
vn 0.8686 0.4373 0.2329
vn 0.4888 0.8523 -0.1860
vn 0.3215 0.9423 0.0932
vn 0.4560 0.8862 -0.0823
vn 0.3679 -0.3345 0.8676
vn 0.4190 -0.4751 0.7738
vn 0.4085 -0.4098 0.8156
vn 0.8985 0.3763 0.2259
vn 0.1792 0.2396 -0.9542
vn -0.2063 -0.9530 -0.2220
vn -0.9147 0.3198 0.2471
vn -0.9439 0.2235 0.2433
vn -0.9655 0.1107 0.2358
vn -0.5229 0.6994 0.4872
vn -0.5134 0.6665 0.5406
vn -0.6212 0.6685 0.4089
vn -0.8249 0.2177 -0.5218
vn -0.1922 0.1656 -0.9673
vn -0.1204 -0.8169 0.5640
vn -0.1590 -0.8261 0.5406
vn -0.0021 -0.8195 0.5730
vn -0.6533 -0.4657 0.5969
vn -0.7875 -0.4112 0.4590
vn -0.7444 -0.4320 0.5091
vn -0.0347 -0.9963 0.0783
vn -0.0407 -0.9952 0.0887
vn 0.0082 -0.9943 0.1062
vn 0.9718 0.1816 -0.1507
vn -0.0679 -0.0750 -0.9949
vn 0.0817 -0.0454 -0.9956
vn 0.1585 -0.0680 -0.9850
vn 0.8156 0.0514 -0.5763
vn 0.6957 0.5803 0.4233
vn 0.4445 0.8129 0.3764
vn 0.7058 0.5078 0.4939
vn 0.2293 0.8851 0.4050
vn -0.3590 0.7586 0.5438
vn -0.8419 0.4795 0.2478
vn -0.8867 0.4592 -0.0548
vn -0.9660 -0.2527 0.0540
vn -0.9762 -0.2167 -0.0099
vn -0.9363 -0.3111 0.1629
vn 0.7939 0.2670 0.5463
vn 0.3401 -0.2399 0.9093
vn -0.5955 -0.1233 -0.7938
vn -0.3473 -0.8511 -0.3937
vn -0.5725 0.5828 -0.5767
vn -0.7043 0.2503 -0.6643
vn -0.6587 0.3999 -0.6374
vn -0.4996 0.8426 -0.2011
vn -0.5087 0.8381 -0.1970
vn -0.5098 0.8376 -0.1965
vn 0.5174 0.5204 -0.6793
vn 0.6126 0.4978 -0.6140
vn 0.5638 0.5098 -0.6498
vn 0.3616 0.8096 -0.4624
vn -0.7336 -0.0652 -0.6765
vn -0.6735 0.1187 -0.7296
vn -0.7636 -0.1042 -0.6372
vn -0.7555 -0.2799 -0.5924
vn 0.0466 -0.7786 0.6258
vn -0.0136 -0.7956 -0.6057
vn 0.4541 -0.5001 0.7374
vn 0.2757 -0.9310 0.2390
vn 0.3088 -0.8919 0.3304
vn 0.3076 -0.8926 0.3297
vn 0.2385 -0.0241 -0.9708
vn 0.6304 -0.7016 -0.3321
vn 0.6346 -0.6210 0.4599
vn 0.2597 -0.8389 -0.4784
vn 0.6189 0.7087 0.3386
vn 0.5265 0.7815 0.3346
vn 0.6155 0.7881 0.0072
vn 0.5373 0.8322 -0.1367
vn -0.2430 -0.7810 0.5753
vn 0.3000 -0.4230 0.8550
vn -0.5220 0.5964 0.6097
vn -0.6143 0.6389 0.4632
vn -0.3648 0.7290 0.5793
vn 0.5091 0.5158 -0.6891
vn 0.3277 0.0495 -0.9435
vn -0.7644 0.5520 -0.3333
vn 0.2252 0.9348 0.2746
vn 0.8018 0.2038 0.5618
vn 0.8622 0.1329 0.4888
vn 0.0045 -0.9926 0.1212
vn 0.0777 -0.9909 0.1097
vn 0.6654 0.4765 -0.5747
vn 0.0784 0.2481 0.9656
vn 0.1319 0.9384 0.3192
vn -0.6657 -0.3594 -0.6540
vn -0.7773 -0.2247 -0.5877
vn -0.8885 0.4565 -0.0467
vn -0.9196 -0.3912 -0.0352
vn -0.7502 -0.2654 -0.6056
vn -0.4384 -0.8566 -0.2720
vn -0.5110 0.6768 -0.5299
vn -0.0640 0.4908 -0.8689
vn 0.0434 -0.7947 0.6055
vn 0.0665 -0.7930 0.6056
vn 0.2859 -0.9105 0.2988
vn 0.2728 -0.9426 0.1927
vn 0.3100 -0.9349 0.1730
vn -0.5337 0.8251 -0.1852
vn -0.9469 0.2427 -0.2110
vn 0.0686 -0.9923 0.1035
vn -0.9057 -0.3500 0.2393
vn 0.4884 0.0874 0.8682
vn 0.1084 0.4746 0.8735
vn 0.2013 -0.0583 -0.9778
vn 0.1932 -0.0765 -0.9782
vn -0.2852 0.9180 0.2757
vn 0.8602 0.4743 0.1874
vn -0.8658 -0.3609 0.3467
vn -0.0536 -0.4681 0.8820
vn -0.1814 0.1370 0.9738
vn -0.9998 0.0100 -0.0151
vn -0.7311 -0.1795 -0.6582
vn 0.4559 0.5886 -0.6676
vn 0.4617 0.6189 -0.6354
vn 0.1606 0.9294 0.3322
vn 0.2540 0.6519 0.7145
vn -0.4453 -0.8519 -0.2757
vn -0.8606 -0.4057 -0.3080
vn 0.8333 -0.1709 0.5257
vn 0.7668 -0.6348 0.0945
vn -0.0076 -0.2451 0.9695
# 149 vertex normals

vt 0.4128 0.7007 0.0000
vt 0.3766 0.8218 0.0000
vt 0.1257 0.7608 0.0000
vt 0.7045 0.9966 0.0000
vt 0.6076 0.9513 0.0000
vt 0.5961 0.8589 0.0000
vt 0.7179 0.0731 0.0000
vt 0.7945 0.1486 0.0000
vt 0.7679 0.2609 0.0000
vt 0.6448 0.3880 0.0000
vt 0.5111 0.4681 0.0000
vt 0.5173 0.2393 0.0000
vt 0.5677 0.1064 0.0000
vt 0.6993 0.2598 0.0000
vt 0.2075 0.0714 0.0000
vt 0.2942 0.0306 0.0000
vt 0.2831 0.1962 0.0000
vt 0.6332 0.4121 0.0000
vt 0.7366 0.3952 0.0000
vt 0.7822 0.4339 0.0000
vt 0.1856 0.1816 0.0000
vt 0.1517 0.1702 0.0000
vt 0.1429 0.0718 0.0000
vt 0.4289 0.5258 0.0000
vt 0.3515 0.4120 0.0000
vt 0.8225 0.9175 0.0000
vt 0.7704 0.7911 0.0000
vt 0.8116 0.0326 0.0000
vt 0.8875 0.0055 0.0000
vt 0.9375 0.1043 0.0000
vt 0.4247 0.3185 0.0000
vt 0.9354 0.5344 0.0000
vt 0.8913 0.5927 0.0000
vt 0.7492 0.5764 0.0000
vt 0.3211 0.6072 0.0000
vt 0.3092 0.3252 0.0000
vt 0.1782 0.3075 0.0000
vt 0.6546 0.6340 0.0000
vt 0.5894 0.6389 0.0000
vt 0.4792 0.5379 0.0000
vt 0.6584 0.5042 0.0000
vt 0.0920 0.9543 0.0000
vt 0.0911 0.8297 0.0000
vt 0.2114 0.9160 0.0000
vt 0.4758 0.1351 0.0000
vt 0.4252 0.2119 0.0000
vt 0.3611 0.0451 0.0000
vt 0.6527 0.2870 0.0000
vt 0.3562 0.4735 0.0000
vt 0.2854 0.5457 0.0000
vt 0.2592 0.4944 0.0000
vt 0.6158 0.7620 0.0000
vt 0.2470 0.3836 0.0000
vt 0.3679 0.2167 0.0000
vt 0.8218 0.6420 0.0000
vt 0.7689 0.6346 0.0000
vt 0.1187 0.6608 0.0000
vt 0.0197 0.2794 0.0000
vt 0.1185 0.2329 0.0000
vt 0.1135 0.2899 0.0000
vt 0.4737 0.8945 0.0000
vt 0.5446 0.7572 0.0000
vt 0.7907 0.3575 0.0000
vt 0.8015 0.2742 0.0000
vt 0.9089 0.3644 0.0000
vt 0.6224 0.6072 0.0000
vt 0.0848 0.0971 0.0000
vt 0.0714 0.0450 0.0000
vt 0.0459 0.7964 0.0000
vt 0.0005 0.9347 0.0000
vt 0.0666 0.7345 0.0000
vt 0.9947 0.0302 0.0000
vt 0.3683 0.9079 0.0000
vt 0.3451 0.9927 0.0000
vt 0.2364 0.9787 0.0000
vt 0.9942 0.4304 0.0000
vt 0.4739 0.7307 0.0000
vt 0.4133 0.2144 0.0000
vt 0.4668 0.8728 0.0000
vt 0.8295 0.7959 0.0000
vt 0.7762 0.6672 0.0000
vt 0.8912 0.8730 0.0000
vt 0.7290 0.0165 0.0000
vt 0.1259 0.4388 0.0000
vt 0.0467 0.4448 0.0000
vt 0.0204 0.3239 0.0000
vt 0.5197 0.6772 0.0000
vt 0.1307 0.4242 0.0000
vt 0.0554 0.3606 0.0000
vt 0.2929 0.3574 0.0000
vt 0.5780 0.5075 0.0000
vt 0.7210 0.6430 0.0000
vt 0.0005 0.0005 0.0000
vt 0.0267 0.1412 0.0000
vt 0.2380 0.6025 0.0000
vt 0.5127 0.9803 0.0000
vt 0.1590 0.9995 0.0000
vt 0.4713 0.8276 0.0000
vt 0.8476 0.2161 0.0000
vt 0.9936 0.5038 0.0000
vt 0.8657 0.7154 0.0000
vt 0.4433 0.5839 0.0000
vt 0.6413 0.0489 0.0000
vt 0.8254 0.2704 0.0000
vt 0.1642 0.6196 0.0000
vt 0.3498 0.2791 0.0000
# 106 texture coords

o rockLP002
g rockLP002
usemtl Stone04_Stone04_wire_115115115
s 1
f 1/1/1 2/2/2 3/3/3 
f 4/4/4 5/5/5 6/6/6 
f 7/7/7 8/8/7 9/9/7 
f 10/10/8 11/11/9 12/12/10 
s 2
f 13/13/11 7/7/12 14/14/13 
f 15/15/14 16/16/14 17/17/14 
f 5/18/15 4/19/16 18/20/17 
s 4
f 19/21/18 20/22/19 21/23/20 
s 2
f 11/11/21 22/24/22 23/25/23 
s 4
f 24/26/24 6/6/25 25/27/26 
s 2
f 26/28/27 27/29/28 28/30/29 
f 11/11/21 23/25/23 29/31/30 
f 30/32/31 31/33/31 32/34/31 
s 1
f 3/3/3 31/35/32 1/1/1 
f 33/36/33 34/37/34 19/21/35 
s 8
f 14/38/36 35/39/37 13/40/38 
s 2
f 20/22/39 19/21/39 34/37/39 
s 1
f 18/20/40 32/34/40 36/41/40 
f 37/42/41 38/43/42 39/44/43 
s 4
f 40/45/44 13/46/45 41/47/46 
s 8
f 2/2/47 39/44/48 3/3/49 
f 29/31/50 12/12/50 11/11/50 
s 4
f 32/34/51 18/20/52 30/32/53 
s 1
f 12/12/10 42/48/54 10/10/8 
s 16
f 43/49/55 44/50/56 45/51/57 
s 1
f 25/27/58 46/52/58 14/38/58 
s 8
f 35/39/37 14/38/36 46/52/59 
s 1
f 47/53/60 34/37/34 33/36/33 
s 16
f 17/17/61 48/54/61 33/36/61 
s 32
f 48/54/62 17/17/63 16/16/64 
s 16
f 45/51/57 23/25/65 43/49/55 
s 2
f 28/30/29 8/8/66 26/28/27 
s 8
f 31/33/67 49/55/67 50/56/67 
s 1
f 31/35/32 3/3/3 15/57/68 
s 4
f 36/58/69 51/59/70 52/60/71 
s 16
f 5/5/72 52/61/73 47/62/74 
f 53/63/75 24/64/76 10/65/77 
s 1
f 24/26/78 4/4/4 6/6/6 
s 16
f 51/66/79 36/41/80 32/34/81 
s 1
f 20/22/82 50/67/82 49/68/82 
s 16
f 41/69/83 38/43/83 40/70/83 
s 1
f 15/57/68 3/3/3 16/71/84 
s 2
f 54/72/85 28/30/29 27/29/28 
s 4
f 55/73/86 54/74/87 27/75/88 
f 42/76/89 30/32/53 18/20/52 
s 2
f 2/2/90 1/1/90 42/77/90 
s 32
f 12/12/91 29/31/91 55/78/91 
s 16
f 42/77/92 12/79/92 2/2/92 
f 22/80/93 25/27/94 44/81/56 
s 4
f 25/27/26 22/80/95 11/82/96 
s 1
f 37/42/41 40/70/97 38/43/42 
s 4
f 8/8/98 7/7/98 37/83/98 
s 8
f 35/84/37 33/85/99 48/86/100 
f 33/87/99 35/39/37 47/62/101 
s 16
f 18/20/102 53/63/75 10/65/77 
s 4
f 18/20/52 10/65/103 42/76/89 
s 32
f 47/53/104 6/88/104 5/89/104 
s 4
f 46/52/105 25/27/26 6/6/25 
s 16
f 23/25/65 45/51/57 28/90/106 
f 28/90/106 29/31/107 23/25/65 
s 8
f 3/3/49 38/43/108 41/69/109 
f 38/43/108 3/3/49 39/44/48 
s 4
f 11/82/96 24/26/24 25/27/26 
s 16
f 11/11/110 10/10/77 24/91/76 
s 2
f 9/9/111 14/14/13 7/7/12 
s 32
f 14/38/112 9/92/112 25/27/112 
f 31/93/113 50/67/113 32/94/113 
s 16
f 32/94/81 50/67/114 51/59/79 
s 64
f 19/21/115 17/17/115 33/36/115 
s 8
f 17/17/116 19/21/116 15/15/116 
s 32
f 49/68/117 21/23/117 20/22/117 
s 16
f 15/57/118 49/95/118 31/35/118 
s 4
f 5/5/119 36/96/69 52/61/71 
s 8
f 18/20/120 36/41/120 5/18/120 
s 1
f 26/97/121 39/44/43 27/75/122 
s 4
f 55/73/86 27/75/88 39/44/123 
f 55/73/86 2/2/124 12/79/125 
f 2/2/124 55/73/86 39/44/123 
s 16
f 34/98/126 47/62/74 52/61/73 
s 8
f 34/37/127 52/60/127 51/59/127 
f 41/69/109 16/71/128 3/3/49 
s 32
f 16/16/64 41/47/129 48/54/62 
s 8
f 8/8/130 28/30/130 45/99/130 
s 64
f 45/99/131 9/9/131 8/8/131 
s 4
f 30/32/53 42/76/89 1/100/132 
f 30/32/53 1/100/132 31/33/133 
s 8
f 46/52/59 47/62/101 35/39/37 
s 2
f 47/62/134 46/52/134 6/6/134 
f 22/24/22 43/49/135 23/25/23 
s 16
f 44/81/56 43/101/55 22/80/93 
s 8
f 48/102/100 13/40/38 35/39/37 
s 4
f 13/46/45 48/54/136 41/47/46 
s 8
f 40/103/137 37/83/137 7/7/137 
s 2
f 7/7/12 13/13/11 40/103/138 
s 64
f 34/37/139 51/59/139 20/22/139 
s 16
f 50/67/114 20/22/140 51/59/79 
s 2
f 53/63/141 18/20/17 4/19/16 
s 8
f 4/19/142 24/64/142 53/63/142 
s 16
f 9/92/143 44/81/56 25/27/94 
s 4
f 9/9/144 45/99/144 44/104/144 
s 64
f 15/57/145 21/105/145 49/95/145 
s 4
f 21/23/20 15/15/146 19/21/18 
s 1
f 29/31/147 28/90/147 54/106/147 
s 64
f 54/106/148 55/78/148 29/31/148 
s 1
f 39/44/43 26/97/121 37/42/41 
s 16
f 37/83/149 26/28/149 8/8/149 
# 106 faces

