# 3ds Max Wavefront OBJ Exporter v0.97b - (c)2007 guruware
# File Created: 17.05.2018 13:30:18

mtllib Stone03.mtl

#
# object rockLP002
#

v  -1.0507 -0.2381 1.0213
v  -1.1943 -0.3096 0.7000
v  -0.8727 -0.3516 0.8421
v  -0.7119 -0.2921 1.0997
v  -0.3281 -0.3568 0.9477
v  -0.2727 -0.3314 1.2493
v  0.3195 -0.3440 0.8882
v  0.2481 -0.3334 1.3531
v  0.7667 -0.2409 0.7029
v  0.6772 -0.1882 1.1026
v  1.1147 -0.1343 0.5625
v  0.9906 -0.0815 0.9163
v  -1.1633 -0.3388 0.2338
v  -0.9433 -0.3764 0.2977
v  -0.2737 -0.3552 0.2344
v  0.3428 -0.2560 0.2100
v  0.8938 -0.3462 0.2337
v  1.2590 -0.3047 0.1588
v  -1.0537 -0.2525 -0.2263
v  -0.7738 -0.3481 -0.2909
v  -0.2517 -0.3627 -0.3944
v  0.3004 -0.2557 -0.3415
v  0.8143 -0.3446 -0.3119
v  1.3001 -0.3659 -0.3184
v  -0.8856 -0.1199 -0.6009
v  -0.6217 -0.2561 -0.7254
v  -0.2446 -0.3384 -0.8926
v  0.2751 -0.3605 -0.8257
v  0.7590 -0.3719 -0.7821
v  1.1896 -0.3233 -0.7633
v  -0.7731 -0.0517 -0.8237
v  -0.5173 -0.2000 -0.9873
v  -0.1546 -0.2837 -1.0602
v  0.2607 -0.3061 -1.0871
v  0.7129 -0.3048 -1.1123
v  1.0522 -0.2510 -1.0097
v  -0.9115 1.3337 0.8738
v  -0.6223 1.4701 0.9784
v  -0.7064 1.6496 0.6794
v  -1.0156 1.4538 0.5956
v  -0.2549 1.6053 1.1054
v  -0.2821 1.8272 0.7788
v  0.1920 1.6739 1.1697
v  0.2126 1.8221 0.7909
v  0.5799 1.5928 1.0660
v  0.6204 1.6602 0.6596
v  0.8959 1.4535 0.9670
v  0.9112 1.4925 0.6073
v  -0.7912 1.7035 0.2284
v  -1.0593 1.4440 0.1996
v  -0.3147 1.9234 0.2920
v  0.1680 1.8885 0.2903
v  0.5729 1.6618 0.2075
v  0.9090 1.4901 0.2149
v  -0.7725 1.6715 -0.2432
v  -1.0143 1.3968 -0.1785
v  -0.3395 1.8721 -0.2380
v  0.1812 1.8341 -0.2145
v  0.6039 1.6340 -0.2256
v  0.9290 1.4737 -0.1741
v  -0.6977 1.5445 -0.6723
v  -0.9519 1.3317 -0.5233
v  -0.3141 1.6866 -0.7352
v  0.2030 1.6621 -0.6917
v  0.6092 1.5180 -0.6264
v  0.8614 1.3826 -0.5103
v  -0.6205 1.3229 -0.9257
v  -0.8374 1.2156 -0.7669
v  -0.2584 1.4597 -1.0291
v  0.1414 1.3902 -0.9772
v  0.4797 1.3294 -0.8537
v  0.7204 1.2278 -0.7433
v  -0.8078 -0.0826 1.2940
v  -1.1332 0.0165 1.0981
v  -0.3174 -0.1168 1.4980
v  0.3286 -0.1817 1.6638
v  0.8572 -0.0481 1.3911
v  1.1693 0.0838 1.1146
v  -0.7865 0.3880 1.2776
v  -1.1130 0.4202 1.0775
v  -0.3132 0.4060 1.5173
v  0.3729 0.3321 1.7416
v  0.9906 0.2491 1.6109
v  1.2677 0.3529 1.3256
v  -0.7184 0.8130 1.1539
v  -1.0555 0.7831 1.0072
v  -0.2860 0.8931 1.3557
v  0.3131 0.9127 1.5914
v  0.9698 0.7767 1.5971
v  1.2337 0.7716 1.2951
v  -0.6840 1.1457 1.0734
v  -0.9957 1.0682 0.9451
v  -0.2701 1.2868 1.2258
v  0.2346 1.3764 1.3618
v  0.7538 1.3085 1.3109
v  1.1376 1.1524 1.2284
v  1.2569 0.0381 0.6911
v  1.4590 -0.1358 0.1564
v  1.5101 -0.2284 -0.3277
v  1.3068 -0.1709 -0.7868
v  1.0900 -0.0524 -1.0812
v  1.3755 0.3343 0.8400
v  1.4201 0.3542 0.2510
v  1.4462 0.2775 -0.3378
v  1.2426 0.2959 -0.7832
v  0.9920 0.3468 -1.0138
v  1.2779 0.8188 0.8044
v  1.2441 0.8537 0.2580
v  1.2746 0.8066 -0.2703
v  1.0495 0.7644 -0.6711
v  0.8634 0.6852 -0.8950
v  1.1616 1.2306 0.7913
v  1.1450 1.2346 0.2821
v  1.1459 1.2138 -0.2051
v  0.9600 1.1189 -0.5767
v  0.7877 0.9607 -0.8182
v  0.7566 -0.1049 -1.1947
v  0.2848 -0.1409 -1.2074
v  -0.1775 -0.0618 -1.1787
v  -0.5822 0.0198 -1.0685
v  -0.8690 0.1151 -0.8852
v  0.7391 0.2900 -1.1917
v  0.2714 0.2759 -1.2304
v  -0.2155 0.3207 -1.1978
v  -0.6511 0.3283 -1.1057
v  -0.9440 0.3415 -0.9635
v  0.6383 0.6983 -1.0615
v  0.2274 0.6869 -1.2074
v  -0.2782 0.7019 -1.2222
v  -0.6712 0.6834 -1.0870
v  -0.9394 0.6542 -0.9513
v  0.5365 1.0475 -0.9794
v  0.1643 1.0855 -1.1511
v  -0.3062 1.1194 -1.1750
v  -0.6802 1.0249 -0.9997
v  -0.9012 0.9639 -0.8457
v  -1.0221 0.0687 -0.6399
v  -1.2185 -0.0486 -0.2860
v  -1.4141 -0.1599 0.2670
v  -1.3412 -0.1100 0.8038
v  -1.1784 0.3255 -0.7239
v  -1.4669 0.2619 -0.2832
v  -1.6207 0.2023 0.3049
v  -1.4292 0.3102 0.8209
v  -1.1905 0.6827 -0.7065
v  -1.4245 0.7139 -0.2840
v  -1.4812 0.7678 0.2691
v  -1.3384 0.7860 0.7713
v  -1.0652 1.0454 -0.6045
v  -1.1521 1.1193 -0.2076
v  -1.2257 1.1617 0.2248
v  -1.1803 1.1666 0.6737
# 152 vertices

vn -0.4468 -0.6928 0.5660
vn -0.4280 -0.8795 0.2082
vn -0.0798 -0.9727 0.2178
vn -0.1931 -0.8801 0.4338
vn -0.0219 -0.9990 0.0387
vn -0.1876 -0.9308 0.3136
vn 0.0889 -0.9955 -0.0337
vn 0.1551 -0.9729 0.1715
vn 0.3816 -0.8795 0.2843
vn 0.4500 -0.8753 0.1773
vn 0.3198 -0.8528 0.4129
vn 0.3630 -0.9076 0.2111
vn -0.4194 -0.8949 -0.1521
vn 0.0028 -1.0000 0.0007
vn 0.1124 -0.9937 0.0041
vn -0.0385 -0.9963 -0.0763
vn -0.0097 -0.9964 0.0842
vn 0.1677 -0.9440 0.2843
vn -0.5893 -0.6791 -0.4378
vn -0.2592 -0.9429 -0.2094
vn 0.0847 -0.9957 0.0375
vn 0.0370 -0.9930 0.1118
vn -0.1310 -0.9912 0.0196
vn 0.0181 -0.9990 -0.0397
vn -0.6460 -0.5566 -0.5223
vn -0.5418 -0.7267 -0.4224
vn -0.2241 -0.9465 -0.2321
vn 0.0265 -0.9945 0.1012
vn -0.0318 -0.9971 0.0698
vn 0.3150 -0.9347 -0.1648
vn -0.6859 -0.5500 -0.4766
vn -0.5190 -0.6187 -0.5899
vn -0.2871 -0.7360 -0.6131
vn -0.0639 -0.8592 -0.5077
vn 0.0479 -0.7774 -0.6272
vn 0.5224 -0.6325 -0.5719
vn -0.5664 0.4947 0.6591
vn -0.4662 0.5025 0.7281
vn -0.5225 0.7708 0.3645
vn -0.7415 0.6275 0.2374
vn -0.3570 0.5456 0.7582
vn -0.2483 0.8750 0.4156
vn 0.0207 0.7645 0.6443
vn 0.2241 0.9494 0.2198
vn 0.3974 0.8158 0.4202
vn 0.4244 0.9042 0.0471
vn 0.4977 0.8239 0.2711
vn 0.5677 0.8231 0.0151
vn -0.5924 0.8045 0.0436
vn -0.8231 0.5625 -0.0778
vn -0.2209 0.9742 0.0458
vn 0.2976 0.9547 0.0081
vn 0.4813 0.8764 -0.0166
vn 0.4999 0.8659 -0.0162
vn -0.6378 0.7533 -0.1608
vn -0.8538 0.4928 -0.1678
vn -0.1928 0.9577 -0.2136
vn 0.2563 0.9468 -0.1949
vn 0.4601 0.8837 -0.0861
vn 0.4697 0.8791 -0.0817
vn -0.6130 0.6157 -0.4952
vn -0.7850 0.5161 -0.3425
vn -0.1161 0.8494 -0.5148
vn 0.2068 0.8145 -0.5421
vn 0.4540 0.7166 -0.5295
vn 0.6115 0.6030 -0.5123
vn -0.5473 0.3619 -0.7547
vn -0.7187 0.3899 -0.5757
vn -0.1002 0.6201 -0.7781
vn 0.2778 0.6220 -0.7321
vn 0.4086 0.4730 -0.7806
vn 0.5597 0.3179 -0.7653
vn -0.4438 -0.3607 0.8203
vn -0.6456 -0.1066 0.7562
vn -0.3548 -0.4093 0.8406
vn 0.0441 -0.6376 0.7691
vn 0.4788 -0.8473 0.2300
vn 0.5983 -0.7507 0.2802
vn -0.4843 0.2551 0.8369
vn -0.5058 0.1959 0.8401
vn -0.4006 0.1907 0.8962
vn -0.1488 0.0806 0.9856
vn 0.5383 -0.3149 0.7817
vn 0.9062 -0.2142 0.3646
vn -0.4213 0.2874 0.8602
vn -0.4553 0.2289 0.8604
vn -0.4409 0.3333 0.8334
vn -0.1729 0.3548 0.9188
vn 0.3736 0.3481 0.8598
vn 0.9142 0.2248 0.3373
vn -0.3798 0.2607 0.8876
vn -0.5326 0.3104 0.7874
vn -0.3992 0.2743 0.8749
vn -0.0886 0.4488 0.8892
vn 0.2431 0.6702 0.7012
vn 0.7081 0.5694 0.4176
vn 0.6719 -0.6613 0.3334
vn 0.8057 -0.4348 0.4022
vn 0.7986 -0.5716 -0.1886
vn 0.6782 -0.3777 -0.6304
vn 0.5742 0.0796 -0.8148
vn 0.9921 -0.0645 0.1075
vn 0.9641 0.2423 0.1086
vn 0.9259 0.3107 -0.2148
vn 0.7421 0.3702 -0.5588
vn 0.5746 0.4061 -0.7106
vn 0.9739 0.2261 0.0216
vn 0.9775 0.2062 0.0437
vn 0.9176 0.2745 -0.2875
vn 0.6756 0.3828 -0.6301
vn 0.6005 0.4215 -0.6795
vn 0.8475 0.5253 0.0764
vn 0.8446 0.5335 0.0461
vn 0.8239 0.5020 -0.2629
vn 0.6658 0.2864 -0.6889
vn 0.6197 0.3552 -0.6998
vn 0.1191 -0.0733 -0.9902
vn -0.0157 -0.1941 -0.9809
vn -0.2368 -0.2356 -0.9426
vn -0.5178 -0.3993 -0.7566
vn -0.6162 -0.6129 -0.4946
vn 0.2517 0.1921 -0.9485
vn 0.0050 0.0321 -0.9995
vn -0.1356 -0.0277 -0.9904
vn -0.3185 -0.0483 -0.9467
vn -0.5789 -0.2291 -0.7825
vn 0.4625 0.3377 -0.8198
vn 0.1464 0.0795 -0.9860
vn -0.2002 -0.0177 -0.9796
vn -0.4391 0.1522 -0.8854
vn -0.4999 0.2577 -0.8268
vn 0.5414 0.4136 -0.7320
vn 0.2459 0.3252 -0.9131
vn -0.2716 0.2599 -0.9266
vn -0.5641 0.2317 -0.7925
vn -0.5689 0.3237 -0.7560
vn -0.5940 -0.6191 -0.5138
vn -0.6312 -0.6239 -0.4607
vn -0.7710 -0.6197 -0.1468
vn -0.7825 -0.4420 0.4386
vn -0.7364 -0.3671 -0.5683
vn -0.8599 -0.2744 -0.4303
vn -0.9774 -0.2103 0.0221
vn -0.7949 0.0255 0.6063
vn -0.7858 0.2115 -0.5812
vn -0.8801 0.3736 -0.2931
vn -0.8939 0.4483 0.0073
vn -0.7720 0.3984 0.4952
vn -0.7406 0.4852 -0.4648
vn -0.8403 0.5173 -0.1620
vn -0.8415 0.5362 -0.0656
vn -0.8206 0.4882 0.2971
# 152 vertex normals

vt 0.3576 0.0307 0.0000
vt 0.3747 0.0884 0.0000
vt 0.3137 0.0792 0.0000
vt 0.3024 0.0220 0.0000
vt 0.2364 0.0706 0.0000
vt 0.2338 0.0069 0.0000
vt 0.1501 0.0747 0.0000
vt 0.1550 0.0005 0.0000
vt 0.0759 0.0933 0.0000
vt 0.0818 0.0314 0.0000
vt 0.0150 0.1033 0.0000
vt 0.0311 0.0518 0.0000
vt 0.3778 0.1685 0.0000
vt 0.3176 0.1540 0.0000
vt 0.2252 0.1693 0.0000
vt 0.1403 0.1705 0.0000
vt 0.0654 0.1634 0.0000
vt 0.0056 0.1717 0.0000
vt 0.3638 0.2464 0.0000
vt 0.3065 0.2441 0.0000
vt 0.2288 0.2557 0.0000
vt 0.1485 0.2448 0.0000
vt 0.0765 0.2411 0.0000
vt 0.0005 0.2438 0.0000
vt 0.3487 0.3086 0.0000
vt 0.2987 0.3162 0.0000
vt 0.2279 0.3245 0.0000
vt 0.1530 0.3170 0.0000
vt 0.0827 0.3109 0.0000
vt 0.0121 0.3125 0.0000
vt 0.3391 0.3471 0.0000
vt 0.2887 0.3617 0.0000
vt 0.2257 0.3720 0.0000
vt 0.1569 0.3680 0.0000
vt 0.0863 0.3737 0.0000
vt 0.0220 0.3707 0.0000
vt 0.3194 0.6835 0.0000
vt 0.3315 0.7331 0.0000
vt 0.2770 0.7294 0.0000
vt 0.2681 0.6748 0.0000
vt 0.3458 0.7967 0.0000
vt 0.2898 0.8000 0.0000
vt 0.3603 0.8724 0.0000
vt 0.2925 0.8778 0.0000
vt 0.3383 0.9381 0.0000
vt 0.2724 0.9459 0.0000
vt 0.3258 0.9908 0.0000
vt 0.2679 0.9962 0.0000
vt 0.2069 0.7193 0.0000
vt 0.2044 0.6659 0.0000
vt 0.2152 0.7968 0.0000
vt 0.2151 0.8769 0.0000
vt 0.2030 0.9429 0.0000
vt 0.2041 0.9971 0.0000
vt 0.1345 0.7218 0.0000
vt 0.1402 0.6639 0.0000
vt 0.1357 0.7939 0.0000
vt 0.1389 0.8772 0.0000
vt 0.1365 0.9460 0.0000
vt 0.1402 0.9995 0.0000
vt 0.0639 0.7320 0.0000
vt 0.0770 0.6733 0.0000
vt 0.0565 0.7970 0.0000
vt 0.0609 0.8786 0.0000
vt 0.0659 0.9459 0.0000
vt 0.0771 0.9931 0.0000
vt 0.0089 0.7293 0.0000
vt 0.0288 0.6847 0.0000
vt 0.0005 0.8014 0.0000
vt 0.0010 0.8745 0.0000
vt 0.0135 0.9352 0.0000
vt 0.0218 0.9815 0.0000
vt 0.9658 0.0232 0.0000
vt 0.9836 0.0736 0.0000
vt 0.9242 0.0644 0.0000
vt 0.9101 0.0088 0.0000
vt 0.9924 0.1382 0.0000
vt 0.9260 0.1338 0.0000
vt 0.9939 0.2203 0.0000
vt 0.9258 0.2234 0.0000
vt 0.9813 0.3038 0.0000
vt 0.9175 0.3076 0.0000
vt 0.9666 0.3579 0.0000
vt 0.9098 0.3718 0.0000
vt 0.8400 0.0578 0.0000
vt 0.8342 0.0048 0.0000
vt 0.8318 0.1245 0.0000
vt 0.8330 0.2203 0.0000
vt 0.8359 0.3168 0.0000
vt 0.8274 0.3827 0.0000
vt 0.7675 0.0581 0.0000
vt 0.7680 0.0063 0.0000
vt 0.7543 0.1182 0.0000
vt 0.7405 0.2069 0.0000
vt 0.7519 0.3044 0.0000
vt 0.7437 0.3680 0.0000
vt 0.7113 0.0597 0.0000
vt 0.7152 0.0099 0.0000
vt 0.6915 0.1199 0.0000
vt 0.6683 0.1983 0.0000
vt 0.6708 0.2770 0.0000
vt 0.6822 0.3431 0.0000
vt 0.6575 0.0649 0.0000
vt 0.6687 0.0178 0.0000
vt 0.6363 0.1213 0.0000
vt 0.6126 0.1926 0.0000
vt 0.6184 0.2587 0.0000
vt 0.6238 0.3101 0.0000
vt 0.6889 0.4137 0.0000
vt 0.7360 0.4062 0.0000
vt 0.7290 0.4557 0.0000
vt 0.6719 0.4653 0.0000
vt 0.7980 0.3861 0.0000
vt 0.8018 0.4482 0.0000
vt 0.8772 0.3814 0.0000
vt 0.8761 0.4400 0.0000
vt 0.9457 0.4066 0.0000
vt 0.9450 0.4621 0.0000
vt 0.9941 0.4285 0.0000
vt 0.9939 0.4915 0.0000
vt 0.7149 0.5249 0.0000
vt 0.6425 0.5294 0.0000
vt 0.7899 0.5382 0.0000
vt 0.8725 0.5411 0.0000
vt 0.9409 0.5499 0.0000
vt 0.9858 0.5640 0.0000
vt 0.7183 0.6024 0.0000
vt 0.6461 0.5984 0.0000
vt 0.7876 0.6111 0.0000
vt 0.8643 0.6188 0.0000
vt 0.9318 0.6235 0.0000
vt 0.9729 0.6207 0.0000
vt 0.7130 0.6695 0.0000
vt 0.6462 0.6605 0.0000
vt 0.7811 0.6791 0.0000
vt 0.8510 0.6816 0.0000
vt 0.9160 0.6768 0.0000
vt 0.9607 0.6638 0.0000
vt 0.7320 0.7219 0.0000
vt 0.6808 0.7150 0.0000
vt 0.7876 0.7303 0.0000
vt 0.8488 0.7280 0.0000
vt 0.9019 0.7217 0.0000
vt 0.9477 0.7045 0.0000
vt 0.6645 0.7070 0.0000
vt 0.6686 0.7648 0.0000
vt 0.6129 0.7568 0.0000
vt 0.6030 0.7025 0.0000
vt 0.6692 0.8283 0.0000
vt 0.6213 0.8224 0.0000
vt 0.6624 0.8877 0.0000
vt 0.6122 0.8870 0.0000
vt 0.6462 0.9386 0.0000
vt 0.6029 0.9453 0.0000
vt 0.6298 0.9829 0.0000
vt 0.5934 0.9921 0.0000
vt 0.5475 0.7552 0.0000
vt 0.5367 0.7125 0.0000
vt 0.5526 0.8217 0.0000
vt 0.5478 0.8895 0.0000
vt 0.5446 0.9520 0.0000
vt 0.5410 0.9981 0.0000
vt 0.4809 0.7590 0.0000
vt 0.4806 0.7191 0.0000
vt 0.4860 0.8208 0.0000
vt 0.4801 0.8936 0.0000
vt 0.4826 0.9521 0.0000
vt 0.4846 0.9932 0.0000
vt 0.4241 0.7659 0.0000
vt 0.4351 0.7234 0.0000
vt 0.4179 0.8253 0.0000
vt 0.4127 0.8929 0.0000
vt 0.4269 0.9533 0.0000
vt 0.4325 0.9908 0.0000
vt 0.3792 0.7684 0.0000
vt 0.3925 0.7301 0.0000
vt 0.3695 0.8227 0.0000
vt 0.3600 0.8869 0.0000
vt 0.3798 0.9444 0.0000
vt 0.3888 0.9843 0.0000
vt 0.3137 0.3601 0.0000
vt 0.3501 0.3489 0.0000
vt 0.3484 0.3929 0.0000
vt 0.3076 0.3996 0.0000
vt 0.4095 0.3296 0.0000
vt 0.4050 0.3778 0.0000
vt 0.4804 0.3130 0.0000
vt 0.4875 0.3706 0.0000
vt 0.5553 0.3212 0.0000
vt 0.5670 0.3819 0.0000
vt 0.6109 0.3400 0.0000
vt 0.6235 0.3961 0.0000
vt 0.3436 0.4564 0.0000
vt 0.2958 0.4570 0.0000
vt 0.4143 0.4530 0.0000
vt 0.4942 0.4464 0.0000
vt 0.5705 0.4598 0.0000
vt 0.6309 0.4724 0.0000
vt 0.3486 0.5268 0.0000
vt 0.2974 0.5209 0.0000
vt 0.4148 0.5286 0.0000
vt 0.4916 0.5353 0.0000
vt 0.5644 0.5369 0.0000
vt 0.6187 0.5394 0.0000
vt 0.3581 0.5894 0.0000
vt 0.3117 0.5781 0.0000
vt 0.4232 0.5973 0.0000
vt 0.4879 0.5987 0.0000
vt 0.5541 0.5955 0.0000
vt 0.6033 0.5868 0.0000
vt 0.3665 0.6332 0.0000
vt 0.3245 0.6222 0.0000
vt 0.4241 0.6421 0.0000
vt 0.4864 0.6454 0.0000
vt 0.5482 0.6451 0.0000
vt 0.5942 0.6303 0.0000
# 216 texture coords

o rockLP002
g rockLP002
usemtl Stone03_wire_115115115
s 1
f 1/1/1 2/2/2 3/3/3 
f 3/3/3 4/4/4 1/1/1 
f 4/4/4 3/3/3 5/5/5 
f 5/5/5 6/6/6 4/4/4 
f 6/6/6 5/5/5 7/7/7 
f 7/7/7 8/8/8 6/6/6 
f 8/8/8 7/7/7 9/9/9 
f 9/9/9 10/10/10 8/8/8 
f 10/10/10 9/9/9 11/11/11 
f 11/11/11 12/12/12 10/10/10 
f 2/2/2 13/13/13 14/14/14 
f 14/14/14 3/3/3 2/2/2 
f 3/3/3 14/14/14 15/15/15 
f 15/15/15 5/5/5 3/3/3 
f 5/5/5 15/15/15 16/16/16 
f 16/16/16 7/7/7 5/5/5 
f 7/7/7 16/16/16 17/17/17 
f 17/17/17 9/9/9 7/7/7 
f 9/9/9 17/17/17 18/18/18 
f 18/18/18 11/11/11 9/9/9 
f 13/13/13 19/19/19 20/20/20 
f 20/20/20 14/14/14 13/13/13 
f 14/14/14 20/20/20 21/21/21 
f 21/21/21 15/15/15 14/14/14 
f 15/15/15 21/21/21 22/22/22 
f 22/22/22 16/16/16 15/15/15 
f 16/16/16 22/22/22 23/23/23 
f 23/23/23 17/17/17 16/16/16 
f 17/17/17 23/23/23 24/24/24 
f 24/24/24 18/18/18 17/17/17 
f 19/19/19 25/25/25 26/26/26 
f 26/26/26 20/20/20 19/19/19 
f 20/20/20 26/26/26 27/27/27 
f 27/27/27 21/21/21 20/20/20 
f 21/21/21 27/27/27 28/28/28 
f 28/28/28 22/22/22 21/21/21 
f 22/22/22 28/28/28 29/29/29 
f 29/29/29 23/23/23 22/22/22 
f 23/23/23 29/29/29 30/30/30 
f 30/30/30 24/24/24 23/23/23 
f 25/25/25 31/31/31 32/32/32 
f 32/32/32 26/26/26 25/25/25 
f 26/26/26 32/32/32 33/33/33 
f 33/33/33 27/27/27 26/26/26 
f 27/27/27 33/33/33 34/34/34 
f 34/34/34 28/28/28 27/27/27 
f 28/28/28 34/34/34 35/35/35 
f 35/35/35 29/29/29 28/28/28 
f 29/29/29 35/35/35 36/36/36 
f 36/36/36 30/30/30 29/29/29 
f 37/37/37 38/38/38 39/39/39 
f 39/39/39 40/40/40 37/37/37 
f 38/38/38 41/41/41 42/42/42 
f 42/42/42 39/39/39 38/38/38 
f 41/41/41 43/43/43 44/44/44 
f 44/44/44 42/42/42 41/41/41 
f 43/43/43 45/45/45 46/46/46 
f 46/46/46 44/44/44 43/43/43 
f 45/45/45 47/47/47 48/48/48 
f 48/48/48 46/46/46 45/45/45 
f 40/40/40 39/39/39 49/49/49 
f 49/49/49 50/50/50 40/40/40 
f 39/39/39 42/42/42 51/51/51 
f 51/51/51 49/49/49 39/39/39 
f 42/42/42 44/44/44 52/52/52 
f 52/52/52 51/51/51 42/42/42 
f 44/44/44 46/46/46 53/53/53 
f 53/53/53 52/52/52 44/44/44 
f 46/46/46 48/48/48 54/54/54 
f 54/54/54 53/53/53 46/46/46 
f 50/50/50 49/49/49 55/55/55 
f 55/55/55 56/56/56 50/50/50 
f 49/49/49 51/51/51 57/57/57 
f 57/57/57 55/55/55 49/49/49 
f 51/51/51 52/52/52 58/58/58 
f 58/58/58 57/57/57 51/51/51 
f 52/52/52 53/53/53 59/59/59 
f 59/59/59 58/58/58 52/52/52 
f 53/53/53 54/54/54 60/60/60 
f 60/60/60 59/59/59 53/53/53 
f 56/56/56 55/55/55 61/61/61 
f 61/61/61 62/62/62 56/56/56 
f 55/55/55 57/57/57 63/63/63 
f 63/63/63 61/61/61 55/55/55 
f 57/57/57 58/58/58 64/64/64 
f 64/64/64 63/63/63 57/57/57 
f 58/58/58 59/59/59 65/65/65 
f 65/65/65 64/64/64 58/58/58 
f 59/59/59 60/60/60 66/66/66 
f 66/66/66 65/65/65 59/59/59 
f 62/62/62 61/61/61 67/67/67 
f 67/67/67 68/68/68 62/62/62 
f 61/61/61 63/63/63 69/69/69 
f 69/69/69 67/67/67 61/61/61 
f 63/63/63 64/64/64 70/70/70 
f 70/70/70 69/69/69 63/63/63 
f 64/64/64 65/65/65 71/71/71 
f 71/71/71 70/70/70 64/64/64 
f 65/65/65 66/66/66 72/72/72 
f 72/72/72 71/71/71 65/65/65 
f 1/73/1 4/74/4 73/75/73 
f 73/75/73 74/76/74 1/73/1 
f 4/74/4 6/77/6 75/78/75 
f 75/78/75 73/75/73 4/74/4 
f 6/77/6 8/79/8 76/80/76 
f 76/80/76 75/78/75 6/77/6 
f 8/79/8 10/81/10 77/82/77 
f 77/82/77 76/80/76 8/79/8 
f 10/81/10 12/83/12 78/84/78 
f 78/84/78 77/82/77 10/81/10 
f 74/76/74 73/75/73 79/85/79 
f 79/85/79 80/86/80 74/76/74 
f 73/75/73 75/78/75 81/87/81 
f 81/87/81 79/85/79 73/75/73 
f 75/78/75 76/80/76 82/88/82 
f 82/88/82 81/87/81 75/78/75 
f 76/80/76 77/82/77 83/89/83 
f 83/89/83 82/88/82 76/80/76 
f 77/82/77 78/84/78 84/90/84 
f 84/90/84 83/89/83 77/82/77 
f 80/86/80 79/85/79 85/91/85 
f 85/91/85 86/92/86 80/86/80 
f 79/85/79 81/87/81 87/93/87 
f 87/93/87 85/91/85 79/85/79 
f 81/87/81 82/88/82 88/94/88 
f 88/94/88 87/93/87 81/87/81 
f 82/88/82 83/89/83 89/95/89 
f 89/95/89 88/94/88 82/88/82 
f 83/89/83 84/90/84 90/96/90 
f 90/96/90 89/95/89 83/89/83 
f 86/92/86 85/91/85 91/97/91 
f 91/97/91 92/98/92 86/92/86 
f 85/91/85 87/93/87 93/99/93 
f 93/99/93 91/97/91 85/91/85 
f 87/93/87 88/94/88 94/100/94 
f 94/100/94 93/99/93 87/93/87 
f 88/94/88 89/95/89 95/101/95 
f 95/101/95 94/100/94 88/94/88 
f 89/95/89 90/96/90 96/102/96 
f 96/102/96 95/101/95 89/95/89 
f 92/98/92 91/97/91 38/103/38 
f 38/103/38 37/104/37 92/98/92 
f 91/97/91 93/99/93 41/105/41 
f 41/105/41 38/103/38 91/97/91 
f 93/99/93 94/100/94 43/106/43 
f 43/106/43 41/105/41 93/99/93 
f 94/100/94 95/101/95 45/107/45 
f 45/107/45 43/106/43 94/100/94 
f 95/101/95 96/102/96 47/108/47 
f 47/108/47 45/107/45 95/101/95 
f 12/109/12 11/110/11 97/111/97 
f 97/111/97 78/112/78 12/109/12 
f 11/110/11 18/113/18 98/114/98 
f 98/114/98 97/111/97 11/110/11 
f 18/113/18 24/115/24 99/116/99 
f 99/116/99 98/114/98 18/113/18 
f 24/115/24 30/117/30 100/118/100 
f 100/118/100 99/116/99 24/115/24 
f 30/117/30 36/119/36 101/120/101 
f 101/120/101 100/118/100 30/117/30 
f 78/112/78 97/111/97 102/121/102 
f 102/121/102 84/122/84 78/112/78 
f 97/111/97 98/114/98 103/123/103 
f 103/123/103 102/121/102 97/111/97 
f 98/114/98 99/116/99 104/124/104 
f 104/124/104 103/123/103 98/114/98 
f 99/116/99 100/118/100 105/125/105 
f 105/125/105 104/124/104 99/116/99 
f 100/118/100 101/120/101 106/126/106 
f 106/126/106 105/125/105 100/118/100 
f 84/122/84 102/121/102 107/127/107 
f 107/127/107 90/128/90 84/122/84 
f 102/121/102 103/123/103 108/129/108 
f 108/129/108 107/127/107 102/121/102 
f 103/123/103 104/124/104 109/130/109 
f 109/130/109 108/129/108 103/123/103 
f 104/124/104 105/125/105 110/131/110 
f 110/131/110 109/130/109 104/124/104 
f 105/125/105 106/126/106 111/132/111 
f 111/132/111 110/131/110 105/125/105 
f 90/128/90 107/127/107 112/133/112 
f 112/133/112 96/134/96 90/128/90 
f 107/127/107 108/129/108 113/135/113 
f 113/135/113 112/133/112 107/127/107 
f 108/129/108 109/130/109 114/136/114 
f 114/136/114 113/135/113 108/129/108 
f 109/130/109 110/131/110 115/137/115 
f 115/137/115 114/136/114 109/130/109 
f 110/131/110 111/132/111 116/138/116 
f 116/138/116 115/137/115 110/131/110 
f 96/134/96 112/133/112 48/139/48 
f 48/139/48 47/140/47 96/134/96 
f 112/133/112 113/135/113 54/141/54 
f 54/141/54 48/139/48 112/133/112 
f 113/135/113 114/136/114 60/142/60 
f 60/142/60 54/141/54 113/135/113 
f 114/136/114 115/137/115 66/143/66 
f 66/143/66 60/142/60 114/136/114 
f 115/137/115 116/138/116 72/144/72 
f 72/144/72 66/143/66 115/137/115 
f 36/145/36 35/146/35 117/147/117 
f 117/147/117 101/148/101 36/145/36 
f 35/146/35 34/149/34 118/150/118 
f 118/150/118 117/147/117 35/146/35 
f 34/149/34 33/151/33 119/152/119 
f 119/152/119 118/150/118 34/149/34 
f 33/151/33 32/153/32 120/154/120 
f 120/154/120 119/152/119 33/151/33 
f 32/153/32 31/155/31 121/156/121 
f 121/156/121 120/154/120 32/153/32 
f 101/148/101 117/147/117 122/157/122 
f 122/157/122 106/158/106 101/148/101 
f 117/147/117 118/150/118 123/159/123 
f 123/159/123 122/157/122 117/147/117 
f 118/150/118 119/152/119 124/160/124 
f 124/160/124 123/159/123 118/150/118 
f 119/152/119 120/154/120 125/161/125 
f 125/161/125 124/160/124 119/152/119 
f 120/154/120 121/156/121 126/162/126 
f 126/162/126 125/161/125 120/154/120 
f 106/158/106 122/157/122 127/163/127 
f 127/163/127 111/164/111 106/158/106 
f 122/157/122 123/159/123 128/165/128 
f 128/165/128 127/163/127 122/157/122 
f 123/159/123 124/160/124 129/166/129 
f 129/166/129 128/165/128 123/159/123 
f 124/160/124 125/161/125 130/167/130 
f 130/167/130 129/166/129 124/160/124 
f 125/161/125 126/162/126 131/168/131 
f 131/168/131 130/167/130 125/161/125 
f 111/164/111 127/163/127 132/169/132 
f 132/169/132 116/170/116 111/164/111 
f 127/163/127 128/165/128 133/171/133 
f 133/171/133 132/169/132 127/163/127 
f 128/165/128 129/166/129 134/172/134 
f 134/172/134 133/171/133 128/165/128 
f 129/166/129 130/167/130 135/173/135 
f 135/173/135 134/172/134 129/166/129 
f 130/167/130 131/168/131 136/174/136 
f 136/174/136 135/173/135 130/167/130 
f 116/170/116 132/169/132 71/175/71 
f 71/175/71 72/176/72 116/170/116 
f 132/169/132 133/171/133 70/177/70 
f 70/177/70 71/175/71 132/169/132 
f 133/171/133 134/172/134 69/178/69 
f 69/178/69 70/177/70 133/171/133 
f 134/172/134 135/173/135 67/179/67 
f 67/179/67 69/178/69 134/172/134 
f 135/173/135 136/174/136 68/180/68 
f 68/180/68 67/179/67 135/173/135 
f 31/181/31 25/182/25 137/183/137 
f 137/183/137 121/184/121 31/181/31 
f 25/182/25 19/185/19 138/186/138 
f 138/186/138 137/183/137 25/182/25 
f 19/185/19 13/187/13 139/188/139 
f 139/188/139 138/186/138 19/185/19 
f 13/187/13 2/189/2 140/190/140 
f 140/190/140 139/188/139 13/187/13 
f 2/189/2 1/191/1 74/192/74 
f 74/192/74 140/190/140 2/189/2 
f 121/184/121 137/183/137 141/193/141 
f 141/193/141 126/194/126 121/184/121 
f 137/183/137 138/186/138 142/195/142 
f 142/195/142 141/193/141 137/183/137 
f 138/186/138 139/188/139 143/196/143 
f 143/196/143 142/195/142 138/186/138 
f 139/188/139 140/190/140 144/197/144 
f 144/197/144 143/196/143 139/188/139 
f 140/190/140 74/192/74 80/198/80 
f 80/198/80 144/197/144 140/190/140 
f 126/194/126 141/193/141 145/199/145 
f 145/199/145 131/200/131 126/194/126 
f 141/193/141 142/195/142 146/201/146 
f 146/201/146 145/199/145 141/193/141 
f 142/195/142 143/196/143 147/202/147 
f 147/202/147 146/201/146 142/195/142 
f 143/196/143 144/197/144 148/203/148 
f 148/203/148 147/202/147 143/196/143 
f 144/197/144 80/198/80 86/204/86 
f 86/204/86 148/203/148 144/197/144 
f 131/200/131 145/199/145 149/205/149 
f 149/205/149 136/206/136 131/200/131 
f 145/199/145 146/201/146 150/207/150 
f 150/207/150 149/205/149 145/199/145 
f 146/201/146 147/202/147 151/208/151 
f 151/208/151 150/207/150 146/201/146 
f 147/202/147 148/203/148 152/209/152 
f 152/209/152 151/208/151 147/202/147 
f 148/203/148 86/204/86 92/210/92 
f 92/210/92 152/209/152 148/203/148 
f 136/206/136 149/205/149 62/211/62 
f 62/211/62 68/212/68 136/206/136 
f 149/205/149 150/207/150 56/213/56 
f 56/213/56 62/211/62 149/205/149 
f 150/207/150 151/208/151 50/214/50 
f 50/214/50 56/213/56 150/207/150 
f 151/208/151 152/209/152 40/215/40 
f 40/215/40 50/214/50 151/208/151 
f 152/209/152 92/210/92 37/216/37 
f 37/216/37 40/215/40 152/209/152 
# 300 faces

